<?xml version="1.0" standalone="no"?>
<!DOCTYPE svg PUBLIC "-//W3C//DTD SVG 20010904//EN"
 "http://www.w3.org/TR/2001/REC-SVG-20010904/DTD/svg10.dtd">
<svg version="1.0" xmlns="http://www.w3.org/2000/svg"
 width="37.000000pt" height="37.000000pt" viewBox="0 0 37.000000 37.000000"
 preserveAspectRatio="xMidYMid meet">

<g transform="translate(0.000000,37.000000) scale(0.100000,-0.100000)"
fill="#000000" stroke="none">
<path d="M25 345 c-24 -23 -25 -29 -25 -160 0 -131 1 -137 25 -160 23 -24 29
-25 160 -25 187 0 185 -2 185 185 0 131 -1 137 -25 160 -23 24 -29 25 -160 25
-131 0 -137 -1 -160 -25z m285 -55 c0 -19 -7 -20 -125 -20 -118 0 -125 1 -125
20 0 19 7 20 125 20 118 0 125 -1 125 -20z m0 -70 c0 -19 -7 -20 -125 -20
-118 0 -125 1 -125 20 0 19 7 20 125 20 118 0 125 -1 125 -20z m0 -70 c0 -19
-7 -20 -125 -20 -118 0 -125 1 -125 20 0 19 7 20 125 20 118 0 125 -1 125 -20z
m0 -70 c0 -19 -7 -20 -125 -20 -118 0 -125 1 -125 20 0 19 7 20 125 20 118 0
125 -1 125 -20z"/>
</g>
</svg>
