<svg id="svg" version="1.1" xmlns="http://www.w3.org/2000/svg" xmlns:xlink="http://www.w3.org/1999/xlink" width="400" height="400" viewBox="0, 0, 400,400"><g id="svgg"><path id="path0" d="M282.162 70.706 C 281.920 70.868,281.599 71.507,281.447 72.128 C 281.134 73.405,279.073 75.600,278.186 75.600 C 277.864 75.600,277.600 75.780,277.600 76.000 C 277.600 76.220,277.407 76.400,277.171 76.400 C 275.533 76.400,275.600 71.139,275.600 200.400 C 275.600 306.875,275.677 323.334,276.177 323.834 C 276.494 324.151,277.304 324.521,277.977 324.655 C 278.650 324.790,279.200 325.049,279.200 325.232 C 279.200 325.414,279.628 325.992,280.152 326.516 C 280.676 327.039,281.239 327.894,281.405 328.415 C 282.055 330.464,281.360 330.400,303.000 330.400 C 323.976 330.400,324.400 330.369,324.400 328.829 C 324.400 328.593,324.580 328.400,324.800 328.400 C 325.020 328.400,325.200 328.149,325.200 327.842 C 325.200 327.042,327.243 324.967,328.389 324.603 C 328.925 324.433,329.596 324.061,329.881 323.776 C 330.304 323.353,330.400 300.509,330.400 200.400 C 330.400 71.139,330.467 76.400,328.829 76.400 C 328.593 76.400,328.400 76.220,328.400 76.000 C 328.400 75.780,328.130 75.600,327.800 75.600 C 327.470 75.600,327.200 75.432,327.200 75.227 C 327.200 75.022,326.840 74.740,326.401 74.600 C 325.961 74.461,325.492 73.909,325.358 73.373 C 325.223 72.838,324.953 72.400,324.757 72.400 C 324.560 72.400,324.400 72.059,324.400 71.643 C 324.400 71.226,324.115 70.776,323.767 70.643 C 322.857 70.293,282.686 70.355,282.162 70.706 M184.900 124.665 C 184.625 124.776,184.400 125.212,184.400 125.633 C 184.400 126.055,184.220 126.400,184.000 126.400 C 183.780 126.400,183.600 126.662,183.600 126.982 C 183.600 127.302,183.142 128.022,182.582 128.582 C 182.022 129.142,181.302 129.600,180.982 129.600 C 180.662 129.600,180.400 129.780,180.400 130.000 C 180.400 130.220,180.207 130.400,179.971 130.400 C 178.339 130.400,178.400 126.645,178.400 227.400 C 178.400 305.391,178.497 323.354,178.919 323.776 C 179.204 324.061,179.875 324.433,180.411 324.603 C 181.557 324.967,183.600 327.042,183.600 327.842 C 183.600 328.149,183.780 328.400,184.000 328.400 C 184.220 328.400,184.400 328.593,184.400 328.829 C 184.400 330.369,184.824 330.400,205.800 330.400 C 227.440 330.400,226.745 330.464,227.395 328.415 C 227.561 327.894,228.124 327.039,228.648 326.516 C 229.172 325.992,229.600 325.414,229.600 325.232 C 229.600 325.049,230.150 324.790,230.823 324.655 C 231.496 324.521,232.306 324.151,232.623 323.834 C 233.122 323.335,233.200 310.358,233.200 227.400 C 233.200 126.645,233.261 130.400,231.629 130.400 C 231.393 130.400,231.200 130.220,231.200 130.000 C 231.200 129.780,230.904 129.600,230.543 129.600 C 229.636 129.600,227.681 127.467,227.350 126.116 C 227.200 125.502,226.880 124.868,226.638 124.706 C 226.154 124.382,185.701 124.342,184.900 124.665 M87.700 200.598 C 87.425 200.911,87.200 201.354,87.200 201.583 C 87.200 201.812,87.020 202.000,86.800 202.000 C 86.580 202.000,86.400 202.251,86.400 202.558 C 86.400 203.453,84.224 205.529,82.961 205.839 C 82.322 205.995,81.668 206.320,81.506 206.562 C 81.122 207.135,81.122 323.265,81.506 323.838 C 81.668 324.080,82.322 324.405,82.961 324.561 C 84.224 324.871,86.400 326.947,86.400 327.842 C 86.400 328.149,86.580 328.400,86.800 328.400 C 87.020 328.400,87.200 328.593,87.200 328.829 C 87.200 330.370,87.615 330.400,108.764 330.400 L 129.185 330.400 129.436 329.400 C 129.574 328.850,129.847 328.400,130.043 328.400 C 130.240 328.400,130.400 328.207,130.400 327.971 C 130.400 327.736,130.625 327.308,130.900 327.020 C 131.175 326.733,131.660 326.123,131.978 325.664 C 132.295 325.205,133.095 324.711,133.755 324.566 C 136.159 324.038,136.000 328.241,136.000 265.200 C 136.000 202.159,136.159 206.362,133.755 205.834 C 133.095 205.689,132.295 205.195,131.978 204.736 C 131.660 204.277,131.175 203.667,130.900 203.380 C 130.625 203.092,130.400 202.664,130.400 202.429 C 130.400 202.193,130.240 202.000,130.043 202.000 C 129.847 202.000,129.574 201.550,129.436 201.000 L 129.185 200.000 108.692 200.015 C 91.507 200.028,88.119 200.122,87.700 200.598 " stroke="none" fill="#fcfcfc" fill-rule="evenodd"></path><path id="path1" d="M279.600 67.200 C 279.600 67.420,278.776 67.600,277.769 67.600 C 276.147 67.600,275.746 67.793,274.269 69.285 L 272.600 70.971 272.600 200.385 L 272.600 329.800 274.400 331.600 L 276.200 333.400 303.000 333.400 L 329.800 333.400 331.600 331.600 L 333.400 329.800 333.400 200.385 L 333.400 70.971 331.731 69.285 C 330.254 67.793,329.853 67.600,328.231 67.600 C 327.224 67.600,326.400 67.420,326.400 67.200 C 326.400 66.938,318.333 66.800,303.000 66.800 C 287.667 66.800,279.600 66.938,279.600 67.200 M323.767 70.643 C 324.115 70.776,324.400 71.226,324.400 71.643 C 324.400 72.059,324.560 72.400,324.757 72.400 C 324.953 72.400,325.223 72.838,325.358 73.373 C 325.492 73.909,325.961 74.461,326.401 74.600 C 326.840 74.740,327.200 75.022,327.200 75.227 C 327.200 75.432,327.470 75.600,327.800 75.600 C 328.130 75.600,328.400 75.780,328.400 76.000 C 328.400 76.220,328.593 76.400,328.829 76.400 C 330.467 76.400,330.400 71.139,330.400 200.400 C 330.400 300.509,330.304 323.353,329.881 323.776 C 329.596 324.061,328.925 324.433,328.389 324.603 C 327.243 324.967,325.200 327.042,325.200 327.842 C 325.200 328.149,325.020 328.400,324.800 328.400 C 324.580 328.400,324.400 328.593,324.400 328.829 C 324.400 330.369,323.976 330.400,303.000 330.400 C 281.360 330.400,282.055 330.464,281.405 328.415 C 281.239 327.894,280.676 327.039,280.152 326.516 C 279.628 325.992,279.200 325.414,279.200 325.232 C 279.200 325.049,278.650 324.790,277.977 324.655 C 277.304 324.521,276.494 324.151,276.177 323.834 C 275.677 323.334,275.600 306.875,275.600 200.400 C 275.600 71.139,275.533 76.400,277.171 76.400 C 277.407 76.400,277.600 76.220,277.600 76.000 C 277.600 75.780,277.864 75.600,278.186 75.600 C 279.073 75.600,281.134 73.405,281.447 72.128 C 281.599 71.507,281.920 70.868,282.162 70.706 C 282.686 70.355,322.857 70.293,323.767 70.643 M182.400 121.200 C 182.400 121.420,181.576 121.600,180.569 121.600 C 177.909 121.600,175.600 123.916,175.600 126.584 C 175.600 127.583,175.420 128.400,175.200 128.400 C 174.934 128.400,174.800 161.667,174.800 227.400 C 174.800 293.133,174.934 326.400,175.200 326.400 C 175.420 326.400,175.600 327.210,175.600 328.200 C 175.600 329.784,175.804 330.204,177.300 331.700 L 179.000 333.400 205.967 333.400 C 227.799 333.400,232.966 333.301,233.107 332.878 C 233.203 332.590,233.488 332.182,233.741 331.970 C 233.993 331.758,234.650 331.213,235.200 330.759 L 236.200 329.933 236.200 227.449 L 236.200 124.964 234.484 123.282 C 232.986 121.814,232.541 121.600,230.984 121.600 C 230.003 121.600,229.200 121.420,229.200 121.200 C 229.200 120.938,221.133 120.800,205.800 120.800 C 190.467 120.800,182.400 120.938,182.400 121.200 M226.638 124.706 C 226.880 124.868,227.200 125.502,227.350 126.116 C 227.681 127.467,229.636 129.600,230.543 129.600 C 230.904 129.600,231.200 129.780,231.200 130.000 C 231.200 130.220,231.393 130.400,231.629 130.400 C 233.261 130.400,233.200 126.645,233.200 227.400 C 233.200 310.358,233.122 323.335,232.623 323.834 C 232.306 324.151,231.496 324.521,230.823 324.655 C 230.150 324.790,229.600 325.049,229.600 325.232 C 229.600 325.414,229.172 325.992,228.648 326.516 C 228.124 327.039,227.561 327.894,227.395 328.415 C 226.745 330.464,227.440 330.400,205.800 330.400 C 184.824 330.400,184.400 330.369,184.400 328.829 C 184.400 328.593,184.220 328.400,184.000 328.400 C 183.780 328.400,183.600 328.149,183.600 327.842 C 183.600 327.042,181.557 324.967,180.411 324.603 C 179.875 324.433,179.204 324.061,178.919 323.776 C 178.497 323.354,178.400 305.391,178.400 227.400 C 178.400 126.645,178.339 130.400,179.971 130.400 C 180.207 130.400,180.400 130.220,180.400 130.000 C 180.400 129.780,180.662 129.600,180.982 129.600 C 181.302 129.600,182.022 129.142,182.582 128.582 C 183.142 128.022,183.600 127.302,183.600 126.982 C 183.600 126.662,183.780 126.400,184.000 126.400 C 184.220 126.400,184.400 126.055,184.400 125.633 C 184.400 125.212,184.625 124.776,184.900 124.665 C 185.701 124.342,226.154 124.382,226.638 124.706 M83.461 197.081 C 80.620 197.324,78.400 199.556,78.400 202.169 C 78.400 203.176,78.220 204.000,78.000 204.000 C 77.735 204.000,77.600 224.667,77.600 265.200 C 77.600 305.733,77.735 326.400,78.000 326.400 C 78.220 326.400,78.400 327.224,78.400 328.231 C 78.400 329.853,78.593 330.254,80.085 331.731 L 81.771 333.400 108.752 333.400 C 130.184 333.400,135.768 333.296,135.902 332.893 C 136.064 332.409,136.407 332.043,137.786 330.884 C 138.186 330.548,138.400 329.677,138.400 328.384 C 138.400 327.293,138.580 326.400,138.800 326.400 C 139.065 326.400,139.200 305.733,139.200 265.200 C 139.200 224.667,139.065 204.000,138.800 204.000 C 138.580 204.000,138.400 203.113,138.400 202.029 C 138.400 200.137,138.264 199.864,136.655 198.522 C 136.339 198.260,136.003 197.810,135.908 197.522 C 135.739 197.015,88.851 196.620,83.461 197.081 M129.436 201.000 C 129.574 201.550,129.847 202.000,130.043 202.000 C 130.240 202.000,130.400 202.193,130.400 202.429 C 130.400 202.664,130.625 203.092,130.900 203.380 C 131.175 203.667,131.660 204.277,131.978 204.736 C 132.295 205.195,133.095 205.689,133.755 205.834 C 136.159 206.362,136.000 202.159,136.000 265.200 C 136.000 328.241,136.159 324.038,133.755 324.566 C 133.095 324.711,132.295 325.205,131.978 325.664 C 131.660 326.123,131.175 326.733,130.900 327.020 C 130.625 327.308,130.400 327.736,130.400 327.971 C 130.400 328.207,130.240 328.400,130.043 328.400 C 129.847 328.400,129.574 328.850,129.436 329.400 L 129.185 330.400 108.764 330.400 C 87.615 330.400,87.200 330.370,87.200 328.829 C 87.200 328.593,87.020 328.400,86.800 328.400 C 86.580 328.400,86.400 328.149,86.400 327.842 C 86.400 326.947,84.224 324.871,82.961 324.561 C 82.322 324.405,81.668 324.080,81.506 323.838 C 81.122 323.265,81.122 207.135,81.506 206.562 C 81.668 206.320,82.322 205.995,82.961 205.839 C 84.224 205.529,86.400 203.453,86.400 202.558 C 86.400 202.251,86.580 202.000,86.800 202.000 C 87.020 202.000,87.200 201.812,87.200 201.583 C 87.200 200.052,87.487 200.031,108.692 200.015 L 129.185 200.000 129.436 201.000 " stroke="none" fill="#e4ecec" fill-rule="evenodd"></path><path id="path2" d="M16.400 2.900 L 16.400 5.800 12.700 5.801 C 5.312 5.804,5.729 4.737,5.621 23.900 L 5.600 27.600 2.800 27.600 L 0.000 27.600 0.000 205.600 L 0.000 383.600 2.900 383.600 L 5.800 383.600 5.801 387.300 C 5.804 394.402,5.375 394.153,17.900 394.333 L 27.600 394.473 27.600 397.236 L 27.600 400.000 205.600 400.000 L 383.600 400.000 383.600 397.257 L 383.600 394.515 387.740 394.304 C 394.431 393.962,394.103 394.560,394.312 382.300 L 394.474 372.800 397.237 372.800 L 400.000 372.800 400.000 194.600 L 400.000 16.400 397.257 16.400 L 394.515 16.400 394.295 12.300 C 393.918 5.265,395.180 5.733,376.300 5.621 L 372.800 5.600 372.800 2.800 L 372.800 0.000 194.600 0.000 L 16.400 0.000 16.400 2.900 M10.400 6.400 C 10.070 6.613,9.440 6.773,9.000 6.754 C 8.341 6.726,8.376 6.664,9.200 6.400 C 10.614 5.947,11.101 5.947,10.400 6.400 M6.397 10.287 C 5.963 10.963,5.952 10.962,6.170 10.267 C 6.296 9.864,6.421 9.234,6.446 8.867 C 6.488 8.266,6.511 8.268,6.673 8.887 C 6.773 9.266,6.648 9.896,6.397 10.287 M326.400 62.400 C 326.400 62.626,327.533 62.800,329.000 62.800 C 330.430 62.800,331.600 62.958,331.600 63.150 C 331.600 63.343,332.157 63.611,332.837 63.747 C 334.142 64.008,336.400 66.097,336.400 67.042 C 336.400 67.349,336.580 67.600,336.800 67.600 C 337.020 67.600,337.200 67.855,337.200 68.167 C 337.200 68.478,337.425 68.808,337.700 68.900 C 338.099 69.033,338.200 95.649,338.200 200.200 C 338.200 304.751,338.099 331.367,337.700 331.500 C 337.425 331.592,337.200 332.012,337.200 332.433 C 337.200 332.855,337.020 333.200,336.800 333.200 C 336.580 333.200,336.400 333.462,336.400 333.782 C 336.400 334.536,334.536 336.400,333.782 336.400 C 333.462 336.400,333.200 336.580,333.200 336.800 C 333.200 337.020,332.855 337.200,332.433 337.200 C 332.012 337.200,331.592 337.425,331.500 337.700 C 331.256 338.433,274.744 338.433,274.500 337.700 C 274.408 337.425,273.988 337.200,273.567 337.200 C 273.145 337.200,272.800 337.040,272.800 336.843 C 272.800 336.647,272.362 336.377,271.827 336.242 C 271.291 336.108,270.739 335.639,270.600 335.199 C 270.460 334.760,270.178 334.400,269.973 334.400 C 269.768 334.400,269.600 334.145,269.600 333.833 C 269.600 333.522,269.392 333.197,269.138 333.113 C 268.862 333.021,268.601 331.646,268.487 329.679 C 268.383 327.876,268.140 326.400,267.949 326.400 C 267.751 326.400,267.600 271.749,267.600 200.400 C 267.600 126.614,267.748 74.400,267.958 74.400 C 268.154 74.400,268.382 72.929,268.464 71.131 C 268.560 69.007,268.785 67.805,269.106 67.698 C 269.378 67.607,269.600 67.355,269.600 67.138 C 269.600 66.921,269.825 66.508,270.100 66.220 C 270.375 65.933,270.864 65.317,271.187 64.851 C 271.510 64.385,272.365 63.893,273.087 63.757 C 273.809 63.622,274.400 63.351,274.400 63.155 C 274.400 62.960,275.570 62.800,277.000 62.800 C 278.467 62.800,279.600 62.626,279.600 62.400 C 279.600 62.138,287.667 62.000,303.000 62.000 C 318.333 62.000,326.400 62.138,326.400 62.400 M234.300 117.100 C 234.392 117.375,234.812 117.600,235.233 117.600 C 235.655 117.600,236.000 117.760,236.000 117.957 C 236.000 118.153,236.438 118.423,236.973 118.558 C 237.509 118.692,238.061 119.161,238.200 119.601 C 238.340 120.040,238.622 120.400,238.827 120.400 C 239.032 120.400,239.200 120.655,239.200 120.967 C 239.200 121.278,239.422 121.607,239.694 121.698 C 240.015 121.805,240.240 123.007,240.336 125.131 C 240.418 126.929,240.646 128.400,240.842 128.400 C 241.052 128.400,241.200 169.483,241.200 227.400 C 241.200 283.403,241.049 326.400,240.851 326.400 C 240.660 326.400,240.417 327.876,240.313 329.679 C 240.199 331.646,239.938 333.021,239.662 333.113 C 239.408 333.197,239.200 333.522,239.200 333.833 C 239.200 334.145,239.032 334.400,238.827 334.400 C 238.622 334.400,238.340 334.760,238.200 335.199 C 238.061 335.639,237.509 336.108,236.973 336.242 C 236.438 336.377,236.000 336.647,236.000 336.843 C 236.000 337.040,235.655 337.200,235.233 337.200 C 234.812 337.200,234.392 337.425,234.300 337.700 C 234.056 338.433,177.544 338.433,177.300 337.700 C 177.208 337.425,176.788 337.200,176.367 337.200 C 175.945 337.200,175.600 337.020,175.600 336.800 C 175.600 336.580,175.338 336.400,175.018 336.400 C 174.264 336.400,172.400 334.536,172.400 333.782 C 172.400 333.462,172.220 333.200,172.000 333.200 C 171.780 333.200,171.600 332.855,171.600 332.433 C 171.600 332.012,171.375 331.592,171.100 331.500 C 170.702 331.367,170.600 310.151,170.600 227.200 C 170.600 144.249,170.702 123.033,171.100 122.900 C 171.375 122.808,171.600 122.478,171.600 122.167 C 171.600 121.855,171.780 121.600,172.000 121.600 C 172.220 121.600,172.400 121.338,172.400 121.018 C 172.400 120.264,174.264 118.400,175.018 118.400 C 175.338 118.400,175.600 118.220,175.600 118.000 C 175.600 117.780,175.960 117.600,176.400 117.600 C 176.840 117.600,177.200 117.428,177.200 117.218 C 177.200 116.320,234.001 116.202,234.300 117.100 M137.100 192.700 C 137.192 192.975,137.522 193.200,137.833 193.200 C 138.145 193.200,138.400 193.380,138.400 193.600 C 138.400 193.820,138.696 194.000,139.057 194.000 C 140.011 194.000,141.984 196.222,142.262 197.609 C 142.393 198.264,142.657 198.800,142.850 198.800 C 143.042 198.800,143.200 199.970,143.200 201.400 C 143.200 202.867,143.374 204.000,143.600 204.000 C 143.865 204.000,144.000 224.667,144.000 265.200 C 144.000 305.733,143.865 326.400,143.600 326.400 C 143.374 326.400,143.200 327.533,143.200 329.000 C 143.200 330.430,143.042 331.600,142.850 331.600 C 142.657 331.600,142.393 332.136,142.262 332.791 C 141.984 334.178,140.011 336.400,139.057 336.400 C 138.696 336.400,138.400 336.580,138.400 336.800 C 138.400 337.020,138.145 337.200,137.833 337.200 C 137.522 337.200,137.192 337.425,137.100 337.700 C 136.969 338.094,130.871 338.200,108.400 338.200 C 85.929 338.200,79.831 338.094,79.700 337.700 C 79.608 337.425,79.278 337.200,78.967 337.200 C 78.655 337.200,78.400 337.020,78.400 336.800 C 78.400 336.580,78.149 336.400,77.842 336.400 C 76.897 336.400,74.808 334.142,74.547 332.837 C 74.411 332.157,74.142 331.600,73.950 331.600 C 73.757 331.600,73.600 330.430,73.600 329.000 C 73.600 327.533,73.426 326.400,73.200 326.400 C 72.935 326.400,72.800 305.733,72.800 265.200 C 72.800 224.667,72.935 204.000,73.200 204.000 C 73.426 204.000,73.600 202.867,73.600 201.400 C 73.600 199.970,73.758 198.800,73.950 198.800 C 74.142 198.800,74.411 198.243,74.547 197.563 C 74.808 196.258,76.897 194.000,77.842 194.000 C 78.149 194.000,78.400 193.820,78.400 193.600 C 78.400 193.380,78.670 193.200,79.000 193.200 C 79.330 193.200,79.600 193.028,79.600 192.818 C 79.600 191.921,136.802 191.804,137.100 192.700 " stroke="none" fill="#647484" fill-rule="evenodd"></path><path id="path3" d="M1.300 27.491 C 2.125 27.578,3.475 27.578,4.300 27.491 C 5.125 27.405,4.450 27.334,2.800 27.334 C 1.150 27.334,0.475 27.405,1.300 27.491 M275.600 63.182 C 275.600 63.392,274.970 63.682,274.200 63.826 C 273.430 63.971,272.800 64.249,272.800 64.445 C 272.800 64.640,272.596 64.800,272.347 64.800 C 271.753 64.800,270.400 66.372,270.400 67.061 C 270.400 67.358,270.220 67.600,270.000 67.600 C 269.780 67.600,269.600 67.855,269.600 68.167 C 269.600 68.478,269.375 68.808,269.100 68.900 C 268.364 69.145,268.364 331.255,269.100 331.500 C 269.375 331.592,269.600 332.012,269.600 332.433 C 269.600 332.855,269.780 333.200,270.000 333.200 C 270.220 333.200,270.400 333.442,270.400 333.739 C 270.400 334.670,271.842 335.988,273.146 336.249 C 273.836 336.387,274.400 336.658,274.400 336.850 C 274.400 337.043,274.670 337.200,275.000 337.200 C 275.330 337.200,275.600 337.380,275.600 337.600 C 275.600 337.863,285.000 338.000,303.000 338.000 C 321.000 338.000,330.400 337.863,330.400 337.600 C 330.400 337.380,330.670 337.200,331.000 337.200 C 331.330 337.200,331.600 337.043,331.600 336.850 C 331.600 336.658,332.145 336.391,332.810 336.258 C 334.360 335.948,335.948 334.360,336.258 332.810 C 336.391 332.145,336.658 331.600,336.850 331.600 C 337.043 331.600,337.200 331.330,337.200 331.000 C 337.200 330.670,337.380 330.400,337.600 330.400 C 337.866 330.400,338.000 286.800,338.000 200.400 C 338.000 114.000,337.866 70.400,337.600 70.400 C 337.380 70.400,337.200 70.040,337.200 69.600 C 337.200 69.160,337.040 68.800,336.843 68.800 C 336.647 68.800,336.370 68.334,336.227 67.766 C 335.950 66.662,334.312 64.800,333.618 64.800 C 333.388 64.800,333.200 64.640,333.200 64.445 C 333.200 64.249,332.570 63.971,331.800 63.826 C 331.030 63.682,330.400 63.392,330.400 63.182 C 330.400 62.943,320.133 62.800,303.000 62.800 C 285.867 62.800,275.600 62.943,275.600 63.182 M326.400 67.200 C 326.400 67.420,327.224 67.600,328.231 67.600 C 329.853 67.600,330.254 67.793,331.731 69.285 L 333.400 70.971 333.400 200.385 L 333.400 329.800 331.600 331.600 L 329.800 333.400 303.000 333.400 L 276.200 333.400 274.400 331.600 L 272.600 329.800 272.600 200.385 L 272.600 70.971 274.269 69.285 C 275.746 67.793,276.147 67.600,277.769 67.600 C 278.776 67.600,279.600 67.420,279.600 67.200 C 279.600 66.938,287.667 66.800,303.000 66.800 C 318.333 66.800,326.400 66.938,326.400 67.200 M178.400 117.200 C 178.400 117.420,178.130 117.600,177.800 117.600 C 177.470 117.600,177.200 117.758,177.200 117.950 C 177.200 118.142,176.655 118.409,175.990 118.542 C 174.533 118.833,172.929 120.346,172.573 121.766 C 172.430 122.334,172.153 122.800,171.957 122.800 C 171.760 122.800,171.600 123.160,171.600 123.600 C 171.600 124.040,171.420 124.400,171.200 124.400 C 170.934 124.400,170.800 159.000,170.800 227.400 C 170.800 295.800,170.934 330.400,171.200 330.400 C 171.420 330.400,171.600 330.670,171.600 331.000 C 171.600 331.330,171.758 331.600,171.950 331.600 C 172.143 331.600,172.409 332.145,172.542 332.810 C 172.852 334.360,174.440 335.948,175.990 336.258 C 176.655 336.391,177.200 336.658,177.200 336.850 C 177.200 337.043,177.470 337.200,177.800 337.200 C 178.130 337.200,178.400 337.380,178.400 337.600 C 178.400 337.863,187.800 338.000,205.800 338.000 C 223.800 338.000,233.200 337.863,233.200 337.600 C 233.200 337.380,233.470 337.200,233.800 337.200 C 234.130 337.200,234.400 337.043,234.400 336.850 C 234.400 336.658,234.964 336.387,235.654 336.249 C 236.958 335.988,238.400 334.670,238.400 333.739 C 238.400 333.442,238.580 333.200,238.800 333.200 C 239.020 333.200,239.200 332.855,239.200 332.433 C 239.200 332.012,239.425 331.592,239.700 331.500 C 240.098 331.367,240.200 310.151,240.200 227.200 C 240.200 144.249,240.098 123.033,239.700 122.900 C 239.425 122.808,239.200 122.478,239.200 122.167 C 239.200 121.855,239.020 121.600,238.800 121.600 C 238.580 121.600,238.400 121.358,238.400 121.061 C 238.400 120.130,236.958 118.812,235.654 118.551 C 234.964 118.413,234.400 118.142,234.400 117.950 C 234.400 117.758,234.130 117.600,233.800 117.600 C 233.470 117.600,233.200 117.420,233.200 117.200 C 233.200 116.937,223.800 116.800,205.800 116.800 C 187.800 116.800,178.400 116.937,178.400 117.200 M229.200 121.200 C 229.200 121.420,230.003 121.600,230.984 121.600 C 232.541 121.600,232.986 121.814,234.484 123.282 L 236.200 124.964 236.200 227.449 L 236.200 329.933 235.200 330.759 C 234.650 331.213,233.993 331.758,233.741 331.970 C 233.488 332.182,233.203 332.590,233.107 332.878 C 232.966 333.301,227.799 333.400,205.967 333.400 L 179.000 333.400 177.300 331.700 C 175.804 330.204,175.600 329.784,175.600 328.200 C 175.600 327.210,175.420 326.400,175.200 326.400 C 174.934 326.400,174.800 293.133,174.800 227.400 C 174.800 161.667,174.934 128.400,175.200 128.400 C 175.420 128.400,175.600 127.583,175.600 126.584 C 175.600 123.916,177.909 121.600,180.569 121.600 C 181.576 121.600,182.400 121.420,182.400 121.200 C 182.400 120.938,190.467 120.800,205.800 120.800 C 221.133 120.800,229.200 120.938,229.200 121.200 M81.200 192.800 C 81.200 193.020,80.840 193.200,80.400 193.200 C 79.960 193.200,79.600 193.360,79.600 193.557 C 79.600 193.753,79.134 194.030,78.566 194.173 C 77.462 194.450,75.600 196.088,75.600 196.782 C 75.600 197.012,75.440 197.200,75.245 197.200 C 75.049 197.200,74.771 197.830,74.626 198.600 C 74.482 199.370,74.192 200.000,73.982 200.000 C 73.741 200.000,73.600 224.063,73.600 265.200 C 73.600 306.337,73.741 330.400,73.982 330.400 C 74.192 330.400,74.482 331.030,74.626 331.800 C 74.771 332.570,75.049 333.200,75.245 333.200 C 75.440 333.200,75.600 333.388,75.600 333.618 C 75.600 334.312,77.462 335.950,78.566 336.227 C 79.134 336.370,79.600 336.647,79.600 336.843 C 79.600 337.040,79.960 337.200,80.400 337.200 C 80.840 337.200,81.200 337.380,81.200 337.600 C 81.200 337.863,90.600 338.000,108.600 338.000 C 126.600 338.000,136.000 337.863,136.000 337.600 C 136.000 337.380,136.270 337.200,136.600 337.200 C 136.930 337.200,137.200 337.028,137.200 336.818 C 137.200 336.608,137.824 336.319,138.586 336.176 C 139.445 336.015,140.064 335.628,140.213 335.158 C 140.346 334.741,140.622 334.400,140.827 334.400 C 141.032 334.400,141.200 334.130,141.200 333.800 C 141.200 333.470,141.360 333.200,141.555 333.200 C 141.751 333.200,142.029 332.570,142.174 331.800 C 142.318 331.030,142.608 330.400,142.818 330.400 C 143.059 330.400,143.200 306.337,143.200 265.200 C 143.200 224.063,143.059 200.000,142.818 200.000 C 142.608 200.000,142.318 199.370,142.174 198.600 C 142.029 197.830,141.751 197.200,141.555 197.200 C 141.360 197.200,141.200 196.930,141.200 196.600 C 141.200 196.270,141.032 196.000,140.827 196.000 C 140.622 196.000,140.346 195.659,140.213 195.242 C 140.064 194.772,139.445 194.385,138.586 194.224 C 137.824 194.081,137.200 193.792,137.200 193.582 C 137.200 193.372,136.930 193.200,136.600 193.200 C 136.270 193.200,136.000 193.020,136.000 192.800 C 136.000 192.537,126.600 192.400,108.600 192.400 C 90.600 192.400,81.200 192.537,81.200 192.800 M135.908 197.522 C 136.003 197.810,136.339 198.260,136.655 198.522 C 138.264 199.864,138.400 200.137,138.400 202.029 C 138.400 203.113,138.580 204.000,138.800 204.000 C 139.065 204.000,139.200 224.667,139.200 265.200 C 139.200 305.733,139.065 326.400,138.800 326.400 C 138.580 326.400,138.400 327.293,138.400 328.384 C 138.400 329.677,138.186 330.548,137.786 330.884 C 136.407 332.043,136.064 332.409,135.902 332.893 C 135.768 333.296,130.184 333.400,108.752 333.400 L 81.771 333.400 80.085 331.731 C 78.593 330.254,78.400 329.853,78.400 328.231 C 78.400 327.224,78.220 326.400,78.000 326.400 C 77.735 326.400,77.600 305.733,77.600 265.200 C 77.600 224.667,77.735 204.000,78.000 204.000 C 78.220 204.000,78.400 203.176,78.400 202.169 C 78.400 199.556,80.620 197.324,83.461 197.081 C 88.851 196.620,135.739 197.015,135.908 197.522 M27.334 397.200 C 27.334 398.850,27.405 399.525,27.491 398.700 C 27.578 397.875,27.578 396.525,27.491 395.700 C 27.405 394.875,27.334 395.550,27.334 397.200 " stroke="none" fill="#88bcc0" fill-rule="evenodd"></path><path id="path4" d="M279.600 62.400 C 279.600 62.662,287.667 62.800,303.000 62.800 C 318.333 62.800,326.400 62.662,326.400 62.400 C 326.400 62.138,318.333 62.000,303.000 62.000 C 287.667 62.000,279.600 62.138,279.600 62.400 M274.400 63.155 C 274.400 63.351,273.809 63.622,273.087 63.757 C 272.365 63.893,271.510 64.385,271.187 64.851 C 270.864 65.317,270.375 65.933,270.100 66.220 C 269.825 66.508,269.600 66.921,269.600 67.138 C 269.600 67.355,269.424 67.593,269.209 67.667 C 268.994 67.740,268.748 68.340,268.663 69.000 C 268.578 69.660,268.586 69.885,268.682 69.500 C 268.777 69.115,269.023 68.800,269.228 68.800 C 269.433 68.800,269.600 68.530,269.600 68.200 C 269.600 67.870,269.780 67.600,270.000 67.600 C 270.220 67.600,270.400 67.358,270.400 67.061 C 270.400 66.372,271.753 64.800,272.347 64.800 C 272.596 64.800,272.800 64.640,272.800 64.445 C 272.800 64.249,273.430 63.971,274.200 63.826 C 275.576 63.568,276.175 62.800,275.000 62.800 C 274.670 62.800,274.400 62.960,274.400 63.155 M330.400 63.182 C 330.400 63.392,331.030 63.682,331.800 63.826 C 332.570 63.971,333.200 64.249,333.200 64.445 C 333.200 64.640,333.388 64.800,333.618 64.800 C 334.312 64.800,335.950 66.662,336.227 67.766 C 336.370 68.334,336.647 68.800,336.843 68.800 C 337.040 68.800,337.200 69.160,337.200 69.600 C 337.200 70.040,337.380 70.400,337.600 70.400 C 337.820 70.400,338.000 70.040,338.000 69.600 C 338.000 69.160,337.820 68.800,337.600 68.800 C 337.380 68.800,337.200 68.530,337.200 68.200 C 337.200 67.870,337.020 67.600,336.800 67.600 C 336.580 67.600,336.400 67.349,336.400 67.042 C 336.400 66.097,334.142 64.008,332.837 63.747 C 332.157 63.611,331.600 63.343,331.600 63.150 C 331.600 62.958,331.330 62.800,331.000 62.800 C 330.670 62.800,330.400 62.972,330.400 63.182 M267.600 200.400 C 267.600 284.133,267.734 326.400,268.000 326.400 C 268.266 326.400,268.400 284.133,268.400 200.400 C 268.400 116.667,268.266 74.400,268.000 74.400 C 267.734 74.400,267.600 116.667,267.600 200.400 M338.198 200.400 C 338.198 269.810,338.244 298.205,338.300 263.500 C 338.356 228.795,338.356 172.005,338.300 137.300 C 338.244 102.595,338.198 130.990,338.198 200.400 M194.129 116.700 C 200.689 116.762,211.309 116.761,217.729 116.700 C 224.148 116.638,218.780 116.587,205.800 116.588 C 192.820 116.588,187.568 116.638,194.129 116.700 M177.200 117.200 C 177.200 117.420,176.840 117.600,176.400 117.600 C 175.960 117.600,175.600 117.780,175.600 118.000 C 175.600 118.220,175.338 118.400,175.018 118.400 C 174.698 118.400,173.978 118.858,173.418 119.418 C 172.858 119.978,172.400 120.698,172.400 121.018 C 172.400 121.338,172.220 121.600,172.000 121.600 C 171.780 121.600,171.600 121.870,171.600 122.200 C 171.600 122.530,171.420 122.800,171.200 122.800 C 170.980 122.800,170.800 123.160,170.800 123.600 C 170.800 124.040,170.980 124.400,171.200 124.400 C 171.420 124.400,171.600 124.040,171.600 123.600 C 171.600 123.160,171.760 122.800,171.957 122.800 C 172.153 122.800,172.430 122.334,172.573 121.766 C 172.929 120.346,174.533 118.833,175.990 118.542 C 176.655 118.409,177.200 118.142,177.200 117.950 C 177.200 117.758,177.470 117.600,177.800 117.600 C 178.130 117.600,178.400 117.420,178.400 117.200 C 178.400 116.980,178.130 116.800,177.800 116.800 C 177.470 116.800,177.200 116.980,177.200 117.200 M233.200 117.200 C 233.200 117.420,233.470 117.600,233.800 117.600 C 234.130 117.600,234.400 117.758,234.400 117.950 C 234.400 118.142,234.964 118.413,235.654 118.551 C 236.958 118.812,238.400 120.130,238.400 121.061 C 238.400 121.358,238.580 121.600,238.800 121.600 C 239.020 121.600,239.200 121.870,239.200 122.200 C 239.200 122.530,239.367 122.800,239.572 122.800 C 239.777 122.800,240.023 123.115,240.118 123.500 C 240.214 123.885,240.222 123.660,240.137 123.000 C 240.052 122.340,239.806 121.740,239.591 121.667 C 239.376 121.593,239.200 121.278,239.200 120.967 C 239.200 120.655,239.032 120.400,238.827 120.400 C 238.622 120.400,238.340 120.040,238.200 119.601 C 238.061 119.161,237.509 118.692,236.973 118.558 C 236.438 118.423,236.000 118.153,236.000 117.957 C 236.000 117.760,235.640 117.600,235.200 117.600 C 234.760 117.600,234.400 117.420,234.400 117.200 C 234.400 116.980,234.130 116.800,233.800 116.800 C 233.470 116.800,233.200 116.980,233.200 117.200 M170.597 227.400 C 170.597 281.960,170.643 304.221,170.700 276.868 C 170.757 249.515,170.757 204.875,170.700 177.668 C 170.643 150.461,170.597 172.840,170.597 227.400 M240.400 227.400 C 240.400 293.133,240.534 326.400,240.800 326.400 C 241.066 326.400,241.200 293.133,241.200 227.400 C 241.200 161.667,241.066 128.400,240.800 128.400 C 240.534 128.400,240.400 161.667,240.400 227.400 M96.700 192.300 C 103.135 192.362,113.665 192.362,120.100 192.300 C 126.535 192.238,121.270 192.187,108.400 192.187 C 95.530 192.187,90.265 192.238,96.700 192.300 M79.600 192.800 C 79.600 193.020,79.330 193.200,79.000 193.200 C 78.670 193.200,78.400 193.380,78.400 193.600 C 78.400 193.820,78.149 194.000,77.842 194.000 C 76.897 194.000,74.808 196.258,74.547 197.563 C 74.411 198.243,74.142 198.800,73.950 198.800 C 73.758 198.800,73.600 199.070,73.600 199.400 C 73.600 200.575,74.368 199.976,74.626 198.600 C 74.771 197.830,75.049 197.200,75.245 197.200 C 75.440 197.200,75.600 197.012,75.600 196.782 C 75.600 196.088,77.462 194.450,78.566 194.173 C 79.134 194.030,79.600 193.753,79.600 193.557 C 79.600 193.360,79.960 193.200,80.400 193.200 C 80.840 193.200,81.200 193.020,81.200 192.800 C 81.200 192.580,80.840 192.400,80.400 192.400 C 79.960 192.400,79.600 192.580,79.600 192.800 M136.000 192.800 C 136.000 193.020,136.270 193.200,136.600 193.200 C 136.930 193.200,137.200 193.372,137.200 193.582 C 137.200 193.792,137.824 194.081,138.586 194.224 C 139.445 194.385,140.064 194.772,140.213 195.242 C 140.346 195.659,140.622 196.000,140.827 196.000 C 141.032 196.000,141.200 196.270,141.200 196.600 C 141.200 196.930,141.360 197.200,141.555 197.200 C 141.751 197.200,142.029 197.830,142.174 198.600 C 142.432 199.976,143.200 200.575,143.200 199.400 C 143.200 199.070,143.042 198.800,142.850 198.800 C 142.657 198.800,142.393 198.264,142.262 197.609 C 141.984 196.222,140.011 194.000,139.057 194.000 C 138.696 194.000,138.400 193.820,138.400 193.600 C 138.400 193.380,138.130 193.200,137.800 193.200 C 137.470 193.200,137.200 193.020,137.200 192.800 C 137.200 192.580,136.930 192.400,136.600 192.400 C 136.270 192.400,136.000 192.580,136.000 192.800 M72.800 265.200 C 72.800 305.733,72.935 326.400,73.200 326.400 C 73.465 326.400,73.600 305.733,73.600 265.200 C 73.600 224.667,73.465 204.000,73.200 204.000 C 72.935 204.000,72.800 224.667,72.800 265.200 M143.200 265.200 C 143.200 305.733,143.335 326.400,143.600 326.400 C 143.865 326.400,144.000 305.733,144.000 265.200 C 144.000 224.667,143.865 204.000,143.600 204.000 C 143.335 204.000,143.200 224.667,143.200 265.200 M73.600 331.000 C 73.600 331.330,73.758 331.600,73.950 331.600 C 74.142 331.600,74.411 332.157,74.547 332.837 C 74.808 334.142,76.897 336.400,77.842 336.400 C 78.149 336.400,78.400 336.580,78.400 336.800 C 78.400 337.020,78.670 337.200,79.000 337.200 C 79.330 337.200,79.600 337.380,79.600 337.600 C 79.600 337.820,79.960 338.000,80.400 338.000 C 80.840 338.000,81.200 337.820,81.200 337.600 C 81.200 337.380,80.840 337.200,80.400 337.200 C 79.960 337.200,79.600 337.040,79.600 336.843 C 79.600 336.647,79.134 336.370,78.566 336.227 C 77.462 335.950,75.600 334.312,75.600 333.618 C 75.600 333.388,75.440 333.200,75.245 333.200 C 75.049 333.200,74.771 332.570,74.626 331.800 C 74.368 330.424,73.600 329.825,73.600 331.000 M142.174 331.800 C 142.029 332.570,141.751 333.200,141.555 333.200 C 141.360 333.200,141.200 333.470,141.200 333.800 C 141.200 334.130,141.032 334.400,140.827 334.400 C 140.622 334.400,140.346 334.741,140.213 335.158 C 140.064 335.628,139.445 336.015,138.586 336.176 C 137.824 336.319,137.200 336.608,137.200 336.818 C 137.200 337.028,136.930 337.200,136.600 337.200 C 136.270 337.200,136.000 337.380,136.000 337.600 C 136.000 337.820,136.270 338.000,136.600 338.000 C 136.930 338.000,137.200 337.820,137.200 337.600 C 137.200 337.380,137.470 337.200,137.800 337.200 C 138.130 337.200,138.400 337.020,138.400 336.800 C 138.400 336.580,138.696 336.400,139.057 336.400 C 140.011 336.400,141.984 334.178,142.262 332.791 C 142.393 332.136,142.657 331.600,142.850 331.600 C 143.042 331.600,143.200 331.330,143.200 331.000 C 143.200 329.825,142.432 330.424,142.174 331.800 M170.800 331.000 C 170.800 331.330,170.980 331.600,171.200 331.600 C 171.420 331.600,171.600 331.960,171.600 332.400 C 171.600 332.840,171.780 333.200,172.000 333.200 C 172.220 333.200,172.400 333.462,172.400 333.782 C 172.400 334.536,174.264 336.400,175.018 336.400 C 175.338 336.400,175.600 336.580,175.600 336.800 C 175.600 337.020,175.960 337.200,176.400 337.200 C 176.840 337.200,177.200 337.380,177.200 337.600 C 177.200 337.820,177.470 338.000,177.800 338.000 C 178.130 338.000,178.400 337.820,178.400 337.600 C 178.400 337.380,178.130 337.200,177.800 337.200 C 177.470 337.200,177.200 337.043,177.200 336.850 C 177.200 336.658,176.655 336.391,175.990 336.258 C 174.440 335.948,172.852 334.360,172.542 332.810 C 172.409 332.145,172.143 331.600,171.950 331.600 C 171.758 331.600,171.600 331.330,171.600 331.000 C 171.600 330.670,171.420 330.400,171.200 330.400 C 170.980 330.400,170.800 330.670,170.800 331.000 M240.000 330.933 C 240.000 331.300,239.820 331.600,239.600 331.600 C 239.380 331.600,239.200 331.960,239.200 332.400 C 239.200 332.840,239.020 333.200,238.800 333.200 C 238.580 333.200,238.400 333.442,238.400 333.739 C 238.400 334.670,236.958 335.988,235.654 336.249 C 234.964 336.387,234.400 336.658,234.400 336.850 C 234.400 337.043,234.130 337.200,233.800 337.200 C 233.470 337.200,233.200 337.380,233.200 337.600 C 233.200 337.820,233.470 338.000,233.800 338.000 C 234.130 338.000,234.400 337.820,234.400 337.600 C 234.400 337.380,234.760 337.200,235.200 337.200 C 235.640 337.200,236.000 337.040,236.000 336.843 C 236.000 336.647,236.438 336.377,236.973 336.242 C 237.509 336.108,238.061 335.639,238.200 335.199 C 238.340 334.760,238.622 334.400,238.827 334.400 C 239.032 334.400,239.200 334.130,239.200 333.800 C 239.200 333.470,239.357 333.200,239.550 333.200 C 239.942 333.200,240.519 330.786,240.203 330.469 C 240.091 330.358,240.000 330.567,240.000 330.933 M268.711 331.800 C 268.813 332.460,269.055 333.060,269.249 333.133 C 269.442 333.207,269.600 333.522,269.600 333.833 C 269.600 334.145,269.768 334.400,269.973 334.400 C 270.178 334.400,270.460 334.760,270.600 335.199 C 270.739 335.639,271.291 336.108,271.827 336.242 C 272.362 336.377,272.800 336.647,272.800 336.843 C 272.800 337.040,273.160 337.200,273.600 337.200 C 274.040 337.200,274.400 337.380,274.400 337.600 C 274.400 337.820,274.670 338.000,275.000 338.000 C 275.330 338.000,275.600 337.820,275.600 337.600 C 275.600 337.380,275.330 337.200,275.000 337.200 C 274.670 337.200,274.400 337.043,274.400 336.850 C 274.400 336.658,273.836 336.387,273.146 336.249 C 271.842 335.988,270.400 334.670,270.400 333.739 C 270.400 333.442,270.220 333.200,270.000 333.200 C 269.780 333.200,269.600 332.840,269.600 332.400 C 269.600 331.960,269.433 331.600,269.229 331.600 C 269.025 331.600,268.783 331.375,268.691 331.100 C 268.599 330.825,268.608 331.140,268.711 331.800 M337.200 331.000 C 337.200 331.330,337.043 331.600,336.850 331.600 C 336.658 331.600,336.391 332.145,336.258 332.810 C 336.125 333.476,335.567 334.469,335.018 335.018 C 334.469 335.567,333.476 336.125,332.810 336.258 C 332.145 336.391,331.600 336.658,331.600 336.850 C 331.600 337.043,331.330 337.200,331.000 337.200 C 330.670 337.200,330.400 337.380,330.400 337.600 C 330.400 337.820,330.670 338.000,331.000 338.000 C 331.330 338.000,331.600 337.820,331.600 337.600 C 331.600 337.380,331.960 337.200,332.400 337.200 C 332.840 337.200,333.200 337.020,333.200 336.800 C 333.200 336.580,333.462 336.400,333.782 336.400 C 334.102 336.400,334.822 335.942,335.382 335.382 C 335.942 334.822,336.400 334.102,336.400 333.782 C 336.400 333.462,336.580 333.200,336.800 333.200 C 337.020 333.200,337.200 332.840,337.200 332.400 C 337.200 331.960,337.380 331.600,337.600 331.600 C 337.820 331.600,338.000 331.330,338.000 331.000 C 338.000 330.670,337.820 330.400,337.600 330.400 C 337.380 330.400,337.200 330.670,337.200 331.000 M96.700 338.300 C 103.135 338.362,113.665 338.362,120.100 338.300 C 126.535 338.238,121.270 338.187,108.400 338.187 C 95.530 338.187,90.265 338.238,96.700 338.300 M194.129 338.300 C 200.689 338.362,211.309 338.361,217.729 338.300 C 224.148 338.238,218.780 338.187,205.800 338.188 C 192.820 338.188,187.568 338.238,194.129 338.300 M291.329 338.300 C 297.889 338.362,308.509 338.361,314.929 338.300 C 321.348 338.238,315.980 338.187,303.000 338.188 C 290.020 338.188,284.768 338.238,291.329 338.300 " stroke="none" fill="#8874c4" fill-rule="evenodd"></path></g></svg>