<svg id="svg" version="1.1" xmlns="http://www.w3.org/2000/svg" xmlns:xlink="http://www.w3.org/1999/xlink" width="400" height="400" viewBox="0, 0, 400,400"><g id="svgg"><path id="path0" d="M18.934 2.800 C 18.934 4.450,19.005 5.125,19.091 4.300 C 19.178 3.475,19.178 2.125,19.091 1.300 C 19.005 0.475,18.934 1.150,18.934 2.800 M19.672 2.853 C 19.594 6.172,18.945 6.934,17.058 5.924 C 16.075 5.398,8.799 5.759,7.615 6.392 C 6.311 7.090,5.965 8.217,5.719 12.573 L 5.484 16.711 6.476 16.522 C 7.193 16.385,7.467 16.507,7.467 16.966 C 7.467 17.315,7.317 17.600,7.133 17.600 C 6.950 17.600,6.800 17.405,6.800 17.167 C 6.800 16.928,6.575 16.809,6.300 16.901 C 5.958 17.015,5.785 18.132,5.753 20.434 C 5.728 22.285,5.683 24.565,5.653 25.500 L 5.600 27.200 2.700 27.272 L -0.200 27.344 2.800 27.600 L 5.800 27.856 2.900 27.928 L 0.000 28.000 0.000 201.400 L 0.000 374.800 2.900 374.872 L 5.800 374.944 2.800 375.200 L -0.200 375.456 2.800 375.600 L 5.800 375.744 2.800 375.990 L -0.200 376.236 2.757 376.418 C 5.559 376.591,5.719 376.652,5.820 377.600 C 5.926 378.596,5.916 378.600,2.963 378.468 C 0.474 378.358,0.000 378.438,0.000 378.968 C 0.000 379.479,0.555 379.614,2.900 379.672 L 5.800 379.744 2.800 380.000 L -0.200 380.256 2.925 380.328 C 5.657 380.391,6.036 380.488,5.935 381.100 C 5.872 381.485,5.971 382.041,6.155 382.335 C 6.350 382.647,6.305 383.055,6.045 383.315 C 5.796 383.564,5.614 384.999,5.632 386.580 C 5.649 388.131,5.754 389.175,5.865 388.900 C 5.976 388.625,6.332 388.400,6.657 388.400 C 6.982 388.400,7.143 388.569,7.015 388.776 C 6.887 388.982,7.127 389.126,7.547 389.094 C 7.968 389.062,8.230 388.821,8.129 388.559 C 8.028 388.296,8.150 387.955,8.399 387.800 C 8.660 387.639,8.822 387.750,8.779 388.060 C 8.642 389.063,8.798 389.648,9.147 389.433 C 9.337 389.315,9.799 389.557,10.173 389.970 C 10.546 390.383,10.684 390.824,10.480 390.951 C 10.275 391.078,9.817 390.861,9.463 390.470 C 8.483 389.387,6.000 389.767,6.000 390.999 C 6.000 392.549,7.287 393.796,8.318 393.244 C 9.042 392.856,9.144 392.880,8.948 393.391 C 8.772 393.850,8.997 393.998,9.857 393.994 C 10.742 393.989,10.865 393.900,10.400 393.600 C 10.070 393.387,10.004 393.209,10.253 393.206 C 10.503 393.203,10.797 392.853,10.908 392.430 C 11.049 391.890,10.944 391.723,10.555 391.873 C 9.772 392.173,9.865 391.893,10.821 391.075 C 11.364 390.610,11.618 390.546,11.573 390.886 C 11.364 392.464,11.585 392.910,12.300 392.356 C 12.956 391.848,12.959 391.864,12.352 392.607 C 11.996 393.043,11.786 393.625,11.886 393.900 C 12.119 394.546,16.400 394.594,16.400 393.951 C 16.400 393.634,16.549 393.626,16.907 393.923 C 17.185 394.154,18.850 394.346,20.607 394.348 C 22.363 394.351,24.565 394.364,25.500 394.377 L 27.200 394.400 27.272 397.300 L 27.344 400.200 27.600 397.200 L 27.856 394.200 27.928 397.100 L 28.000 400.000 201.800 400.000 L 375.600 400.000 375.672 397.100 L 375.744 394.200 376.000 397.200 L 376.256 400.200 376.400 397.200 L 376.544 394.200 376.800 397.200 L 377.056 400.200 377.128 397.300 C 377.232 393.131,378.400 393.039,378.400 397.200 C 378.400 401.361,379.568 401.269,379.672 397.100 L 379.744 394.200 380.000 397.200 L 380.256 400.200 380.400 397.200 L 380.544 394.200 380.800 397.200 L 381.056 400.200 381.131 397.400 C 381.200 394.841,381.292 394.560,382.203 394.138 C 382.892 393.818,383.200 393.808,383.200 394.104 C 383.200 394.340,383.316 394.418,383.457 394.276 C 383.598 394.135,383.463 393.710,383.157 393.333 C 382.788 392.879,382.769 392.748,383.100 392.947 C 383.375 393.112,383.600 393.057,383.600 392.824 C 383.600 392.591,383.780 392.400,384.000 392.400 C 384.220 392.400,384.400 392.850,384.400 393.400 C 384.400 394.321,384.545 394.400,386.229 394.400 C 388.177 394.400,389.163 393.776,389.150 392.550 C 389.125 390.125,390.125 389.125,392.550 389.150 C 393.776 389.163,394.400 388.177,394.400 386.229 C 394.400 384.545,394.321 384.400,393.400 384.400 C 392.850 384.400,392.400 384.220,392.400 384.000 C 392.400 383.780,392.808 383.600,393.307 383.600 C 394.180 383.600,394.215 383.464,394.264 379.900 C 394.291 377.865,394.333 375.435,394.357 374.500 L 394.400 372.800 397.300 372.728 L 400.200 372.656 397.200 372.400 L 394.200 372.144 397.100 372.072 L 400.000 372.000 400.000 198.600 L 400.000 25.200 397.100 25.128 L 394.200 25.056 397.200 24.800 L 400.200 24.544 397.200 24.400 L 394.200 24.256 397.200 24.000 L 400.200 23.744 397.300 23.672 C 393.131 23.568,393.039 22.400,397.200 22.400 C 399.920 22.400,400.000 22.371,400.000 21.400 C 400.000 20.432,399.907 20.398,397.100 20.328 L 394.200 20.256 397.200 20.000 L 400.200 19.744 397.200 19.600 L 394.200 19.456 397.200 19.200 L 400.200 18.944 397.076 18.872 C 395.097 18.826,394.044 18.652,394.202 18.397 C 394.339 18.175,394.137 17.680,393.754 17.297 C 393.108 16.651,393.107 16.590,393.729 16.471 C 394.257 16.369,394.400 15.887,394.400 14.204 C 394.400 11.841,393.884 11.309,392.607 12.352 C 391.864 12.959,391.848 12.956,392.356 12.300 C 392.910 11.585,392.464 11.364,390.886 11.573 C 390.546 11.618,390.610 11.364,391.075 10.821 C 391.893 9.865,392.173 9.772,391.873 10.555 C 391.723 10.944,391.890 11.049,392.430 10.908 C 392.853 10.797,393.203 10.503,393.206 10.253 C 393.209 10.004,393.387 10.070,393.600 10.400 C 393.900 10.865,393.989 10.742,393.994 9.857 C 393.998 8.997,393.850 8.772,393.391 8.948 C 392.880 9.144,392.856 9.042,393.244 8.318 C 393.796 7.287,392.549 6.000,390.999 6.000 C 389.767 6.000,389.387 8.483,390.470 9.463 C 390.861 9.817,391.078 10.275,390.951 10.480 C 390.824 10.684,390.383 10.546,389.970 10.173 C 389.557 9.799,389.315 9.337,389.433 9.147 C 389.648 8.798,389.063 8.642,388.060 8.779 C 387.750 8.822,387.639 8.660,387.800 8.399 C 387.955 8.150,388.296 8.028,388.559 8.129 C 388.821 8.230,389.062 7.968,389.094 7.547 C 389.126 7.127,388.982 6.887,388.776 7.015 C 388.569 7.143,388.400 6.982,388.400 6.657 C 388.400 6.332,388.625 5.973,388.900 5.858 C 389.175 5.743,387.640 5.658,385.488 5.670 C 381.929 5.688,381.622 5.749,382.082 6.345 C 382.491 6.877,382.431 6.868,381.762 6.300 C 380.836 5.514,379.800 5.352,380.238 6.062 C 380.435 6.381,380.350 6.412,379.962 6.162 C 379.653 5.963,378.680 5.781,377.800 5.758 C 376.920 5.735,375.435 5.690,374.500 5.658 L 372.800 5.600 372.728 2.700 L 372.656 -0.200 372.400 2.800 L 372.144 5.800 372.072 2.900 L 372.000 0.000 198.600 0.000 L 25.200 0.000 25.128 2.900 L 25.056 5.800 24.800 2.800 L 24.544 -0.200 24.400 2.800 L 24.256 5.800 24.000 2.800 L 23.744 -0.200 23.672 2.933 C 23.576 7.102,22.654 7.051,22.482 2.868 C 22.370 0.121,22.323 0.000,21.382 0.000 C 20.436 0.000,20.397 0.107,20.328 2.900 L 20.256 5.800 20.000 2.800 L 19.744 -0.200 19.672 2.853 M12.116 6.801 C 12.231 7.241,12.162 7.500,11.963 7.377 C 11.357 7.003,11.558 7.867,12.200 8.400 C 12.697 8.812,12.801 8.769,12.806 8.149 C 12.811 7.526,12.876 7.500,13.188 7.994 C 13.454 8.414,13.370 8.697,12.903 8.958 C 12.463 9.204,12.191 9.173,12.088 8.864 C 12.003 8.609,11.774 8.400,11.579 8.400 C 11.384 8.400,11.314 8.632,11.423 8.915 C 11.677 9.577,9.405 11.774,8.833 11.420 C 8.595 11.273,8.400 11.328,8.400 11.543 C 8.400 11.758,8.609 12.003,8.864 12.088 C 9.173 12.191,9.204 12.463,8.958 12.903 C 8.697 13.370,8.414 13.454,7.994 13.188 C 7.500 12.876,7.526 12.811,8.149 12.806 C 8.769 12.801,8.812 12.697,8.400 12.200 C 7.867 11.558,7.003 11.357,7.377 11.963 C 7.500 12.162,7.241 12.231,6.801 12.116 C 6.360 12.001,6.003 11.703,6.006 11.453 C 6.014 10.848,6.786 9.673,6.794 10.253 C 6.803 10.956,8.414 11.229,8.666 10.571 C 8.786 10.260,9.025 10.092,9.197 10.198 C 9.369 10.304,9.732 10.123,10.004 9.796 C 10.276 9.468,10.341 9.195,10.149 9.188 C 9.957 9.181,10.098 9.002,10.463 8.789 C 11.188 8.365,11.024 6.804,10.253 6.794 C 9.673 6.786,10.848 6.014,11.453 6.006 C 11.703 6.003,12.001 6.360,12.116 6.801 M13.781 6.464 C 14.859 6.955,15.147 7.600,14.289 7.600 C 14.008 7.600,13.470 7.240,13.093 6.800 C 12.300 5.874,12.389 5.830,13.781 6.464 M384.400 7.000 C 384.400 7.988,383.858 8.341,383.422 7.636 C 383.133 7.168,383.576 6.000,384.043 6.000 C 384.239 6.000,384.400 6.450,384.400 7.000 M387.322 6.257 C 387.060 6.364,386.944 6.709,387.064 7.024 C 387.185 7.338,387.458 7.488,387.671 7.356 C 387.885 7.224,387.822 7.495,387.533 7.958 C 387.244 8.421,386.849 8.800,386.655 8.800 C 386.461 8.800,386.549 8.500,386.851 8.134 C 387.348 7.531,387.286 7.494,386.200 7.746 C 385.327 7.948,385.164 7.914,385.600 7.618 C 385.930 7.395,386.020 7.204,385.800 7.193 C 385.580 7.183,385.749 6.910,386.176 6.587 C 386.604 6.264,387.144 6.014,387.376 6.032 C 387.617 6.049,387.593 6.147,387.322 6.257 M8.125 7.951 C 7.506 8.585,6.944 8.956,6.875 8.776 C 6.702 8.325,8.083 6.874,8.725 6.833 C 9.014 6.815,8.744 7.318,8.125 7.951 M392.591 8.400 C 392.185 8.856,392.163 9.193,392.499 9.800 C 392.882 10.491,392.859 10.533,392.334 10.103 C 392.000 9.830,391.653 9.665,391.563 9.737 C 391.152 10.064,390.121 8.452,390.426 7.958 C 390.689 7.533,390.811 7.564,391.021 8.111 C 391.366 9.010,392.071 9.002,391.979 8.100 C 391.859 6.915,391.978 6.748,392.563 7.284 C 393.033 7.715,393.037 7.899,392.591 8.400 M9.910 8.747 C 8.558 10.478,7.441 10.495,7.890 8.777 C 8.089 8.016,9.023 7.620,9.910 7.921 C 10.324 8.061,10.324 8.217,9.910 8.747 M9.926 10.088 C 9.335 10.699,8.988 11.200,9.156 11.200 C 9.535 11.200,11.399 9.245,11.168 9.089 C 11.076 9.026,10.516 9.476,9.926 10.088 M7.600 14.289 C 7.600 15.147,6.955 14.859,6.464 13.781 C 5.830 12.389,5.874 12.300,6.800 13.093 C 7.240 13.470,7.600 14.008,7.600 14.289 M394.000 14.249 C 394.000 14.937,393.337 14.973,393.064 14.300 C 392.911 13.924,392.756 13.948,392.437 14.400 C 392.131 14.832,392.011 14.855,392.006 14.483 C 392.003 14.199,392.225 13.722,392.500 13.423 C 393.067 12.807,394.000 13.321,394.000 14.249 M331.200 62.400 C 331.200 62.620,331.650 62.800,332.200 62.800 C 332.750 62.800,333.200 62.980,333.200 63.200 C 333.200 63.420,333.462 63.600,333.782 63.600 C 334.540 63.600,337.200 66.363,337.200 67.150 C 337.200 67.361,337.425 67.608,337.700 67.700 C 338.436 67.945,338.436 332.855,337.700 333.100 C 337.425 333.192,337.200 333.439,337.200 333.650 C 337.200 334.043,336.598 334.866,335.686 335.719 C 334.368 336.953,334.030 337.200,333.662 337.200 C 333.445 337.200,333.192 337.425,333.100 337.700 C 332.856 338.433,273.144 338.433,272.900 337.700 C 272.808 337.425,272.554 337.200,272.335 337.200 C 271.437 337.200,268.740 333.939,268.521 332.588 C 268.397 331.825,268.139 331.200,267.948 331.200 C 267.751 331.200,267.600 274.206,267.600 200.400 C 267.600 126.594,267.751 69.600,267.948 69.600 C 268.139 69.600,268.397 68.974,268.521 68.208 C 268.645 67.443,269.209 66.355,269.774 65.790 C 270.338 65.226,270.800 64.595,270.800 64.389 C 270.800 64.184,271.250 63.902,271.800 63.764 C 272.350 63.626,272.800 63.353,272.800 63.157 C 272.800 62.960,273.250 62.800,273.800 62.800 C 274.350 62.800,274.800 62.620,274.800 62.400 C 274.800 62.137,284.467 62.000,303.000 62.000 C 321.533 62.000,331.200 62.137,331.200 62.400 M235.900 117.100 C 235.992 117.375,236.246 117.600,236.465 117.600 C 237.363 117.600,240.060 120.861,240.279 122.212 C 240.403 122.975,240.661 123.600,240.852 123.600 C 241.048 123.600,241.200 168.884,241.200 227.400 C 241.200 285.916,241.048 331.200,240.852 331.200 C 240.661 331.200,240.403 331.825,240.279 332.588 C 240.060 333.939,237.363 337.200,236.465 337.200 C 236.246 337.200,235.992 337.425,235.900 337.700 C 235.656 338.433,175.944 338.433,175.700 337.700 C 175.608 337.425,175.361 337.200,175.150 337.200 C 174.757 337.200,173.934 336.598,173.081 335.686 C 171.847 334.368,171.600 334.030,171.600 333.662 C 171.600 333.445,171.375 333.192,171.100 333.100 C 170.702 332.967,170.600 311.471,170.600 227.400 C 170.600 143.329,170.702 121.833,171.100 121.700 C 171.375 121.608,171.600 121.361,171.600 121.150 C 171.600 120.757,172.202 119.934,173.114 119.081 C 174.442 117.838,174.773 117.600,175.171 117.600 C 175.407 117.600,175.600 117.432,175.600 117.227 C 175.600 116.298,235.591 116.172,235.900 117.100 M138.300 192.700 C 138.392 192.975,138.725 193.200,139.040 193.200 C 139.772 193.200,142.400 195.886,142.400 196.634 C 142.400 196.945,142.580 197.200,142.800 197.200 C 143.020 197.200,143.200 197.650,143.200 198.200 C 143.200 198.750,143.380 199.200,143.600 199.200 C 143.865 199.200,144.000 221.467,144.000 265.200 C 144.000 308.933,143.865 331.200,143.600 331.200 C 143.380 331.200,143.200 331.650,143.200 332.200 C 143.200 332.750,143.020 333.200,142.800 333.200 C 142.580 333.200,142.400 333.455,142.400 333.766 C 142.400 334.514,139.772 337.200,139.040 337.200 C 138.725 337.200,138.392 337.425,138.300 337.700 C 138.056 338.433,78.744 338.433,78.500 337.700 C 78.408 337.425,78.161 337.200,77.950 337.200 C 77.163 337.200,74.400 334.540,74.400 333.782 C 74.400 333.462,74.220 333.200,74.000 333.200 C 73.780 333.200,73.600 332.750,73.600 332.200 C 73.600 331.650,73.420 331.200,73.200 331.200 C 72.935 331.200,72.800 308.933,72.800 265.200 C 72.800 221.467,72.935 199.200,73.200 199.200 C 73.420 199.200,73.600 198.750,73.600 198.200 C 73.600 197.650,73.780 197.200,74.000 197.200 C 74.220 197.200,74.400 196.938,74.400 196.618 C 74.400 195.840,77.167 193.200,77.983 193.200 C 78.212 193.200,78.400 193.032,78.400 192.827 C 78.400 191.899,137.991 191.773,138.300 192.700 M1.300 377.091 C 2.125 377.178,3.475 377.178,4.300 377.091 C 5.125 377.005,4.450 376.934,2.800 376.934 C 1.150 376.934,0.475 377.005,1.300 377.091 M1.300 381.091 C 2.125 381.178,3.475 381.178,4.300 381.091 C 5.125 381.005,4.450 380.934,2.800 380.934 C 1.150 380.934,0.475 381.005,1.300 381.091 M8.000 384.000 C 8.000 384.220,7.550 384.400,7.000 384.400 C 6.450 384.400,6.000 384.220,6.000 384.000 C 6.000 383.780,6.450 383.600,7.000 383.600 C 7.550 383.600,8.000 383.780,8.000 384.000 M7.741 386.300 C 7.494 387.292,7.533 387.346,8.134 386.851 C 8.500 386.549,8.800 386.461,8.800 386.655 C 8.800 386.849,8.421 387.244,7.958 387.533 C 7.495 387.822,7.224 387.885,7.356 387.671 C 7.488 387.458,7.326 387.181,6.998 387.054 C 6.669 386.928,6.400 387.029,6.400 387.279 C 6.400 387.529,6.295 387.629,6.168 387.501 C 5.804 387.137,6.794 385.549,7.220 385.812 C 7.429 385.942,7.600 385.857,7.600 385.624 C 7.600 385.391,7.693 385.200,7.808 385.200 C 7.922 385.200,7.892 385.695,7.741 386.300 M394.000 386.913 C 394.000 387.563,393.897 387.613,393.404 387.204 C 393.077 386.932,392.926 386.519,393.070 386.287 C 393.233 386.023,393.080 385.960,392.666 386.119 C 392.234 386.285,392.000 386.172,392.000 385.796 C 392.000 385.324,392.184 385.301,393.000 385.673 C 393.572 385.933,394.000 386.464,394.000 386.913 M393.200 387.647 C 393.200 388.186,392.554 388.068,392.026 387.431 C 391.639 386.965,391.702 386.902,392.377 387.078 C 392.830 387.196,393.200 387.452,393.200 387.647 M390.094 390.167 C 389.564 391.014,389.677 391.545,390.339 391.313 C 390.877 391.125,390.907 391.183,390.500 391.621 C 389.585 392.607,389.878 394.000,391.000 394.000 C 391.550 394.000,392.000 393.809,392.000 393.576 C 392.000 393.343,392.178 393.263,392.395 393.397 C 392.622 393.537,392.689 393.377,392.554 393.023 C 392.423 392.683,392.127 392.521,391.896 392.664 C 391.638 392.824,391.597 392.729,391.788 392.419 C 392.022 392.041,391.862 391.988,391.150 392.207 L 390.200 392.499 391.170 391.450 C 392.345 390.178,392.536 390.140,392.184 391.250 C 391.986 391.875,392.048 392.018,392.419 391.788 C 392.729 391.597,392.824 391.638,392.664 391.896 C 392.521 392.127,392.683 392.423,393.023 392.554 C 393.377 392.689,393.537 392.622,393.397 392.395 C 393.263 392.178,393.343 392.000,393.576 392.000 C 393.809 392.000,394.000 391.550,394.000 391.000 C 394.000 389.878,392.607 389.585,391.621 390.500 C 391.184 390.906,391.124 390.881,391.303 390.367 C 391.554 389.645,390.526 389.475,390.094 390.167 M9.737 391.563 C 9.665 391.653,9.830 391.997,10.103 392.329 C 10.534 392.851,10.486 392.870,9.742 392.474 C 9.065 392.113,8.783 392.138,8.407 392.592 C 8.033 393.043,7.818 393.062,7.407 392.683 C 6.707 392.037,7.012 391.626,8.000 391.884 C 8.977 392.140,9.073 391.390,8.111 391.021 C 7.564 390.811,7.533 390.689,7.958 390.426 C 8.452 390.121,10.064 391.152,9.737 391.563 M388.000 392.849 C 388.000 393.545,387.288 393.181,387.078 392.377 C 386.902 391.702,386.965 391.639,387.431 392.026 C 387.744 392.286,388.000 392.656,388.000 392.849 M14.400 392.437 C 13.948 392.756,13.924 392.911,14.300 393.064 C 14.575 393.175,14.800 393.432,14.800 393.633 C 14.800 394.145,13.852 394.092,13.310 393.550 C 12.768 393.008,13.461 392.036,14.400 392.021 C 14.933 392.013,14.933 392.059,14.400 392.437 M386.119 392.666 C 385.960 393.080,386.023 393.233,386.287 393.070 C 386.519 392.926,386.932 393.077,387.204 393.404 C 387.613 393.897,387.563 394.000,386.913 394.000 C 386.464 394.000,385.933 393.572,385.673 393.000 C 385.301 392.184,385.324 392.000,385.796 392.000 C 386.172 392.000,386.285 392.234,386.119 392.666 " stroke="none" fill="#dce4ec" fill-rule="evenodd"></path><path id="path1" d="M16.482 2.900 C 16.652 7.085,17.748 7.085,17.918 2.900 C 18.027 0.189,17.981 0.000,17.200 0.000 C 16.419 0.000,16.373 0.189,16.482 2.900 M10.400 5.956 C 10.933 6.340,10.933 6.389,10.400 6.400 C 9.867 6.411,9.867 6.455,10.400 6.800 C 11.285 7.372,12.000 7.283,12.000 6.600 C 12.000 6.270,11.835 6.000,11.633 6.000 C 11.431 6.000,10.936 5.893,10.533 5.762 C 9.923 5.565,9.901 5.597,10.400 5.956 M388.900 5.865 C 388.625 5.976,388.400 6.332,388.400 6.657 C 388.400 7.006,388.591 7.129,388.868 6.958 C 389.180 6.765,389.253 6.884,389.088 7.314 C 388.914 7.767,389.013 7.893,389.420 7.737 C 389.739 7.614,390.000 7.084,390.000 6.557 C 390.000 5.597,389.829 5.490,388.900 5.865 M13.233 6.833 C 13.692 7.292,14.186 7.547,14.333 7.401 C 14.479 7.254,14.250 6.879,13.823 6.567 C 12.659 5.716,12.285 5.885,13.233 6.833 M386.451 6.360 C 386.149 6.551,385.971 6.912,386.054 7.163 C 386.146 7.439,386.480 7.299,386.899 6.809 C 387.618 5.970,387.404 5.756,386.451 6.360 M7.475 7.658 C 6.300 8.942,6.895 9.210,8.125 7.951 C 8.744 7.318,9.014 6.815,8.725 6.833 C 8.436 6.852,7.874 7.223,7.475 7.658 M391.875 7.058 C 391.754 7.179,391.753 7.533,391.872 7.844 C 391.992 8.155,391.850 8.723,391.557 9.105 C 391.264 9.487,391.543 9.350,392.176 8.800 C 393.012 8.074,393.261 7.986,393.084 8.480 C 392.911 8.963,393.008 9.095,393.420 8.937 C 393.739 8.814,394.000 8.453,394.000 8.134 C 394.000 7.814,393.835 7.655,393.632 7.780 C 393.430 7.905,393.001 7.744,392.680 7.423 C 392.358 7.101,391.996 6.937,391.875 7.058 M8.000 8.400 C 8.000 8.620,8.199 8.800,8.443 8.800 C 8.695 8.800,8.773 9.092,8.626 9.478 C 8.398 10.071,8.467 10.064,9.183 9.416 C 10.155 8.536,10.210 8.345,9.400 8.655 C 9.070 8.782,8.800 8.686,8.800 8.443 C 8.800 8.199,8.620 8.000,8.400 8.000 C 8.180 8.000,8.000 8.180,8.000 8.400 M5.762 10.533 C 5.893 10.936,6.000 11.431,6.000 11.633 C 6.000 11.835,6.270 12.000,6.600 12.000 C 7.283 12.000,7.372 11.285,6.800 10.400 C 6.455 9.867,6.411 9.867,6.400 10.400 C 6.389 10.933,6.340 10.933,5.956 10.400 C 5.597 9.901,5.565 9.923,5.762 10.533 M393.232 10.267 C 393.214 10.524,393.106 10.981,392.990 11.281 C 392.859 11.624,393.083 11.851,393.590 11.889 C 394.219 11.937,394.399 11.710,394.394 10.875 C 394.390 10.116,394.286 9.960,394.042 10.345 C 393.751 10.806,393.663 10.806,393.480 10.345 C 393.350 10.019,393.250 9.987,393.232 10.267 M6.000 12.724 C 6.000 13.308,7.129 14.605,7.401 14.333 C 7.547 14.186,7.292 13.692,6.833 13.233 C 6.375 12.775,6.000 12.546,6.000 12.724 M394.284 17.200 C 394.468 17.902,394.830 18.000,397.247 18.000 C 399.733 18.000,400.000 17.923,400.000 17.200 C 400.000 16.472,399.733 16.400,397.037 16.400 C 394.272 16.400,394.089 16.453,394.284 17.200 M277.500 66.683 C 276.455 66.772,275.600 67.014,275.600 67.222 C 275.600 67.430,275.407 67.600,275.171 67.600 C 274.936 67.600,274.489 67.854,274.179 68.164 C 273.868 68.475,273.422 68.793,273.188 68.871 C 272.953 68.949,272.655 70.045,272.525 71.306 C 272.395 72.568,272.133 73.600,271.944 73.600 C 271.753 73.600,271.600 129.972,271.600 200.600 C 271.600 272.343,271.751 327.600,271.948 327.600 C 272.139 327.600,272.385 328.394,272.495 329.365 C 272.763 331.743,274.257 333.237,276.635 333.505 C 277.606 333.615,278.400 333.861,278.400 334.052 C 278.400 334.246,289.318 334.400,303.000 334.400 C 316.682 334.400,327.600 334.246,327.600 334.052 C 327.600 333.861,328.394 333.615,329.365 333.505 C 331.743 333.237,333.237 331.743,333.505 329.365 C 333.615 328.394,333.861 327.600,334.052 327.600 C 334.249 327.600,334.400 272.343,334.400 200.600 C 334.400 129.972,334.247 73.600,334.056 73.600 C 333.867 73.600,333.605 72.568,333.475 71.306 C 333.345 70.045,333.047 68.949,332.812 68.871 C 332.578 68.793,332.132 68.475,331.821 68.164 C 331.511 67.854,331.079 67.600,330.862 67.600 C 330.645 67.600,330.392 67.375,330.300 67.100 C 330.139 66.617,282.714 66.242,277.500 66.683 M180.100 120.681 C 179.165 120.772,178.400 121.016,178.400 121.223 C 178.400 121.430,178.130 121.600,177.800 121.600 C 177.470 121.600,177.200 121.768,177.200 121.973 C 177.200 122.178,176.840 122.460,176.400 122.600 C 175.960 122.740,175.600 123.187,175.600 123.594 C 175.600 124.000,175.375 124.408,175.100 124.500 C 174.364 124.745,174.364 330.055,175.100 330.300 C 175.375 330.392,175.600 330.640,175.600 330.852 C 175.600 331.831,177.744 333.315,179.435 333.505 C 180.406 333.615,181.200 333.861,181.200 334.052 C 181.200 334.246,192.118 334.400,205.800 334.400 C 219.482 334.400,230.400 334.246,230.400 334.052 C 230.400 333.861,231.194 333.615,232.165 333.505 C 234.543 333.237,236.037 331.743,236.305 329.365 C 236.415 328.394,236.661 327.600,236.852 327.600 C 237.048 327.600,237.200 284.034,237.200 227.600 C 237.200 172.044,237.047 127.600,236.856 127.600 C 236.667 127.600,236.405 126.568,236.275 125.306 C 236.145 124.045,235.847 122.949,235.612 122.871 C 235.378 122.793,234.932 122.475,234.621 122.164 C 234.311 121.854,233.879 121.600,233.662 121.600 C 233.445 121.600,233.192 121.375,233.100 121.100 C 232.939 120.615,184.705 120.234,180.100 120.681 M84.400 196.344 C 84.400 196.533,83.368 196.795,82.106 196.925 C 80.845 197.055,79.749 197.353,79.671 197.588 C 79.593 197.822,79.275 198.268,78.964 198.579 C 78.654 198.889,78.400 199.321,78.400 199.538 C 78.400 199.755,78.175 200.008,77.900 200.100 C 77.165 200.345,77.165 330.055,77.900 330.300 C 78.175 330.392,78.400 330.722,78.400 331.033 C 78.400 331.345,78.568 331.600,78.773 331.600 C 78.978 331.600,79.259 331.955,79.397 332.389 C 79.584 332.980,80.145 333.245,81.624 333.441 C 82.711 333.585,83.600 333.860,83.600 334.052 C 83.600 334.246,94.578 334.400,108.400 334.400 C 122.195 334.400,133.200 334.246,133.200 334.052 C 133.200 333.861,134.015 333.612,135.012 333.500 C 136.831 333.295,138.400 332.109,138.400 330.939 C 138.400 330.642,138.580 330.400,138.800 330.400 C 139.020 330.400,139.200 329.770,139.200 329.000 C 139.200 328.230,139.380 327.600,139.600 327.600 C 139.865 327.600,140.000 306.600,140.000 265.400 C 140.000 224.200,139.865 203.200,139.600 203.200 C 139.380 203.200,139.200 202.480,139.200 201.600 C 139.200 200.720,139.020 200.000,138.800 200.000 C 138.580 200.000,138.400 199.758,138.400 199.461 C 138.400 198.143,136.812 197.067,134.594 196.883 C 133.388 196.783,132.400 196.543,132.400 196.350 C 132.400 196.154,121.872 196.000,108.400 196.000 C 95.200 196.000,84.400 196.155,84.400 196.344 M0.000 383.000 C 0.000 383.480,0.600 383.600,3.000 383.600 C 5.019 383.600,6.000 383.753,6.000 384.067 C 6.000 384.323,6.083 384.450,6.184 384.349 C 6.285 384.248,6.264 383.768,6.137 383.283 C 5.843 382.158,0.000 381.889,0.000 383.000 M6.233 386.657 C 5.877 387.586,6.082 387.611,6.970 386.748 C 7.607 386.129,7.631 386.000,7.113 386.000 C 6.768 386.000,6.372 386.296,6.233 386.657 M5.843 389.033 C 5.486 389.963,5.513 390.000,6.557 390.000 C 7.084 390.000,7.614 389.739,7.737 389.420 C 7.893 389.013,7.767 388.914,7.314 389.088 C 6.884 389.253,6.765 389.180,6.958 388.868 C 7.128 388.593,7.008 388.400,6.666 388.400 C 6.347 388.400,5.976 388.685,5.843 389.033 M393.443 389.033 C 393.100 389.927,393.127 390.000,393.800 390.000 C 394.133 390.000,394.400 389.644,394.400 389.200 C 394.400 388.246,393.786 388.139,393.443 389.033 M8.988 391.619 C 8.846 391.850,8.430 392.009,8.065 391.973 C 6.873 391.856,6.733 391.990,7.375 392.632 C 7.723 392.980,7.905 393.430,7.780 393.632 C 7.655 393.835,7.814 394.000,8.134 394.000 C 8.453 394.000,8.814 393.739,8.937 393.420 C 9.095 393.008,8.963 392.911,8.480 393.084 C 7.987 393.261,8.067 393.036,8.770 392.264 C 9.303 391.679,9.629 391.200,9.493 391.200 C 9.358 391.200,9.131 391.389,8.988 391.619 M391.949 392.277 C 391.494 392.837,391.493 392.897,391.943 392.627 C 392.363 392.374,392.425 392.514,392.217 393.250 C 392.036 393.888,392.069 394.025,392.319 393.666 C 392.523 393.372,392.804 393.147,392.945 393.166 C 393.085 393.185,393.185 393.085,393.166 392.945 C 393.147 392.804,393.372 392.523,393.666 392.319 C 394.025 392.069,393.888 392.036,393.250 392.217 C 392.604 392.400,392.387 392.344,392.574 392.043 C 392.997 391.357,392.563 391.520,391.949 392.277 M10.600 393.200 C 10.061 393.432,9.996 393.555,10.400 393.578 C 10.933 393.608,10.933 393.655,10.400 394.000 C 9.931 394.303,10.034 394.389,10.875 394.394 C 11.705 394.399,11.937 394.218,11.890 393.600 C 11.824 392.720,11.762 392.701,10.600 393.200 M388.900 393.465 C 388.116 393.781,388.315 394.400,389.200 394.400 C 389.644 394.400,390.000 394.133,390.000 393.800 C 390.000 393.184,389.770 393.114,388.900 393.465 M382.580 394.353 C 382.050 394.884,382.430 400.000,383.000 400.000 C 383.476 400.000,383.600 399.426,383.600 397.233 C 383.600 395.389,383.767 394.402,384.100 394.274 C 384.375 394.168,384.186 394.102,383.680 394.127 C 383.174 394.153,382.679 394.254,382.580 394.353 " stroke="none" fill="#949cac" fill-rule="evenodd"></path><path id="path2" d="M17.925 3.100 C 17.849 4.805,17.797 6.238,17.811 6.284 C 17.824 6.330,18.232 6.264,18.717 6.137 C 19.539 5.923,19.595 5.695,19.528 2.853 L 19.456 -0.200 19.200 2.800 L 18.944 5.800 18.872 2.900 C 18.776 -0.958,18.100 -0.815,17.925 3.100 M20.134 2.800 C 20.134 4.450,20.205 5.125,20.291 4.300 C 20.378 3.475,20.378 2.125,20.291 1.300 C 20.205 0.475,20.134 1.150,20.134 2.800 M22.482 2.868 C 22.652 7.005,23.600 7.145,23.600 3.033 C 23.600 0.565,23.485 0.000,22.982 0.000 C 22.472 0.000,22.385 0.498,22.482 2.868 M24.134 2.800 C 24.134 4.450,24.205 5.125,24.291 4.300 C 24.378 3.475,24.378 2.125,24.291 1.300 C 24.205 0.475,24.134 1.150,24.134 2.800 M24.934 2.800 C 24.934 4.450,25.005 5.125,25.091 4.300 C 25.178 3.475,25.178 2.125,25.091 1.300 C 25.005 0.475,24.934 1.150,24.934 2.800 M372.134 2.800 C 372.134 4.450,372.205 5.125,372.291 4.300 C 372.378 3.475,372.378 2.125,372.291 1.300 C 372.205 0.475,372.134 1.150,372.134 2.800 M383.400 6.800 C 383.108 7.272,383.487 8.000,384.024 8.000 C 384.231 8.000,384.400 7.640,384.400 7.200 C 384.400 6.356,383.818 6.124,383.400 6.800 M386.650 7.120 C 386.483 7.390,386.559 7.600,386.825 7.600 C 387.178 7.600,387.171 7.753,386.800 8.200 C 386.526 8.530,386.461 8.800,386.655 8.800 C 386.849 8.800,387.244 8.421,387.533 7.958 C 387.822 7.495,387.881 7.226,387.664 7.361 C 387.446 7.495,387.196 7.388,387.107 7.122 C 386.982 6.747,386.880 6.747,386.650 7.120 M12.806 8.149 C 12.801 8.759,12.692 8.808,12.217 8.414 C 11.636 7.932,9.700 8.766,10.212 9.279 C 10.326 9.393,10.145 9.714,9.810 9.992 C 9.474 10.270,9.200 10.346,9.200 10.160 C 9.200 9.974,8.914 10.230,8.565 10.728 C 8.062 11.446,8.031 11.755,8.414 12.217 C 8.808 12.692,8.759 12.801,8.149 12.806 C 7.526 12.811,7.500 12.876,7.994 13.188 C 8.414 13.454,8.697 13.370,8.958 12.903 C 9.204 12.463,9.173 12.191,8.864 12.088 C 8.609 12.003,8.400 11.758,8.400 11.543 C 8.400 11.328,8.595 11.273,8.833 11.420 C 9.405 11.774,11.677 9.577,11.423 8.915 C 11.314 8.632,11.384 8.400,11.579 8.400 C 11.774 8.400,12.003 8.609,12.088 8.864 C 12.191 9.173,12.463 9.204,12.903 8.958 C 13.370 8.697,13.454 8.414,13.188 7.994 C 12.876 7.500,12.811 7.526,12.806 8.149 M389.200 7.987 C 389.200 8.201,388.948 8.278,388.640 8.160 C 388.333 8.042,387.955 8.150,387.800 8.399 C 387.639 8.660,387.750 8.822,388.060 8.779 C 389.063 8.642,389.648 8.798,389.433 9.147 C 389.161 9.587,390.573 10.894,390.932 10.534 C 391.080 10.387,391.200 10.462,391.200 10.700 C 391.200 10.938,390.975 11.209,390.700 11.302 C 390.425 11.394,390.782 11.487,391.493 11.508 C 392.204 11.529,392.902 11.359,393.043 11.130 C 393.210 10.861,392.983 10.815,392.400 11.000 C 391.787 11.195,391.587 11.145,391.774 10.843 C 391.924 10.599,391.846 10.400,391.600 10.400 C 391.354 10.400,391.269 10.211,391.412 9.981 C 391.589 9.694,391.850 9.709,392.236 10.030 C 393.246 10.869,392.830 10.060,391.722 9.032 C 390.847 8.221,390.530 8.124,390.047 8.516 C 389.553 8.917,389.495 8.880,389.713 8.300 C 389.857 7.915,389.801 7.600,389.587 7.600 C 389.374 7.600,389.200 7.774,389.200 7.987 M391.107 9.905 C 390.794 10.287,390.560 10.298,390.142 9.952 C 389.734 9.613,389.705 9.356,390.030 8.964 C 390.375 8.548,390.584 8.538,390.995 8.917 C 391.363 9.256,391.397 9.551,391.107 9.905 M10.399 10.202 C 9.883 10.751,9.323 11.200,9.156 11.200 C 8.988 11.200,9.335 10.699,9.926 10.088 C 10.516 9.476,11.076 9.026,11.168 9.089 C 11.261 9.152,10.914 9.652,10.399 10.202 M392.947 13.100 C 393.136 13.415,393.016 13.600,392.624 13.600 C 392.281 13.600,392.000 13.883,392.000 14.229 C 392.000 14.800,392.057 14.800,392.629 14.229 C 393.421 13.436,393.753 13.425,393.455 14.200 C 393.329 14.530,393.399 14.800,393.613 14.800 C 394.241 14.800,394.056 13.743,393.323 13.149 C 392.863 12.776,392.743 12.760,392.947 13.100 M6.543 17.000 C 6.873 17.330,7.216 17.600,7.305 17.600 C 7.394 17.600,7.467 17.330,7.467 17.000 C 7.467 16.670,7.124 16.400,6.705 16.400 C 6.028 16.400,6.010 16.467,6.543 17.000 M393.443 16.967 C 393.576 17.315,393.861 17.600,394.076 17.600 C 394.602 17.600,394.273 16.691,393.675 16.492 C 393.382 16.394,393.293 16.577,393.443 16.967 M394.200 18.400 C 394.044 18.653,395.063 18.800,396.976 18.800 C 398.725 18.800,400.000 18.631,400.000 18.400 C 400.000 18.172,398.808 18.000,397.224 18.000 C 395.697 18.000,394.336 18.180,394.200 18.400 M395.700 19.491 C 396.525 19.578,397.875 19.578,398.700 19.491 C 399.525 19.405,398.850 19.334,397.200 19.334 C 395.550 19.334,394.875 19.405,395.700 19.491 M395.700 20.291 C 396.525 20.378,397.875 20.378,398.700 20.291 C 399.525 20.205,398.850 20.134,397.200 20.134 C 395.550 20.134,394.875 20.205,395.700 20.291 M394.400 23.000 C 394.400 23.476,394.978 23.600,397.200 23.600 C 399.422 23.600,400.000 23.476,400.000 23.000 C 400.000 22.524,399.422 22.400,397.200 22.400 C 394.978 22.400,394.400 22.524,394.400 23.000 M395.700 24.291 C 396.525 24.378,397.875 24.378,398.700 24.291 C 399.525 24.205,398.850 24.134,397.200 24.134 C 395.550 24.134,394.875 24.205,395.700 24.291 M395.700 25.091 C 396.525 25.178,397.875 25.178,398.700 25.091 C 399.525 25.005,398.850 24.934,397.200 24.934 C 395.550 24.934,394.875 25.005,395.700 25.091 M1.300 27.891 C 2.125 27.978,3.475 27.978,4.300 27.891 C 5.125 27.805,4.450 27.734,2.800 27.734 C 1.150 27.734,0.475 27.805,1.300 27.891 M274.800 62.400 C 274.800 62.620,274.350 62.800,273.800 62.800 C 273.250 62.800,272.800 62.960,272.800 63.157 C 272.800 63.353,272.350 63.626,271.800 63.764 C 271.250 63.902,270.800 64.184,270.800 64.389 C 270.800 64.595,270.338 65.226,269.774 65.790 C 269.209 66.355,268.645 67.443,268.521 68.208 C 268.397 68.974,268.139 69.600,267.948 69.600 C 267.751 69.600,267.600 126.594,267.600 200.400 C 267.600 274.206,267.751 331.200,267.948 331.200 C 268.139 331.200,268.397 331.825,268.521 332.588 C 268.740 333.939,271.437 337.200,272.335 337.200 C 272.554 337.200,272.808 337.425,272.900 337.700 C 273.144 338.433,332.856 338.433,333.100 337.700 C 333.192 337.425,333.445 337.200,333.662 337.200 C 334.424 337.200,337.200 334.414,337.200 333.650 C 337.200 333.439,337.425 333.192,337.700 333.100 C 338.099 332.967,338.200 306.071,338.200 200.400 C 338.200 94.729,338.099 67.833,337.700 67.700 C 337.425 67.608,337.200 67.361,337.200 67.150 C 337.200 66.363,334.540 63.600,333.782 63.600 C 333.462 63.600,333.200 63.420,333.200 63.200 C 333.200 62.980,332.750 62.800,332.200 62.800 C 331.650 62.800,331.200 62.620,331.200 62.400 C 331.200 62.137,321.533 62.000,303.000 62.000 C 284.467 62.000,274.800 62.137,274.800 62.400 M330.300 67.100 C 330.392 67.375,330.645 67.600,330.862 67.600 C 331.079 67.600,331.511 67.854,331.821 68.164 C 332.132 68.475,332.578 68.793,332.812 68.871 C 333.047 68.949,333.345 70.045,333.475 71.306 C 333.605 72.568,333.867 73.600,334.056 73.600 C 334.247 73.600,334.400 129.972,334.400 200.600 C 334.400 272.343,334.249 327.600,334.052 327.600 C 333.861 327.600,333.615 328.394,333.505 329.365 C 333.237 331.743,331.743 333.237,329.365 333.505 C 328.394 333.615,327.600 333.861,327.600 334.052 C 327.600 334.246,316.682 334.400,303.000 334.400 C 289.318 334.400,278.400 334.246,278.400 334.052 C 278.400 333.861,277.606 333.615,276.635 333.505 C 274.257 333.237,272.763 331.743,272.495 329.365 C 272.385 328.394,272.139 327.600,271.948 327.600 C 271.751 327.600,271.600 272.343,271.600 200.600 C 271.600 129.972,271.753 73.600,271.944 73.600 C 272.133 73.600,272.395 72.568,272.525 71.306 C 272.655 70.045,272.953 68.949,273.188 68.871 C 273.422 68.793,273.868 68.475,274.179 68.164 C 274.489 67.854,274.936 67.600,275.171 67.600 C 275.407 67.600,275.600 67.430,275.600 67.222 C 275.600 66.316,329.999 66.194,330.300 67.100 M176.700 116.679 C 176.095 116.775,175.600 117.021,175.600 117.227 C 175.600 117.432,175.407 117.600,175.171 117.600 C 174.773 117.600,174.442 117.838,173.114 119.081 C 172.202 119.934,171.600 120.757,171.600 121.150 C 171.600 121.361,171.375 121.608,171.100 121.700 C 170.364 121.945,170.364 332.855,171.100 333.100 C 171.375 333.192,171.600 333.445,171.600 333.662 C 171.600 334.424,174.386 337.200,175.150 337.200 C 175.361 337.200,175.608 337.425,175.700 337.700 C 175.944 338.433,235.656 338.433,235.900 337.700 C 235.992 337.425,236.246 337.200,236.465 337.200 C 237.363 337.200,240.060 333.939,240.279 332.588 C 240.403 331.825,240.661 331.200,240.852 331.200 C 241.048 331.200,241.200 285.916,241.200 227.400 C 241.200 168.884,241.048 123.600,240.852 123.600 C 240.661 123.600,240.403 122.975,240.279 122.212 C 240.060 120.861,237.363 117.600,236.465 117.600 C 236.246 117.600,235.992 117.375,235.900 117.100 C 235.738 116.614,179.635 116.215,176.700 116.679 M233.100 121.100 C 233.192 121.375,233.445 121.600,233.662 121.600 C 233.879 121.600,234.311 121.854,234.621 122.164 C 234.932 122.475,235.378 122.793,235.612 122.871 C 235.847 122.949,236.145 124.045,236.275 125.306 C 236.405 126.568,236.667 127.600,236.856 127.600 C 237.047 127.600,237.200 172.044,237.200 227.600 C 237.200 284.034,237.048 327.600,236.852 327.600 C 236.661 327.600,236.415 328.394,236.305 329.365 C 236.037 331.743,234.543 333.237,232.165 333.505 C 231.194 333.615,230.400 333.861,230.400 334.052 C 230.400 334.246,219.482 334.400,205.800 334.400 C 192.118 334.400,181.200 334.246,181.200 334.052 C 181.200 333.861,180.406 333.615,179.435 333.505 C 177.744 333.315,175.600 331.831,175.600 330.852 C 175.600 330.640,175.375 330.392,175.100 330.300 C 174.702 330.167,174.600 309.231,174.600 227.400 C 174.600 145.569,174.702 124.633,175.100 124.500 C 175.375 124.408,175.600 124.000,175.600 123.594 C 175.600 123.187,175.960 122.740,176.400 122.600 C 176.840 122.460,177.200 122.178,177.200 121.973 C 177.200 121.768,177.470 121.600,177.800 121.600 C 178.130 121.600,178.400 121.430,178.400 121.223 C 178.400 120.310,232.796 120.187,233.100 121.100 M79.500 192.280 C 78.895 192.375,78.400 192.621,78.400 192.827 C 78.400 193.032,78.212 193.200,77.983 193.200 C 77.167 193.200,74.400 195.840,74.400 196.618 C 74.400 196.938,74.220 197.200,74.000 197.200 C 73.780 197.200,73.600 197.650,73.600 198.200 C 73.600 198.750,73.420 199.200,73.200 199.200 C 72.935 199.200,72.800 221.467,72.800 265.200 C 72.800 308.933,72.935 331.200,73.200 331.200 C 73.420 331.200,73.600 331.650,73.600 332.200 C 73.600 332.750,73.780 333.200,74.000 333.200 C 74.220 333.200,74.400 333.462,74.400 333.782 C 74.400 334.540,77.163 337.200,77.950 337.200 C 78.161 337.200,78.408 337.425,78.500 337.700 C 78.631 338.094,84.969 338.200,108.400 338.200 C 131.831 338.200,138.169 338.094,138.300 337.700 C 138.392 337.425,138.725 337.200,139.040 337.200 C 139.772 337.200,142.400 334.514,142.400 333.766 C 142.400 333.455,142.580 333.200,142.800 333.200 C 143.020 333.200,143.200 332.750,143.200 332.200 C 143.200 331.650,143.380 331.200,143.600 331.200 C 143.865 331.200,144.000 308.933,144.000 265.200 C 144.000 221.467,143.865 199.200,143.600 199.200 C 143.380 199.200,143.200 198.750,143.200 198.200 C 143.200 197.650,143.020 197.200,142.800 197.200 C 142.580 197.200,142.400 196.945,142.400 196.634 C 142.400 195.886,139.772 193.200,139.040 193.200 C 138.725 193.200,138.392 192.975,138.300 192.700 C 138.138 192.214,82.449 191.817,79.500 192.280 M132.400 196.350 C 132.400 196.543,133.388 196.783,134.594 196.883 C 136.812 197.067,138.400 198.143,138.400 199.461 C 138.400 199.758,138.580 200.000,138.800 200.000 C 139.020 200.000,139.200 200.720,139.200 201.600 C 139.200 202.480,139.380 203.200,139.600 203.200 C 139.865 203.200,140.000 224.200,140.000 265.400 C 140.000 306.600,139.865 327.600,139.600 327.600 C 139.380 327.600,139.200 328.230,139.200 329.000 C 139.200 329.770,139.020 330.400,138.800 330.400 C 138.580 330.400,138.400 330.642,138.400 330.939 C 138.400 332.109,136.831 333.295,135.012 333.500 C 134.015 333.612,133.200 333.861,133.200 334.052 C 133.200 334.246,122.195 334.400,108.400 334.400 C 94.578 334.400,83.600 334.246,83.600 334.052 C 83.600 333.860,82.711 333.585,81.624 333.441 C 80.145 333.245,79.584 332.980,79.397 332.389 C 79.259 331.955,78.978 331.600,78.773 331.600 C 78.568 331.600,78.400 331.345,78.400 331.033 C 78.400 330.722,78.175 330.392,77.900 330.300 C 77.165 330.055,77.165 200.345,77.900 200.100 C 78.175 200.008,78.400 199.755,78.400 199.538 C 78.400 199.321,78.654 198.889,78.964 198.579 C 79.275 198.268,79.593 197.822,79.671 197.588 C 79.749 197.353,80.845 197.055,82.106 196.925 C 83.368 196.795,84.400 196.533,84.400 196.344 C 84.400 196.155,95.200 196.000,108.400 196.000 C 121.872 196.000,132.400 196.154,132.400 196.350 M395.700 372.291 C 396.525 372.378,397.875 372.378,398.700 372.291 C 399.525 372.205,398.850 372.134,397.200 372.134 C 395.550 372.134,394.875 372.205,395.700 372.291 M1.300 375.091 C 2.125 375.178,3.475 375.178,4.300 375.091 C 5.125 375.005,4.450 374.934,2.800 374.934 C 1.150 374.934,0.475 375.005,1.300 375.091 M1.300 375.891 C 2.125 375.978,3.475 375.978,4.300 375.891 C 5.125 375.805,4.450 375.734,2.800 375.734 C 1.150 375.734,0.475 375.805,1.300 375.891 M2.800 376.790 L 5.800 377.056 2.900 377.128 C -1.290 377.232,-1.241 378.282,2.963 378.468 C 5.916 378.600,5.926 378.596,5.820 377.600 C 5.717 376.637,5.604 376.599,2.757 376.562 L -0.200 376.525 2.800 376.790 M1.300 379.891 C 2.125 379.978,3.475 379.978,4.300 379.891 C 5.125 379.805,4.450 379.734,2.800 379.734 C 1.150 379.734,0.475 379.805,1.300 379.891 M2.800 380.800 L 5.800 381.056 2.900 381.128 C -1.389 381.235,-1.328 382.400,2.967 382.400 C 4.966 382.400,5.999 382.563,6.135 382.900 C 6.281 383.261,6.346 383.267,6.368 382.924 C 6.386 382.662,6.237 382.346,6.038 382.223 C 5.838 382.100,5.769 381.639,5.884 381.200 C 6.081 380.446,5.913 380.404,2.947 380.472 L -0.200 380.544 2.800 380.800 M6.400 384.000 C 6.400 384.220,6.760 384.400,7.200 384.400 C 7.640 384.400,8.000 384.220,8.000 384.000 C 8.000 383.780,7.640 383.600,7.200 383.600 C 6.760 383.600,6.400 383.780,6.400 384.000 M392.400 384.000 C 392.400 384.220,392.760 384.400,393.200 384.400 C 393.640 384.400,394.000 384.220,394.000 384.000 C 394.000 383.780,393.640 383.600,393.200 383.600 C 392.760 383.600,392.400 383.780,392.400 384.000 M393.600 386.357 C 393.600 386.627,393.392 386.719,393.138 386.562 C 392.832 386.373,392.786 386.454,393.001 386.801 C 393.247 387.199,393.092 387.267,392.363 387.083 C 391.448 386.852,391.439 386.869,392.167 387.413 C 392.938 387.989,394.502 386.769,393.841 386.107 C 393.708 385.975,393.600 386.087,393.600 386.357 M7.050 386.720 C 6.886 386.984,6.954 387.200,7.200 387.200 C 7.446 387.200,7.528 387.393,7.382 387.630 C 7.236 387.866,7.495 387.822,7.958 387.533 C 8.421 387.244,8.800 386.849,8.800 386.655 C 8.800 386.461,8.548 386.512,8.239 386.768 C 7.809 387.124,7.639 387.117,7.512 386.736 C 7.384 386.353,7.278 386.350,7.050 386.720 M8.200 388.000 C 8.064 388.220,8.064 388.580,8.200 388.800 C 8.336 389.020,8.257 389.200,8.024 389.200 C 7.791 389.200,7.600 389.374,7.600 389.587 C 7.600 389.801,7.915 389.857,8.300 389.713 C 8.880 389.495,8.917 389.553,8.516 390.047 C 8.124 390.530,8.221 390.847,9.032 391.722 C 10.060 392.830,10.869 393.246,10.030 392.236 C 9.709 391.850,9.694 391.589,9.981 391.412 C 10.211 391.269,10.400 391.354,10.400 391.600 C 10.400 391.846,10.599 391.924,10.843 391.774 C 11.145 391.587,11.195 391.787,11.000 392.400 C 10.815 392.983,10.861 393.210,11.130 393.043 C 11.359 392.902,11.529 392.204,11.508 391.493 C 11.487 390.782,11.394 390.425,11.302 390.700 C 11.209 390.975,10.938 391.200,10.700 391.200 C 10.462 391.200,10.387 391.080,10.534 390.932 C 10.894 390.573,9.587 389.161,9.147 389.433 C 8.805 389.644,8.644 389.074,8.770 388.100 C 8.848 387.499,8.543 387.446,8.200 388.000 M391.619 389.186 C 391.300 389.385,390.919 389.473,390.773 389.383 C 390.626 389.293,390.185 389.575,389.791 390.009 C 389.398 390.444,389.200 390.800,389.352 390.800 C 389.504 390.800,389.435 391.160,389.200 391.600 C 388.727 392.483,389.694 392.819,390.226 391.957 C 390.423 391.639,390.582 391.647,390.792 391.987 C 391.003 392.329,391.280 392.263,391.795 391.747 C 392.272 391.271,392.352 390.984,392.037 390.879 C 391.685 390.762,391.681 390.585,392.021 390.175 C 392.643 389.426,392.358 388.727,391.619 389.186 M9.970 391.036 C 9.625 391.452,9.416 391.462,9.005 391.083 C 8.253 390.391,9.073 389.397,9.858 390.048 C 10.266 390.387,10.295 390.644,9.970 391.036 M391.500 390.617 C 391.500 391.268,391.262 391.500,390.593 391.500 C 390.094 391.500,389.716 391.298,389.754 391.050 C 389.978 389.582,391.500 389.204,391.500 390.617 M387.083 392.363 C 387.267 393.092,387.199 393.247,386.801 393.001 C 386.454 392.786,386.373 392.832,386.562 393.138 C 386.719 393.392,386.627 393.600,386.357 393.600 C 386.087 393.600,385.975 393.708,386.107 393.841 C 386.769 394.502,387.989 392.938,387.413 392.167 C 386.869 391.439,386.852 391.448,387.083 392.363 M13.600 392.624 C 13.600 393.016,13.415 393.136,13.100 392.947 C 12.760 392.743,12.776 392.863,13.149 393.323 C 13.743 394.056,14.800 394.241,14.800 393.613 C 14.800 393.399,14.530 393.329,14.200 393.455 C 13.425 393.753,13.436 393.421,14.229 392.629 C 14.800 392.057,14.800 392.000,14.229 392.000 C 13.883 392.000,13.600 392.281,13.600 392.624 M383.600 392.824 C 383.600 393.057,383.416 393.133,383.190 392.994 C 382.965 392.855,382.830 392.972,382.890 393.256 C 382.951 393.539,382.595 393.955,382.100 394.180 C 380.965 394.696,380.692 400.000,381.800 400.000 C 382.275 400.000,382.400 399.431,382.400 397.280 C 382.400 394.529,382.843 393.488,383.849 393.874 C 384.210 394.013,384.400 393.794,384.400 393.243 C 384.400 392.779,384.220 392.400,384.000 392.400 C 383.780 392.400,383.600 392.591,383.600 392.824 M27.734 397.200 C 27.734 398.850,27.805 399.525,27.891 398.700 C 27.978 397.875,27.978 396.525,27.891 395.700 C 27.805 394.875,27.734 395.550,27.734 397.200 M375.734 397.200 C 375.734 398.850,375.805 399.525,375.891 398.700 C 375.978 397.875,375.978 396.525,375.891 395.700 C 375.805 394.875,375.734 395.550,375.734 397.200 M376.534 397.200 C 376.534 398.850,376.605 399.525,376.691 398.700 C 376.778 397.875,376.778 396.525,376.691 395.700 C 376.605 394.875,376.534 395.550,376.534 397.200 M377.200 397.200 C 377.200 399.422,377.324 400.000,377.800 400.000 C 378.276 400.000,378.400 399.422,378.400 397.200 C 378.400 394.978,378.276 394.400,377.800 394.400 C 377.324 394.400,377.200 394.978,377.200 397.200 M379.734 397.200 C 379.734 398.850,379.805 399.525,379.891 398.700 C 379.978 397.875,379.978 396.525,379.891 395.700 C 379.805 394.875,379.734 395.550,379.734 397.200 M380.534 397.200 C 380.534 398.850,380.605 399.525,380.691 398.700 C 380.778 397.875,380.778 396.525,380.691 395.700 C 380.605 394.875,380.534 395.550,380.534 397.200 " stroke="none" fill="#c8e8cc" fill-rule="evenodd"></path><path id="path3" d="M17.925 3.100 C 17.849 4.805,17.797 6.238,17.811 6.284 C 17.824 6.330,18.232 6.264,18.717 6.137 C 19.539 5.923,19.595 5.695,19.528 2.853 L 19.456 -0.200 19.200 2.800 L 18.944 5.800 18.872 2.900 C 18.776 -0.958,18.100 -0.815,17.925 3.100 M20.134 2.800 C 20.134 4.450,20.205 5.125,20.291 4.300 C 20.378 3.475,20.378 2.125,20.291 1.300 C 20.205 0.475,20.134 1.150,20.134 2.800 M22.482 2.868 C 22.652 7.005,23.600 7.145,23.600 3.033 C 23.600 0.565,23.485 0.000,22.982 0.000 C 22.472 0.000,22.385 0.498,22.482 2.868 M24.134 2.800 C 24.134 4.450,24.205 5.125,24.291 4.300 C 24.378 3.475,24.378 2.125,24.291 1.300 C 24.205 0.475,24.134 1.150,24.134 2.800 M24.934 2.800 C 24.934 4.450,25.005 5.125,25.091 4.300 C 25.178 3.475,25.178 2.125,25.091 1.300 C 25.005 0.475,24.934 1.150,24.934 2.800 M372.134 2.800 C 372.134 4.450,372.205 5.125,372.291 4.300 C 372.378 3.475,372.378 2.125,372.291 1.300 C 372.205 0.475,372.134 1.150,372.134 2.800 M383.400 6.800 C 383.108 7.272,383.487 8.000,384.024 8.000 C 384.231 8.000,384.400 7.640,384.400 7.200 C 384.400 6.356,383.818 6.124,383.400 6.800 M386.650 7.120 C 386.483 7.390,386.559 7.600,386.825 7.600 C 387.178 7.600,387.171 7.753,386.800 8.200 C 386.526 8.530,386.461 8.800,386.655 8.800 C 386.849 8.800,387.244 8.421,387.533 7.958 C 387.822 7.495,387.881 7.226,387.664 7.361 C 387.446 7.495,387.196 7.388,387.107 7.122 C 386.982 6.747,386.880 6.747,386.650 7.120 M12.806 8.149 C 12.801 8.759,12.692 8.808,12.217 8.414 C 11.636 7.932,9.700 8.766,10.212 9.279 C 10.326 9.393,10.145 9.714,9.810 9.992 C 9.474 10.270,9.200 10.346,9.200 10.160 C 9.200 9.974,8.914 10.230,8.565 10.728 C 8.062 11.446,8.031 11.755,8.414 12.217 C 8.808 12.692,8.759 12.801,8.149 12.806 C 7.526 12.811,7.500 12.876,7.994 13.188 C 8.414 13.454,8.697 13.370,8.958 12.903 C 9.204 12.463,9.173 12.191,8.864 12.088 C 8.609 12.003,8.400 11.758,8.400 11.543 C 8.400 11.328,8.595 11.273,8.833 11.420 C 9.405 11.774,11.677 9.577,11.423 8.915 C 11.314 8.632,11.384 8.400,11.579 8.400 C 11.774 8.400,12.003 8.609,12.088 8.864 C 12.191 9.173,12.463 9.204,12.903 8.958 C 13.370 8.697,13.454 8.414,13.188 7.994 C 12.876 7.500,12.811 7.526,12.806 8.149 M389.200 7.987 C 389.200 8.201,388.948 8.278,388.640 8.160 C 388.333 8.042,387.955 8.150,387.800 8.399 C 387.639 8.660,387.750 8.822,388.060 8.779 C 389.063 8.642,389.648 8.798,389.433 9.147 C 389.161 9.587,390.573 10.894,390.932 10.534 C 391.080 10.387,391.200 10.462,391.200 10.700 C 391.200 10.938,390.975 11.209,390.700 11.302 C 390.425 11.394,390.782 11.487,391.493 11.508 C 392.204 11.529,392.902 11.359,393.043 11.130 C 393.210 10.861,392.983 10.815,392.400 11.000 C 391.787 11.195,391.587 11.145,391.774 10.843 C 391.924 10.599,391.846 10.400,391.600 10.400 C 391.354 10.400,391.269 10.211,391.412 9.981 C 391.589 9.694,391.850 9.709,392.236 10.030 C 393.246 10.869,392.830 10.060,391.722 9.032 C 390.847 8.221,390.530 8.124,390.047 8.516 C 389.553 8.917,389.495 8.880,389.713 8.300 C 389.857 7.915,389.801 7.600,389.587 7.600 C 389.374 7.600,389.200 7.774,389.200 7.987 M391.107 9.905 C 390.794 10.287,390.560 10.298,390.142 9.952 C 389.734 9.613,389.705 9.356,390.030 8.964 C 390.375 8.548,390.584 8.538,390.995 8.917 C 391.363 9.256,391.397 9.551,391.107 9.905 M10.399 10.202 C 9.883 10.751,9.323 11.200,9.156 11.200 C 8.988 11.200,9.335 10.699,9.926 10.088 C 10.516 9.476,11.076 9.026,11.168 9.089 C 11.261 9.152,10.914 9.652,10.399 10.202 M392.947 13.100 C 393.136 13.415,393.016 13.600,392.624 13.600 C 392.281 13.600,392.000 13.883,392.000 14.229 C 392.000 14.800,392.057 14.800,392.629 14.229 C 393.421 13.436,393.753 13.425,393.455 14.200 C 393.329 14.530,393.399 14.800,393.613 14.800 C 394.241 14.800,394.056 13.743,393.323 13.149 C 392.863 12.776,392.743 12.760,392.947 13.100 M6.543 17.000 C 6.873 17.330,7.216 17.600,7.305 17.600 C 7.394 17.600,7.467 17.330,7.467 17.000 C 7.467 16.670,7.124 16.400,6.705 16.400 C 6.028 16.400,6.010 16.467,6.543 17.000 M393.443 16.967 C 393.576 17.315,393.861 17.600,394.076 17.600 C 394.602 17.600,394.273 16.691,393.675 16.492 C 393.382 16.394,393.293 16.577,393.443 16.967 M394.200 18.400 C 394.044 18.653,395.063 18.800,396.976 18.800 C 398.725 18.800,400.000 18.631,400.000 18.400 C 400.000 18.172,398.808 18.000,397.224 18.000 C 395.697 18.000,394.336 18.180,394.200 18.400 M395.700 19.491 C 396.525 19.578,397.875 19.578,398.700 19.491 C 399.525 19.405,398.850 19.334,397.200 19.334 C 395.550 19.334,394.875 19.405,395.700 19.491 M395.700 20.291 C 396.525 20.378,397.875 20.378,398.700 20.291 C 399.525 20.205,398.850 20.134,397.200 20.134 C 395.550 20.134,394.875 20.205,395.700 20.291 M394.400 23.000 C 394.400 23.476,394.978 23.600,397.200 23.600 C 399.422 23.600,400.000 23.476,400.000 23.000 C 400.000 22.524,399.422 22.400,397.200 22.400 C 394.978 22.400,394.400 22.524,394.400 23.000 M395.700 24.291 C 396.525 24.378,397.875 24.378,398.700 24.291 C 399.525 24.205,398.850 24.134,397.200 24.134 C 395.550 24.134,394.875 24.205,395.700 24.291 M395.700 25.091 C 396.525 25.178,397.875 25.178,398.700 25.091 C 399.525 25.005,398.850 24.934,397.200 24.934 C 395.550 24.934,394.875 25.005,395.700 25.091 M1.300 27.891 C 2.125 27.978,3.475 27.978,4.300 27.891 C 5.125 27.805,4.450 27.734,2.800 27.734 C 1.150 27.734,0.475 27.805,1.300 27.891 M274.800 62.400 C 274.800 62.620,274.350 62.800,273.800 62.800 C 273.250 62.800,272.800 62.960,272.800 63.157 C 272.800 63.353,272.350 63.626,271.800 63.764 C 271.250 63.902,270.800 64.184,270.800 64.389 C 270.800 64.595,270.338 65.226,269.774 65.790 C 269.209 66.355,268.645 67.443,268.521 68.208 C 268.397 68.974,268.139 69.600,267.948 69.600 C 267.751 69.600,267.600 126.594,267.600 200.400 C 267.600 274.206,267.751 331.200,267.948 331.200 C 268.139 331.200,268.397 331.825,268.521 332.588 C 268.740 333.939,271.437 337.200,272.335 337.200 C 272.554 337.200,272.808 337.425,272.900 337.700 C 273.144 338.433,332.856 338.433,333.100 337.700 C 333.192 337.425,333.445 337.200,333.662 337.200 C 334.424 337.200,337.200 334.414,337.200 333.650 C 337.200 333.439,337.425 333.192,337.700 333.100 C 338.099 332.967,338.200 306.071,338.200 200.400 C 338.200 94.729,338.099 67.833,337.700 67.700 C 337.425 67.608,337.200 67.361,337.200 67.150 C 337.200 66.363,334.540 63.600,333.782 63.600 C 333.462 63.600,333.200 63.420,333.200 63.200 C 333.200 62.980,332.750 62.800,332.200 62.800 C 331.650 62.800,331.200 62.620,331.200 62.400 C 331.200 62.137,321.533 62.000,303.000 62.000 C 284.467 62.000,274.800 62.137,274.800 62.400 M330.300 67.100 C 330.392 67.375,330.645 67.600,330.862 67.600 C 331.079 67.600,331.511 67.854,331.821 68.164 C 332.132 68.475,332.578 68.793,332.812 68.871 C 333.047 68.949,333.345 70.045,333.475 71.306 C 333.605 72.568,333.867 73.600,334.056 73.600 C 334.247 73.600,334.400 129.972,334.400 200.600 C 334.400 272.343,334.249 327.600,334.052 327.600 C 333.861 327.600,333.615 328.394,333.505 329.365 C 333.237 331.743,331.743 333.237,329.365 333.505 C 328.394 333.615,327.600 333.861,327.600 334.052 C 327.600 334.246,316.682 334.400,303.000 334.400 C 289.318 334.400,278.400 334.246,278.400 334.052 C 278.400 333.861,277.606 333.615,276.635 333.505 C 274.257 333.237,272.763 331.743,272.495 329.365 C 272.385 328.394,272.139 327.600,271.948 327.600 C 271.751 327.600,271.600 272.343,271.600 200.600 C 271.600 129.972,271.753 73.600,271.944 73.600 C 272.133 73.600,272.395 72.568,272.525 71.306 C 272.655 70.045,272.953 68.949,273.188 68.871 C 273.422 68.793,273.868 68.475,274.179 68.164 C 274.489 67.854,274.936 67.600,275.171 67.600 C 275.407 67.600,275.600 67.430,275.600 67.222 C 275.600 66.316,329.999 66.194,330.300 67.100 M176.700 116.679 C 176.095 116.775,175.600 117.021,175.600 117.227 C 175.600 117.432,175.407 117.600,175.171 117.600 C 174.773 117.600,174.442 117.838,173.114 119.081 C 172.202 119.934,171.600 120.757,171.600 121.150 C 171.600 121.361,171.375 121.608,171.100 121.700 C 170.364 121.945,170.364 332.855,171.100 333.100 C 171.375 333.192,171.600 333.445,171.600 333.662 C 171.600 334.424,174.386 337.200,175.150 337.200 C 175.361 337.200,175.608 337.425,175.700 337.700 C 175.944 338.433,235.656 338.433,235.900 337.700 C 235.992 337.425,236.246 337.200,236.465 337.200 C 237.363 337.200,240.060 333.939,240.279 332.588 C 240.403 331.825,240.661 331.200,240.852 331.200 C 241.048 331.200,241.200 285.916,241.200 227.400 C 241.200 168.884,241.048 123.600,240.852 123.600 C 240.661 123.600,240.403 122.975,240.279 122.212 C 240.060 120.861,237.363 117.600,236.465 117.600 C 236.246 117.600,235.992 117.375,235.900 117.100 C 235.738 116.614,179.635 116.215,176.700 116.679 M233.100 121.100 C 233.192 121.375,233.445 121.600,233.662 121.600 C 233.879 121.600,234.311 121.854,234.621 122.164 C 234.932 122.475,235.378 122.793,235.612 122.871 C 235.847 122.949,236.145 124.045,236.275 125.306 C 236.405 126.568,236.667 127.600,236.856 127.600 C 237.047 127.600,237.200 172.044,237.200 227.600 C 237.200 284.034,237.048 327.600,236.852 327.600 C 236.661 327.600,236.415 328.394,236.305 329.365 C 236.037 331.743,234.543 333.237,232.165 333.505 C 231.194 333.615,230.400 333.861,230.400 334.052 C 230.400 334.246,219.482 334.400,205.800 334.400 C 192.118 334.400,181.200 334.246,181.200 334.052 C 181.200 333.861,180.406 333.615,179.435 333.505 C 177.744 333.315,175.600 331.831,175.600 330.852 C 175.600 330.640,175.375 330.392,175.100 330.300 C 174.702 330.167,174.600 309.231,174.600 227.400 C 174.600 145.569,174.702 124.633,175.100 124.500 C 175.375 124.408,175.600 124.000,175.600 123.594 C 175.600 123.187,175.960 122.740,176.400 122.600 C 176.840 122.460,177.200 122.178,177.200 121.973 C 177.200 121.768,177.470 121.600,177.800 121.600 C 178.130 121.600,178.400 121.430,178.400 121.223 C 178.400 120.310,232.796 120.187,233.100 121.100 M79.500 192.280 C 78.895 192.375,78.400 192.621,78.400 192.827 C 78.400 193.032,78.212 193.200,77.983 193.200 C 77.167 193.200,74.400 195.840,74.400 196.618 C 74.400 196.938,74.220 197.200,74.000 197.200 C 73.780 197.200,73.600 197.650,73.600 198.200 C 73.600 198.750,73.420 199.200,73.200 199.200 C 72.935 199.200,72.800 221.467,72.800 265.200 C 72.800 308.933,72.935 331.200,73.200 331.200 C 73.420 331.200,73.600 331.650,73.600 332.200 C 73.600 332.750,73.780 333.200,74.000 333.200 C 74.220 333.200,74.400 333.462,74.400 333.782 C 74.400 334.540,77.163 337.200,77.950 337.200 C 78.161 337.200,78.408 337.425,78.500 337.700 C 78.631 338.094,84.969 338.200,108.400 338.200 C 131.831 338.200,138.169 338.094,138.300 337.700 C 138.392 337.425,138.725 337.200,139.040 337.200 C 139.772 337.200,142.400 334.514,142.400 333.766 C 142.400 333.455,142.580 333.200,142.800 333.200 C 143.020 333.200,143.200 332.750,143.200 332.200 C 143.200 331.650,143.380 331.200,143.600 331.200 C 143.865 331.200,144.000 308.933,144.000 265.200 C 144.000 221.467,143.865 199.200,143.600 199.200 C 143.380 199.200,143.200 198.750,143.200 198.200 C 143.200 197.650,143.020 197.200,142.800 197.200 C 142.580 197.200,142.400 196.945,142.400 196.634 C 142.400 195.886,139.772 193.200,139.040 193.200 C 138.725 193.200,138.392 192.975,138.300 192.700 C 138.138 192.214,82.449 191.817,79.500 192.280 M132.400 196.350 C 132.400 196.543,133.388 196.783,134.594 196.883 C 136.812 197.067,138.400 198.143,138.400 199.461 C 138.400 199.758,138.580 200.000,138.800 200.000 C 139.020 200.000,139.200 200.720,139.200 201.600 C 139.200 202.480,139.380 203.200,139.600 203.200 C 139.865 203.200,140.000 224.200,140.000 265.400 C 140.000 306.600,139.865 327.600,139.600 327.600 C 139.380 327.600,139.200 328.230,139.200 329.000 C 139.200 329.770,139.020 330.400,138.800 330.400 C 138.580 330.400,138.400 330.642,138.400 330.939 C 138.400 332.109,136.831 333.295,135.012 333.500 C 134.015 333.612,133.200 333.861,133.200 334.052 C 133.200 334.246,122.195 334.400,108.400 334.400 C 94.578 334.400,83.600 334.246,83.600 334.052 C 83.600 333.860,82.711 333.585,81.624 333.441 C 80.145 333.245,79.584 332.980,79.397 332.389 C 79.259 331.955,78.978 331.600,78.773 331.600 C 78.568 331.600,78.400 331.345,78.400 331.033 C 78.400 330.722,78.175 330.392,77.900 330.300 C 77.165 330.055,77.165 200.345,77.900 200.100 C 78.175 200.008,78.400 199.755,78.400 199.538 C 78.400 199.321,78.654 198.889,78.964 198.579 C 79.275 198.268,79.593 197.822,79.671 197.588 C 79.749 197.353,80.845 197.055,82.106 196.925 C 83.368 196.795,84.400 196.533,84.400 196.344 C 84.400 196.155,95.200 196.000,108.400 196.000 C 121.872 196.000,132.400 196.154,132.400 196.350 M395.700 372.291 C 396.525 372.378,397.875 372.378,398.700 372.291 C 399.525 372.205,398.850 372.134,397.200 372.134 C 395.550 372.134,394.875 372.205,395.700 372.291 M1.300 375.091 C 2.125 375.178,3.475 375.178,4.300 375.091 C 5.125 375.005,4.450 374.934,2.800 374.934 C 1.150 374.934,0.475 375.005,1.300 375.091 M1.300 375.891 C 2.125 375.978,3.475 375.978,4.300 375.891 C 5.125 375.805,4.450 375.734,2.800 375.734 C 1.150 375.734,0.475 375.805,1.300 375.891 M2.800 376.790 L 5.800 377.056 2.900 377.128 C -1.290 377.232,-1.241 378.282,2.963 378.468 C 5.916 378.600,5.926 378.596,5.820 377.600 C 5.717 376.637,5.604 376.599,2.757 376.562 L -0.200 376.525 2.800 376.790 M1.300 379.891 C 2.125 379.978,3.475 379.978,4.300 379.891 C 5.125 379.805,4.450 379.734,2.800 379.734 C 1.150 379.734,0.475 379.805,1.300 379.891 M2.800 380.800 L 5.800 381.056 2.900 381.128 C -1.389 381.235,-1.328 382.400,2.967 382.400 C 4.966 382.400,5.999 382.563,6.135 382.900 C 6.281 383.261,6.346 383.267,6.368 382.924 C 6.386 382.662,6.237 382.346,6.038 382.223 C 5.838 382.100,5.769 381.639,5.884 381.200 C 6.081 380.446,5.913 380.404,2.947 380.472 L -0.200 380.544 2.800 380.800 M6.400 384.000 C 6.400 384.220,6.760 384.400,7.200 384.400 C 7.640 384.400,8.000 384.220,8.000 384.000 C 8.000 383.780,7.640 383.600,7.200 383.600 C 6.760 383.600,6.400 383.780,6.400 384.000 M392.400 384.000 C 392.400 384.220,392.760 384.400,393.200 384.400 C 393.640 384.400,394.000 384.220,394.000 384.000 C 394.000 383.780,393.640 383.600,393.200 383.600 C 392.760 383.600,392.400 383.780,392.400 384.000 M393.600 386.357 C 393.600 386.627,393.392 386.719,393.138 386.562 C 392.832 386.373,392.786 386.454,393.001 386.801 C 393.247 387.199,393.092 387.267,392.363 387.083 C 391.448 386.852,391.439 386.869,392.167 387.413 C 392.938 387.989,394.502 386.769,393.841 386.107 C 393.708 385.975,393.600 386.087,393.600 386.357 M7.050 386.720 C 6.886 386.984,6.954 387.200,7.200 387.200 C 7.446 387.200,7.528 387.393,7.382 387.630 C 7.236 387.866,7.495 387.822,7.958 387.533 C 8.421 387.244,8.800 386.849,8.800 386.655 C 8.800 386.461,8.548 386.512,8.239 386.768 C 7.809 387.124,7.639 387.117,7.512 386.736 C 7.384 386.353,7.278 386.350,7.050 386.720 M8.200 388.000 C 8.064 388.220,8.064 388.580,8.200 388.800 C 8.336 389.020,8.257 389.200,8.024 389.200 C 7.791 389.200,7.600 389.374,7.600 389.587 C 7.600 389.801,7.915 389.857,8.300 389.713 C 8.880 389.495,8.917 389.553,8.516 390.047 C 8.124 390.530,8.221 390.847,9.032 391.722 C 10.060 392.830,10.869 393.246,10.030 392.236 C 9.709 391.850,9.694 391.589,9.981 391.412 C 10.211 391.269,10.400 391.354,10.400 391.600 C 10.400 391.846,10.599 391.924,10.843 391.774 C 11.145 391.587,11.195 391.787,11.000 392.400 C 10.815 392.983,10.861 393.210,11.130 393.043 C 11.359 392.902,11.529 392.204,11.508 391.493 C 11.487 390.782,11.394 390.425,11.302 390.700 C 11.209 390.975,10.938 391.200,10.700 391.200 C 10.462 391.200,10.387 391.080,10.534 390.932 C 10.894 390.573,9.587 389.161,9.147 389.433 C 8.805 389.644,8.644 389.074,8.770 388.100 C 8.848 387.499,8.543 387.446,8.200 388.000 M391.619 389.186 C 391.300 389.385,390.919 389.473,390.773 389.383 C 390.626 389.293,390.185 389.575,389.791 390.009 C 389.398 390.444,389.200 390.800,389.352 390.800 C 389.504 390.800,389.435 391.160,389.200 391.600 C 388.727 392.483,389.694 392.819,390.226 391.957 C 390.423 391.639,390.582 391.647,390.792 391.987 C 391.003 392.329,391.280 392.263,391.795 391.747 C 392.272 391.271,392.352 390.984,392.037 390.879 C 391.685 390.762,391.681 390.585,392.021 390.175 C 392.643 389.426,392.358 388.727,391.619 389.186 M9.970 391.036 C 9.625 391.452,9.416 391.462,9.005 391.083 C 8.253 390.391,9.073 389.397,9.858 390.048 C 10.266 390.387,10.295 390.644,9.970 391.036 M391.500 390.617 C 391.500 391.268,391.262 391.500,390.593 391.500 C 390.094 391.500,389.716 391.298,389.754 391.050 C 389.978 389.582,391.500 389.204,391.500 390.617 M387.083 392.363 C 387.267 393.092,387.199 393.247,386.801 393.001 C 386.454 392.786,386.373 392.832,386.562 393.138 C 386.719 393.392,386.627 393.600,386.357 393.600 C 386.087 393.600,385.975 393.708,386.107 393.841 C 386.769 394.502,387.989 392.938,387.413 392.167 C 386.869 391.439,386.852 391.448,387.083 392.363 M13.600 392.624 C 13.600 393.016,13.415 393.136,13.100 392.947 C 12.760 392.743,12.776 392.863,13.149 393.323 C 13.743 394.056,14.800 394.241,14.800 393.613 C 14.800 393.399,14.530 393.329,14.200 393.455 C 13.425 393.753,13.436 393.421,14.229 392.629 C 14.800 392.057,14.800 392.000,14.229 392.000 C 13.883 392.000,13.600 392.281,13.600 392.624 M383.600 392.824 C 383.600 393.057,383.416 393.133,383.190 392.994 C 382.965 392.855,382.830 392.972,382.890 393.256 C 382.951 393.539,382.595 393.955,382.100 394.180 C 380.965 394.696,380.692 400.000,381.800 400.000 C 382.275 400.000,382.400 399.431,382.400 397.280 C 382.400 394.529,382.843 393.488,383.849 393.874 C 384.210 394.013,384.400 393.794,384.400 393.243 C 384.400 392.779,384.220 392.400,384.000 392.400 C 383.780 392.400,383.600 392.591,383.600 392.824 M27.734 397.200 C 27.734 398.850,27.805 399.525,27.891 398.700 C 27.978 397.875,27.978 396.525,27.891 395.700 C 27.805 394.875,27.734 395.550,27.734 397.200 M375.734 397.200 C 375.734 398.850,375.805 399.525,375.891 398.700 C 375.978 397.875,375.978 396.525,375.891 395.700 C 375.805 394.875,375.734 395.550,375.734 397.200 M376.534 397.200 C 376.534 398.850,376.605 399.525,376.691 398.700 C 376.778 397.875,376.778 396.525,376.691 395.700 C 376.605 394.875,376.534 395.550,376.534 397.200 M377.200 397.200 C 377.200 399.422,377.324 400.000,377.800 400.000 C 378.276 400.000,378.400 399.422,378.400 397.200 C 378.400 394.978,378.276 394.400,377.800 394.400 C 377.324 394.400,377.200 394.978,377.200 397.200 M379.734 397.200 C 379.734 398.850,379.805 399.525,379.891 398.700 C 379.978 397.875,379.978 396.525,379.891 395.700 C 379.805 394.875,379.734 395.550,379.734 397.200 M380.534 397.200 C 380.534 398.850,380.605 399.525,380.691 398.700 C 380.778 397.875,380.778 396.525,380.691 395.700 C 380.605 394.875,380.534 395.550,380.534 397.200 " stroke="none" fill="#c8e8cc" fill-rule="evenodd"></path><path id="path4" d="M17.925 3.100 C 17.849 4.805,17.797 6.238,17.811 6.284 C 17.824 6.330,18.232 6.264,18.717 6.137 C 19.539 5.923,19.595 5.695,19.528 2.853 L 19.456 -0.200 19.200 2.800 L 18.944 5.800 18.872 2.900 C 18.776 -0.958,18.100 -0.815,17.925 3.100 M20.134 2.800 C 20.134 4.450,20.205 5.125,20.291 4.300 C 20.378 3.475,20.378 2.125,20.291 1.300 C 20.205 0.475,20.134 1.150,20.134 2.800 M22.482 2.868 C 22.652 7.005,23.600 7.145,23.600 3.033 C 23.600 0.565,23.485 0.000,22.982 0.000 C 22.472 0.000,22.385 0.498,22.482 2.868 M24.134 2.800 C 24.134 4.450,24.205 5.125,24.291 4.300 C 24.378 3.475,24.378 2.125,24.291 1.300 C 24.205 0.475,24.134 1.150,24.134 2.800 M24.934 2.800 C 24.934 4.450,25.005 5.125,25.091 4.300 C 25.178 3.475,25.178 2.125,25.091 1.300 C 25.005 0.475,24.934 1.150,24.934 2.800 M372.134 2.800 C 372.134 4.450,372.205 5.125,372.291 4.300 C 372.378 3.475,372.378 2.125,372.291 1.300 C 372.205 0.475,372.134 1.150,372.134 2.800 M383.400 6.800 C 383.108 7.272,383.487 8.000,384.024 8.000 C 384.231 8.000,384.400 7.640,384.400 7.200 C 384.400 6.356,383.818 6.124,383.400 6.800 M386.650 7.120 C 386.483 7.390,386.559 7.600,386.825 7.600 C 387.178 7.600,387.171 7.753,386.800 8.200 C 386.526 8.530,386.461 8.800,386.655 8.800 C 386.849 8.800,387.244 8.421,387.533 7.958 C 387.822 7.495,387.881 7.226,387.664 7.361 C 387.446 7.495,387.196 7.388,387.107 7.122 C 386.982 6.747,386.880 6.747,386.650 7.120 M12.806 8.149 C 12.801 8.759,12.692 8.808,12.217 8.414 C 11.636 7.932,9.700 8.766,10.212 9.279 C 10.326 9.393,10.145 9.714,9.810 9.992 C 9.474 10.270,9.200 10.346,9.200 10.160 C 9.200 9.974,8.914 10.230,8.565 10.728 C 8.062 11.446,8.031 11.755,8.414 12.217 C 8.808 12.692,8.759 12.801,8.149 12.806 C 7.526 12.811,7.500 12.876,7.994 13.188 C 8.414 13.454,8.697 13.370,8.958 12.903 C 9.204 12.463,9.173 12.191,8.864 12.088 C 8.609 12.003,8.400 11.758,8.400 11.543 C 8.400 11.328,8.595 11.273,8.833 11.420 C 9.405 11.774,11.677 9.577,11.423 8.915 C 11.314 8.632,11.384 8.400,11.579 8.400 C 11.774 8.400,12.003 8.609,12.088 8.864 C 12.191 9.173,12.463 9.204,12.903 8.958 C 13.370 8.697,13.454 8.414,13.188 7.994 C 12.876 7.500,12.811 7.526,12.806 8.149 M389.200 7.987 C 389.200 8.201,388.948 8.278,388.640 8.160 C 388.333 8.042,387.955 8.150,387.800 8.399 C 387.639 8.660,387.750 8.822,388.060 8.779 C 389.063 8.642,389.648 8.798,389.433 9.147 C 389.161 9.587,390.573 10.894,390.932 10.534 C 391.080 10.387,391.200 10.462,391.200 10.700 C 391.200 10.938,390.975 11.209,390.700 11.302 C 390.425 11.394,390.782 11.487,391.493 11.508 C 392.204 11.529,392.902 11.359,393.043 11.130 C 393.210 10.861,392.983 10.815,392.400 11.000 C 391.787 11.195,391.587 11.145,391.774 10.843 C 391.924 10.599,391.846 10.400,391.600 10.400 C 391.354 10.400,391.269 10.211,391.412 9.981 C 391.589 9.694,391.850 9.709,392.236 10.030 C 393.246 10.869,392.830 10.060,391.722 9.032 C 390.847 8.221,390.530 8.124,390.047 8.516 C 389.553 8.917,389.495 8.880,389.713 8.300 C 389.857 7.915,389.801 7.600,389.587 7.600 C 389.374 7.600,389.200 7.774,389.200 7.987 M391.107 9.905 C 390.794 10.287,390.560 10.298,390.142 9.952 C 389.734 9.613,389.705 9.356,390.030 8.964 C 390.375 8.548,390.584 8.538,390.995 8.917 C 391.363 9.256,391.397 9.551,391.107 9.905 M10.399 10.202 C 9.883 10.751,9.323 11.200,9.156 11.200 C 8.988 11.200,9.335 10.699,9.926 10.088 C 10.516 9.476,11.076 9.026,11.168 9.089 C 11.261 9.152,10.914 9.652,10.399 10.202 M392.947 13.100 C 393.136 13.415,393.016 13.600,392.624 13.600 C 392.281 13.600,392.000 13.883,392.000 14.229 C 392.000 14.800,392.057 14.800,392.629 14.229 C 393.421 13.436,393.753 13.425,393.455 14.200 C 393.329 14.530,393.399 14.800,393.613 14.800 C 394.241 14.800,394.056 13.743,393.323 13.149 C 392.863 12.776,392.743 12.760,392.947 13.100 M6.543 17.000 C 6.873 17.330,7.216 17.600,7.305 17.600 C 7.394 17.600,7.467 17.330,7.467 17.000 C 7.467 16.670,7.124 16.400,6.705 16.400 C 6.028 16.400,6.010 16.467,6.543 17.000 M393.443 16.967 C 393.576 17.315,393.861 17.600,394.076 17.600 C 394.602 17.600,394.273 16.691,393.675 16.492 C 393.382 16.394,393.293 16.577,393.443 16.967 M394.200 18.400 C 394.044 18.653,395.063 18.800,396.976 18.800 C 398.725 18.800,400.000 18.631,400.000 18.400 C 400.000 18.172,398.808 18.000,397.224 18.000 C 395.697 18.000,394.336 18.180,394.200 18.400 M395.700 19.491 C 396.525 19.578,397.875 19.578,398.700 19.491 C 399.525 19.405,398.850 19.334,397.200 19.334 C 395.550 19.334,394.875 19.405,395.700 19.491 M395.700 20.291 C 396.525 20.378,397.875 20.378,398.700 20.291 C 399.525 20.205,398.850 20.134,397.200 20.134 C 395.550 20.134,394.875 20.205,395.700 20.291 M394.400 23.000 C 394.400 23.476,394.978 23.600,397.200 23.600 C 399.422 23.600,400.000 23.476,400.000 23.000 C 400.000 22.524,399.422 22.400,397.200 22.400 C 394.978 22.400,394.400 22.524,394.400 23.000 M395.700 24.291 C 396.525 24.378,397.875 24.378,398.700 24.291 C 399.525 24.205,398.850 24.134,397.200 24.134 C 395.550 24.134,394.875 24.205,395.700 24.291 M395.700 25.091 C 396.525 25.178,397.875 25.178,398.700 25.091 C 399.525 25.005,398.850 24.934,397.200 24.934 C 395.550 24.934,394.875 25.005,395.700 25.091 M1.300 27.891 C 2.125 27.978,3.475 27.978,4.300 27.891 C 5.125 27.805,4.450 27.734,2.800 27.734 C 1.150 27.734,0.475 27.805,1.300 27.891 M274.800 62.400 C 274.800 62.620,274.350 62.800,273.800 62.800 C 273.250 62.800,272.800 62.960,272.800 63.157 C 272.800 63.353,272.350 63.626,271.800 63.764 C 271.250 63.902,270.800 64.184,270.800 64.389 C 270.800 64.595,270.338 65.226,269.774 65.790 C 269.209 66.355,268.645 67.443,268.521 68.208 C 268.397 68.974,268.139 69.600,267.948 69.600 C 267.751 69.600,267.600 126.594,267.600 200.400 C 267.600 274.206,267.751 331.200,267.948 331.200 C 268.139 331.200,268.397 331.825,268.521 332.588 C 268.740 333.939,271.437 337.200,272.335 337.200 C 272.554 337.200,272.808 337.425,272.900 337.700 C 273.144 338.433,332.856 338.433,333.100 337.700 C 333.192 337.425,333.445 337.200,333.662 337.200 C 334.424 337.200,337.200 334.414,337.200 333.650 C 337.200 333.439,337.425 333.192,337.700 333.100 C 338.099 332.967,338.200 306.071,338.200 200.400 C 338.200 94.729,338.099 67.833,337.700 67.700 C 337.425 67.608,337.200 67.361,337.200 67.150 C 337.200 66.363,334.540 63.600,333.782 63.600 C 333.462 63.600,333.200 63.420,333.200 63.200 C 333.200 62.980,332.750 62.800,332.200 62.800 C 331.650 62.800,331.200 62.620,331.200 62.400 C 331.200 62.137,321.533 62.000,303.000 62.000 C 284.467 62.000,274.800 62.137,274.800 62.400 M330.300 67.100 C 330.392 67.375,330.645 67.600,330.862 67.600 C 331.079 67.600,331.511 67.854,331.821 68.164 C 332.132 68.475,332.578 68.793,332.812 68.871 C 333.047 68.949,333.345 70.045,333.475 71.306 C 333.605 72.568,333.867 73.600,334.056 73.600 C 334.247 73.600,334.400 129.972,334.400 200.600 C 334.400 272.343,334.249 327.600,334.052 327.600 C 333.861 327.600,333.615 328.394,333.505 329.365 C 333.237 331.743,331.743 333.237,329.365 333.505 C 328.394 333.615,327.600 333.861,327.600 334.052 C 327.600 334.246,316.682 334.400,303.000 334.400 C 289.318 334.400,278.400 334.246,278.400 334.052 C 278.400 333.861,277.606 333.615,276.635 333.505 C 274.257 333.237,272.763 331.743,272.495 329.365 C 272.385 328.394,272.139 327.600,271.948 327.600 C 271.751 327.600,271.600 272.343,271.600 200.600 C 271.600 129.972,271.753 73.600,271.944 73.600 C 272.133 73.600,272.395 72.568,272.525 71.306 C 272.655 70.045,272.953 68.949,273.188 68.871 C 273.422 68.793,273.868 68.475,274.179 68.164 C 274.489 67.854,274.936 67.600,275.171 67.600 C 275.407 67.600,275.600 67.430,275.600 67.222 C 275.600 66.316,329.999 66.194,330.300 67.100 M176.700 116.679 C 176.095 116.775,175.600 117.021,175.600 117.227 C 175.600 117.432,175.407 117.600,175.171 117.600 C 174.773 117.600,174.442 117.838,173.114 119.081 C 172.202 119.934,171.600 120.757,171.600 121.150 C 171.600 121.361,171.375 121.608,171.100 121.700 C 170.364 121.945,170.364 332.855,171.100 333.100 C 171.375 333.192,171.600 333.445,171.600 333.662 C 171.600 334.424,174.386 337.200,175.150 337.200 C 175.361 337.200,175.608 337.425,175.700 337.700 C 175.944 338.433,235.656 338.433,235.900 337.700 C 235.992 337.425,236.246 337.200,236.465 337.200 C 237.363 337.200,240.060 333.939,240.279 332.588 C 240.403 331.825,240.661 331.200,240.852 331.200 C 241.048 331.200,241.200 285.916,241.200 227.400 C 241.200 168.884,241.048 123.600,240.852 123.600 C 240.661 123.600,240.403 122.975,240.279 122.212 C 240.060 120.861,237.363 117.600,236.465 117.600 C 236.246 117.600,235.992 117.375,235.900 117.100 C 235.738 116.614,179.635 116.215,176.700 116.679 M233.100 121.100 C 233.192 121.375,233.445 121.600,233.662 121.600 C 233.879 121.600,234.311 121.854,234.621 122.164 C 234.932 122.475,235.378 122.793,235.612 122.871 C 235.847 122.949,236.145 124.045,236.275 125.306 C 236.405 126.568,236.667 127.600,236.856 127.600 C 237.047 127.600,237.200 172.044,237.200 227.600 C 237.200 284.034,237.048 327.600,236.852 327.600 C 236.661 327.600,236.415 328.394,236.305 329.365 C 236.037 331.743,234.543 333.237,232.165 333.505 C 231.194 333.615,230.400 333.861,230.400 334.052 C 230.400 334.246,219.482 334.400,205.800 334.400 C 192.118 334.400,181.200 334.246,181.200 334.052 C 181.200 333.861,180.406 333.615,179.435 333.505 C 177.744 333.315,175.600 331.831,175.600 330.852 C 175.600 330.640,175.375 330.392,175.100 330.300 C 174.702 330.167,174.600 309.231,174.600 227.400 C 174.600 145.569,174.702 124.633,175.100 124.500 C 175.375 124.408,175.600 124.000,175.600 123.594 C 175.600 123.187,175.960 122.740,176.400 122.600 C 176.840 122.460,177.200 122.178,177.200 121.973 C 177.200 121.768,177.470 121.600,177.800 121.600 C 178.130 121.600,178.400 121.430,178.400 121.223 C 178.400 120.310,232.796 120.187,233.100 121.100 M79.500 192.280 C 78.895 192.375,78.400 192.621,78.400 192.827 C 78.400 193.032,78.212 193.200,77.983 193.200 C 77.167 193.200,74.400 195.840,74.400 196.618 C 74.400 196.938,74.220 197.200,74.000 197.200 C 73.780 197.200,73.600 197.650,73.600 198.200 C 73.600 198.750,73.420 199.200,73.200 199.200 C 72.935 199.200,72.800 221.467,72.800 265.200 C 72.800 308.933,72.935 331.200,73.200 331.200 C 73.420 331.200,73.600 331.650,73.600 332.200 C 73.600 332.750,73.780 333.200,74.000 333.200 C 74.220 333.200,74.400 333.462,74.400 333.782 C 74.400 334.540,77.163 337.200,77.950 337.200 C 78.161 337.200,78.408 337.425,78.500 337.700 C 78.631 338.094,84.969 338.200,108.400 338.200 C 131.831 338.200,138.169 338.094,138.300 337.700 C 138.392 337.425,138.725 337.200,139.040 337.200 C 139.772 337.200,142.400 334.514,142.400 333.766 C 142.400 333.455,142.580 333.200,142.800 333.200 C 143.020 333.200,143.200 332.750,143.200 332.200 C 143.200 331.650,143.380 331.200,143.600 331.200 C 143.865 331.200,144.000 308.933,144.000 265.200 C 144.000 221.467,143.865 199.200,143.600 199.200 C 143.380 199.200,143.200 198.750,143.200 198.200 C 143.200 197.650,143.020 197.200,142.800 197.200 C 142.580 197.200,142.400 196.945,142.400 196.634 C 142.400 195.886,139.772 193.200,139.040 193.200 C 138.725 193.200,138.392 192.975,138.300 192.700 C 138.138 192.214,82.449 191.817,79.500 192.280 M132.400 196.350 C 132.400 196.543,133.388 196.783,134.594 196.883 C 136.812 197.067,138.400 198.143,138.400 199.461 C 138.400 199.758,138.580 200.000,138.800 200.000 C 139.020 200.000,139.200 200.720,139.200 201.600 C 139.200 202.480,139.380 203.200,139.600 203.200 C 139.865 203.200,140.000 224.200,140.000 265.400 C 140.000 306.600,139.865 327.600,139.600 327.600 C 139.380 327.600,139.200 328.230,139.200 329.000 C 139.200 329.770,139.020 330.400,138.800 330.400 C 138.580 330.400,138.400 330.642,138.400 330.939 C 138.400 332.109,136.831 333.295,135.012 333.500 C 134.015 333.612,133.200 333.861,133.200 334.052 C 133.200 334.246,122.195 334.400,108.400 334.400 C 94.578 334.400,83.600 334.246,83.600 334.052 C 83.600 333.860,82.711 333.585,81.624 333.441 C 80.145 333.245,79.584 332.980,79.397 332.389 C 79.259 331.955,78.978 331.600,78.773 331.600 C 78.568 331.600,78.400 331.345,78.400 331.033 C 78.400 330.722,78.175 330.392,77.900 330.300 C 77.165 330.055,77.165 200.345,77.900 200.100 C 78.175 200.008,78.400 199.755,78.400 199.538 C 78.400 199.321,78.654 198.889,78.964 198.579 C 79.275 198.268,79.593 197.822,79.671 197.588 C 79.749 197.353,80.845 197.055,82.106 196.925 C 83.368 196.795,84.400 196.533,84.400 196.344 C 84.400 196.155,95.200 196.000,108.400 196.000 C 121.872 196.000,132.400 196.154,132.400 196.350 M395.700 372.291 C 396.525 372.378,397.875 372.378,398.700 372.291 C 399.525 372.205,398.850 372.134,397.200 372.134 C 395.550 372.134,394.875 372.205,395.700 372.291 M1.300 375.091 C 2.125 375.178,3.475 375.178,4.300 375.091 C 5.125 375.005,4.450 374.934,2.800 374.934 C 1.150 374.934,0.475 375.005,1.300 375.091 M1.300 375.891 C 2.125 375.978,3.475 375.978,4.300 375.891 C 5.125 375.805,4.450 375.734,2.800 375.734 C 1.150 375.734,0.475 375.805,1.300 375.891 M2.800 376.790 L 5.800 377.056 2.900 377.128 C -1.290 377.232,-1.241 378.282,2.963 378.468 C 5.916 378.600,5.926 378.596,5.820 377.600 C 5.717 376.637,5.604 376.599,2.757 376.562 L -0.200 376.525 2.800 376.790 M1.300 379.891 C 2.125 379.978,3.475 379.978,4.300 379.891 C 5.125 379.805,4.450 379.734,2.800 379.734 C 1.150 379.734,0.475 379.805,1.300 379.891 M2.800 380.800 L 5.800 381.056 2.900 381.128 C -1.389 381.235,-1.328 382.400,2.967 382.400 C 4.966 382.400,5.999 382.563,6.135 382.900 C 6.281 383.261,6.346 383.267,6.368 382.924 C 6.386 382.662,6.237 382.346,6.038 382.223 C 5.838 382.100,5.769 381.639,5.884 381.200 C 6.081 380.446,5.913 380.404,2.947 380.472 L -0.200 380.544 2.800 380.800 M6.400 384.000 C 6.400 384.220,6.760 384.400,7.200 384.400 C 7.640 384.400,8.000 384.220,8.000 384.000 C 8.000 383.780,7.640 383.600,7.200 383.600 C 6.760 383.600,6.400 383.780,6.400 384.000 M392.400 384.000 C 392.400 384.220,392.760 384.400,393.200 384.400 C 393.640 384.400,394.000 384.220,394.000 384.000 C 394.000 383.780,393.640 383.600,393.200 383.600 C 392.760 383.600,392.400 383.780,392.400 384.000 M393.600 386.357 C 393.600 386.627,393.392 386.719,393.138 386.562 C 392.832 386.373,392.786 386.454,393.001 386.801 C 393.247 387.199,393.092 387.267,392.363 387.083 C 391.448 386.852,391.439 386.869,392.167 387.413 C 392.938 387.989,394.502 386.769,393.841 386.107 C 393.708 385.975,393.600 386.087,393.600 386.357 M7.050 386.720 C 6.886 386.984,6.954 387.200,7.200 387.200 C 7.446 387.200,7.528 387.393,7.382 387.630 C 7.236 387.866,7.495 387.822,7.958 387.533 C 8.421 387.244,8.800 386.849,8.800 386.655 C 8.800 386.461,8.548 386.512,8.239 386.768 C 7.809 387.124,7.639 387.117,7.512 386.736 C 7.384 386.353,7.278 386.350,7.050 386.720 M8.200 388.000 C 8.064 388.220,8.064 388.580,8.200 388.800 C 8.336 389.020,8.257 389.200,8.024 389.200 C 7.791 389.200,7.600 389.374,7.600 389.587 C 7.600 389.801,7.915 389.857,8.300 389.713 C 8.880 389.495,8.917 389.553,8.516 390.047 C 8.124 390.530,8.221 390.847,9.032 391.722 C 10.060 392.830,10.869 393.246,10.030 392.236 C 9.709 391.850,9.694 391.589,9.981 391.412 C 10.211 391.269,10.400 391.354,10.400 391.600 C 10.400 391.846,10.599 391.924,10.843 391.774 C 11.145 391.587,11.195 391.787,11.000 392.400 C 10.815 392.983,10.861 393.210,11.130 393.043 C 11.359 392.902,11.529 392.204,11.508 391.493 C 11.487 390.782,11.394 390.425,11.302 390.700 C 11.209 390.975,10.938 391.200,10.700 391.200 C 10.462 391.200,10.387 391.080,10.534 390.932 C 10.894 390.573,9.587 389.161,9.147 389.433 C 8.805 389.644,8.644 389.074,8.770 388.100 C 8.848 387.499,8.543 387.446,8.200 388.000 M391.619 389.186 C 391.300 389.385,390.919 389.473,390.773 389.383 C 390.626 389.293,390.185 389.575,389.791 390.009 C 389.398 390.444,389.200 390.800,389.352 390.800 C 389.504 390.800,389.435 391.160,389.200 391.600 C 388.727 392.483,389.694 392.819,390.226 391.957 C 390.423 391.639,390.582 391.647,390.792 391.987 C 391.003 392.329,391.280 392.263,391.795 391.747 C 392.272 391.271,392.352 390.984,392.037 390.879 C 391.685 390.762,391.681 390.585,392.021 390.175 C 392.643 389.426,392.358 388.727,391.619 389.186 M9.970 391.036 C 9.625 391.452,9.416 391.462,9.005 391.083 C 8.253 390.391,9.073 389.397,9.858 390.048 C 10.266 390.387,10.295 390.644,9.970 391.036 M391.500 390.617 C 391.500 391.268,391.262 391.500,390.593 391.500 C 390.094 391.500,389.716 391.298,389.754 391.050 C 389.978 389.582,391.500 389.204,391.500 390.617 M387.083 392.363 C 387.267 393.092,387.199 393.247,386.801 393.001 C 386.454 392.786,386.373 392.832,386.562 393.138 C 386.719 393.392,386.627 393.600,386.357 393.600 C 386.087 393.600,385.975 393.708,386.107 393.841 C 386.769 394.502,387.989 392.938,387.413 392.167 C 386.869 391.439,386.852 391.448,387.083 392.363 M13.600 392.624 C 13.600 393.016,13.415 393.136,13.100 392.947 C 12.760 392.743,12.776 392.863,13.149 393.323 C 13.743 394.056,14.800 394.241,14.800 393.613 C 14.800 393.399,14.530 393.329,14.200 393.455 C 13.425 393.753,13.436 393.421,14.229 392.629 C 14.800 392.057,14.800 392.000,14.229 392.000 C 13.883 392.000,13.600 392.281,13.600 392.624 M383.600 392.824 C 383.600 393.057,383.416 393.133,383.190 392.994 C 382.965 392.855,382.830 392.972,382.890 393.256 C 382.951 393.539,382.595 393.955,382.100 394.180 C 380.965 394.696,380.692 400.000,381.800 400.000 C 382.275 400.000,382.400 399.431,382.400 397.280 C 382.400 394.529,382.843 393.488,383.849 393.874 C 384.210 394.013,384.400 393.794,384.400 393.243 C 384.400 392.779,384.220 392.400,384.000 392.400 C 383.780 392.400,383.600 392.591,383.600 392.824 M27.734 397.200 C 27.734 398.850,27.805 399.525,27.891 398.700 C 27.978 397.875,27.978 396.525,27.891 395.700 C 27.805 394.875,27.734 395.550,27.734 397.200 M375.734 397.200 C 375.734 398.850,375.805 399.525,375.891 398.700 C 375.978 397.875,375.978 396.525,375.891 395.700 C 375.805 394.875,375.734 395.550,375.734 397.200 M376.534 397.200 C 376.534 398.850,376.605 399.525,376.691 398.700 C 376.778 397.875,376.778 396.525,376.691 395.700 C 376.605 394.875,376.534 395.550,376.534 397.200 M377.200 397.200 C 377.200 399.422,377.324 400.000,377.800 400.000 C 378.276 400.000,378.400 399.422,378.400 397.200 C 378.400 394.978,378.276 394.400,377.800 394.400 C 377.324 394.400,377.200 394.978,377.200 397.200 M379.734 397.200 C 379.734 398.850,379.805 399.525,379.891 398.700 C 379.978 397.875,379.978 396.525,379.891 395.700 C 379.805 394.875,379.734 395.550,379.734 397.200 M380.534 397.200 C 380.534 398.850,380.605 399.525,380.691 398.700 C 380.778 397.875,380.778 396.525,380.691 395.700 C 380.605 394.875,380.534 395.550,380.534 397.200 " stroke="none" fill="#c8e8cc" fill-rule="evenodd"></path></g></svg>