<svg id="svg" version="1.1" xmlns="http://www.w3.org/2000/svg" xmlns:xlink="http://www.w3.org/1999/xlink" width="400" height="400" viewBox="0, 0, 400,400"><g id="svgg"><path id="path0" d="M18.934 2.800 C 18.934 4.450,19.005 5.125,19.091 4.300 C 19.178 3.475,19.178 2.125,19.091 1.300 C 19.005 0.475,18.934 1.150,18.934 2.800 M19.672 2.853 C 19.594 6.172,18.945 6.934,17.058 5.924 C 16.075 5.398,8.799 5.759,7.615 6.392 C 6.311 7.090,5.965 8.217,5.719 12.573 L 5.484 16.711 6.476 16.522 C 7.193 16.385,7.467 16.507,7.467 16.966 C 7.467 17.315,7.317 17.600,7.133 17.600 C 6.950 17.600,6.800 17.405,6.800 17.167 C 6.800 16.928,6.575 16.809,6.300 16.901 C 5.958 17.015,5.785 18.132,5.753 20.434 C 5.728 22.285,5.683 24.565,5.653 25.500 L 5.600 27.200 2.700 27.272 L -0.200 27.344 2.800 27.600 L 5.800 27.856 2.900 27.928 L 0.000 28.000 0.000 201.400 L 0.000 374.800 2.900 374.872 L 5.800 374.944 2.800 375.200 L -0.200 375.456 2.800 375.600 L 5.800 375.744 2.800 375.990 L -0.200 376.236 2.757 376.418 C 5.559 376.591,5.719 376.652,5.820 377.600 C 5.926 378.596,5.916 378.600,2.963 378.468 C 0.474 378.358,0.000 378.438,0.000 378.968 C 0.000 379.479,0.555 379.614,2.900 379.672 L 5.800 379.744 2.800 380.000 L -0.200 380.256 2.925 380.328 C 5.657 380.391,6.036 380.488,5.935 381.100 C 5.872 381.485,5.971 382.041,6.155 382.335 C 6.350 382.647,6.305 383.055,6.045 383.315 C 5.796 383.564,5.614 384.999,5.632 386.580 C 5.649 388.131,5.754 389.175,5.865 388.900 C 5.976 388.625,6.332 388.400,6.657 388.400 C 6.982 388.400,7.143 388.569,7.015 388.776 C 6.887 388.982,7.127 389.126,7.547 389.094 C 7.968 389.062,8.230 388.821,8.129 388.559 C 8.028 388.296,8.150 387.955,8.399 387.800 C 8.660 387.639,8.822 387.750,8.779 388.060 C 8.642 389.063,8.798 389.648,9.147 389.433 C 9.337 389.315,9.799 389.557,10.173 389.970 C 10.546 390.383,10.684 390.824,10.480 390.951 C 10.275 391.078,9.817 390.861,9.463 390.470 C 8.483 389.387,6.000 389.767,6.000 390.999 C 6.000 392.549,7.287 393.796,8.318 393.244 C 9.042 392.856,9.144 392.880,8.948 393.391 C 8.772 393.850,8.997 393.998,9.857 393.994 C 10.742 393.989,10.865 393.900,10.400 393.600 C 10.070 393.387,10.004 393.209,10.253 393.206 C 10.503 393.203,10.797 392.853,10.908 392.430 C 11.049 391.890,10.944 391.723,10.555 391.873 C 9.772 392.173,9.865 391.893,10.821 391.075 C 11.364 390.610,11.618 390.546,11.573 390.886 C 11.364 392.464,11.585 392.910,12.300 392.356 C 12.956 391.848,12.959 391.864,12.352 392.607 C 11.996 393.043,11.786 393.625,11.886 393.900 C 12.119 394.546,16.400 394.594,16.400 393.951 C 16.400 393.634,16.549 393.626,16.907 393.923 C 17.185 394.154,18.850 394.346,20.607 394.348 C 22.363 394.351,24.565 394.364,25.500 394.377 L 27.200 394.400 27.272 397.300 L 27.344 400.200 27.600 397.200 L 27.856 394.200 27.928 397.100 L 28.000 400.000 201.800 400.000 L 375.600 400.000 375.672 397.100 L 375.744 394.200 376.000 397.200 L 376.256 400.200 376.400 397.200 L 376.544 394.200 376.800 397.200 L 377.056 400.200 377.128 397.300 C 377.232 393.131,378.400 393.039,378.400 397.200 C 378.400 401.361,379.568 401.269,379.672 397.100 L 379.744 394.200 380.000 397.200 L 380.256 400.200 380.400 397.200 L 380.544 394.200 380.800 397.200 L 381.056 400.200 381.131 397.400 C 381.200 394.841,381.292 394.560,382.203 394.138 C 382.892 393.818,383.200 393.808,383.200 394.104 C 383.200 394.340,383.316 394.418,383.457 394.276 C 383.598 394.135,383.463 393.710,383.157 393.333 C 382.788 392.879,382.769 392.748,383.100 392.947 C 383.375 393.112,383.600 393.057,383.600 392.824 C 383.600 392.591,383.780 392.400,384.000 392.400 C 384.220 392.400,384.400 392.850,384.400 393.400 C 384.400 394.321,384.545 394.400,386.229 394.400 C 388.177 394.400,389.163 393.776,389.150 392.550 C 389.125 390.125,390.125 389.125,392.550 389.150 C 393.776 389.163,394.400 388.177,394.400 386.229 C 394.400 384.545,394.321 384.400,393.400 384.400 C 392.850 384.400,392.400 384.220,392.400 384.000 C 392.400 383.780,392.808 383.600,393.307 383.600 C 394.180 383.600,394.215 383.464,394.264 379.900 C 394.291 377.865,394.333 375.435,394.357 374.500 L 394.400 372.800 397.300 372.728 L 400.200 372.656 397.200 372.400 L 394.200 372.144 397.100 372.072 L 400.000 372.000 400.000 198.600 L 400.000 25.200 397.100 25.128 L 394.200 25.056 397.200 24.800 L 400.200 24.544 397.200 24.400 L 394.200 24.256 397.200 24.000 L 400.200 23.744 397.300 23.672 C 393.131 23.568,393.039 22.400,397.200 22.400 C 399.920 22.400,400.000 22.371,400.000 21.400 C 400.000 20.432,399.907 20.398,397.100 20.328 L 394.200 20.256 397.200 20.000 L 400.200 19.744 397.200 19.600 L 394.200 19.456 397.200 19.200 L 400.200 18.944 397.076 18.872 C 395.097 18.826,394.044 18.652,394.202 18.397 C 394.339 18.175,394.137 17.680,393.754 17.297 C 393.108 16.651,393.107 16.590,393.729 16.471 C 394.257 16.369,394.400 15.887,394.400 14.204 C 394.400 11.841,393.884 11.309,392.607 12.352 C 391.864 12.959,391.848 12.956,392.356 12.300 C 392.910 11.585,392.464 11.364,390.886 11.573 C 390.546 11.618,390.610 11.364,391.075 10.821 C 391.893 9.865,392.173 9.772,391.873 10.555 C 391.723 10.944,391.890 11.049,392.430 10.908 C 392.853 10.797,393.203 10.503,393.206 10.253 C 393.209 10.004,393.387 10.070,393.600 10.400 C 393.900 10.865,393.989 10.742,393.994 9.857 C 393.998 8.997,393.850 8.772,393.391 8.948 C 392.880 9.144,392.856 9.042,393.244 8.318 C 393.796 7.287,392.549 6.000,390.999 6.000 C 389.767 6.000,389.387 8.483,390.470 9.463 C 390.861 9.817,391.078 10.275,390.951 10.480 C 390.824 10.684,390.383 10.546,389.970 10.173 C 389.557 9.799,389.315 9.337,389.433 9.147 C 389.648 8.798,389.063 8.642,388.060 8.779 C 387.750 8.822,387.639 8.660,387.800 8.399 C 387.955 8.150,388.296 8.028,388.559 8.129 C 388.821 8.230,389.062 7.968,389.094 7.547 C 389.126 7.127,388.982 6.887,388.776 7.015 C 388.569 7.143,388.400 6.982,388.400 6.657 C 388.400 6.332,388.625 5.973,388.900 5.858 C 389.175 5.743,387.640 5.658,385.488 5.670 C 381.929 5.688,381.622 5.749,382.082 6.345 C 382.491 6.877,382.431 6.868,381.762 6.300 C 380.836 5.514,379.800 5.352,380.238 6.062 C 380.435 6.381,380.350 6.412,379.962 6.162 C 379.653 5.963,378.680 5.781,377.800 5.758 C 376.920 5.735,375.435 5.690,374.500 5.658 L 372.800 5.600 372.728 2.700 L 372.656 -0.200 372.400 2.800 L 372.144 5.800 372.072 2.900 L 372.000 0.000 198.600 0.000 L 25.200 0.000 25.128 2.900 L 25.056 5.800 24.800 2.800 L 24.544 -0.200 24.400 2.800 L 24.256 5.800 24.000 2.800 L 23.744 -0.200 23.672 2.933 C 23.576 7.102,22.654 7.051,22.482 2.868 C 22.370 0.121,22.323 0.000,21.382 0.000 C 20.436 0.000,20.397 0.107,20.328 2.900 L 20.256 5.800 20.000 2.800 L 19.744 -0.200 19.672 2.853 M12.116 6.801 C 12.231 7.241,12.162 7.500,11.963 7.377 C 11.357 7.003,11.558 7.867,12.200 8.400 C 12.697 8.812,12.801 8.769,12.806 8.149 C 12.811 7.526,12.876 7.500,13.188 7.994 C 13.454 8.414,13.370 8.697,12.903 8.958 C 12.463 9.204,12.191 9.173,12.088 8.864 C 12.003 8.609,11.774 8.400,11.579 8.400 C 11.384 8.400,11.314 8.632,11.423 8.915 C 11.677 9.577,9.405 11.774,8.833 11.420 C 8.595 11.273,8.400 11.328,8.400 11.543 C 8.400 11.758,8.609 12.003,8.864 12.088 C 9.173 12.191,9.204 12.463,8.958 12.903 C 8.697 13.370,8.414 13.454,7.994 13.188 C 7.500 12.876,7.526 12.811,8.149 12.806 C 8.769 12.801,8.812 12.697,8.400 12.200 C 7.867 11.558,7.003 11.357,7.377 11.963 C 7.500 12.162,7.241 12.231,6.801 12.116 C 6.360 12.001,6.003 11.703,6.006 11.453 C 6.014 10.848,6.786 9.673,6.794 10.253 C 6.803 10.956,8.414 11.229,8.666 10.571 C 8.786 10.260,9.025 10.092,9.197 10.198 C 9.369 10.304,9.732 10.123,10.004 9.796 C 10.276 9.468,10.341 9.195,10.149 9.188 C 9.957 9.181,10.098 9.002,10.463 8.789 C 11.188 8.365,11.024 6.804,10.253 6.794 C 9.673 6.786,10.848 6.014,11.453 6.006 C 11.703 6.003,12.001 6.360,12.116 6.801 M13.781 6.464 C 14.859 6.955,15.147 7.600,14.289 7.600 C 14.008 7.600,13.470 7.240,13.093 6.800 C 12.300 5.874,12.389 5.830,13.781 6.464 M384.400 7.000 C 384.400 7.988,383.858 8.341,383.422 7.636 C 383.133 7.168,383.576 6.000,384.043 6.000 C 384.239 6.000,384.400 6.450,384.400 7.000 M387.322 6.257 C 387.060 6.364,386.944 6.709,387.064 7.024 C 387.185 7.338,387.458 7.488,387.671 7.356 C 387.885 7.224,387.822 7.495,387.533 7.958 C 387.244 8.421,386.849 8.800,386.655 8.800 C 386.461 8.800,386.549 8.500,386.851 8.134 C 387.348 7.531,387.286 7.494,386.200 7.746 C 385.327 7.948,385.164 7.914,385.600 7.618 C 385.930 7.395,386.020 7.204,385.800 7.193 C 385.580 7.183,385.749 6.910,386.176 6.587 C 386.604 6.264,387.144 6.014,387.376 6.032 C 387.617 6.049,387.593 6.147,387.322 6.257 M8.125 7.951 C 7.506 8.585,6.944 8.956,6.875 8.776 C 6.702 8.325,8.083 6.874,8.725 6.833 C 9.014 6.815,8.744 7.318,8.125 7.951 M392.591 8.400 C 392.185 8.856,392.163 9.193,392.499 9.800 C 392.882 10.491,392.859 10.533,392.334 10.103 C 392.000 9.830,391.653 9.665,391.563 9.737 C 391.152 10.064,390.121 8.452,390.426 7.958 C 390.689 7.533,390.811 7.564,391.021 8.111 C 391.366 9.010,392.071 9.002,391.979 8.100 C 391.859 6.915,391.978 6.748,392.563 7.284 C 393.033 7.715,393.037 7.899,392.591 8.400 M9.910 8.747 C 8.558 10.478,7.441 10.495,7.890 8.777 C 8.089 8.016,9.023 7.620,9.910 7.921 C 10.324 8.061,10.324 8.217,9.910 8.747 M9.926 10.088 C 9.335 10.699,8.988 11.200,9.156 11.200 C 9.535 11.200,11.399 9.245,11.168 9.089 C 11.076 9.026,10.516 9.476,9.926 10.088 M7.600 14.289 C 7.600 15.147,6.955 14.859,6.464 13.781 C 5.830 12.389,5.874 12.300,6.800 13.093 C 7.240 13.470,7.600 14.008,7.600 14.289 M394.000 14.249 C 394.000 14.937,393.337 14.973,393.064 14.300 C 392.911 13.924,392.756 13.948,392.437 14.400 C 392.131 14.832,392.011 14.855,392.006 14.483 C 392.003 14.199,392.225 13.722,392.500 13.423 C 393.067 12.807,394.000 13.321,394.000 14.249 M331.200 62.400 C 331.200 62.620,331.650 62.800,332.200 62.800 C 332.750 62.800,333.200 62.980,333.200 63.200 C 333.200 63.420,333.462 63.600,333.782 63.600 C 334.540 63.600,337.200 66.363,337.200 67.150 C 337.200 67.361,337.425 67.608,337.700 67.700 C 338.091 67.830,338.200 72.009,338.200 86.800 C 338.200 101.591,338.091 105.770,337.700 105.900 C 337.425 105.992,337.200 106.325,337.200 106.640 C 337.200 107.372,334.514 110.000,333.766 110.000 C 333.455 110.000,333.200 110.180,333.200 110.400 C 333.200 110.620,332.750 110.800,332.200 110.800 C 331.650 110.800,331.200 110.980,331.200 111.200 C 331.200 111.466,287.333 111.600,200.400 111.600 C 113.467 111.600,69.600 111.466,69.600 111.200 C 69.600 110.980,69.150 110.800,68.600 110.800 C 68.050 110.800,67.600 110.620,67.600 110.400 C 67.600 110.180,67.353 110.000,67.050 110.000 C 66.241 110.000,63.600 107.453,63.600 106.672 C 63.600 106.302,63.420 106.000,63.200 106.000 C 62.980 106.000,62.800 105.550,62.800 105.000 C 62.800 104.450,62.620 104.000,62.400 104.000 C 62.140 104.000,62.000 98.000,62.000 86.800 C 62.000 75.600,62.140 69.600,62.400 69.600 C 62.620 69.600,62.800 69.150,62.800 68.600 C 62.800 68.050,62.980 67.600,63.200 67.600 C 63.420 67.600,63.600 67.336,63.600 67.013 C 63.600 66.691,64.236 65.791,65.013 65.013 C 65.791 64.236,66.691 63.600,67.013 63.600 C 67.336 63.600,67.600 63.420,67.600 63.200 C 67.600 62.980,68.050 62.800,68.600 62.800 C 69.150 62.800,69.600 62.620,69.600 62.400 C 69.600 62.134,113.467 62.000,200.400 62.000 C 287.333 62.000,331.200 62.134,331.200 62.400 M333.100 138.700 C 333.192 138.975,333.445 139.200,333.662 139.200 C 334.424 139.200,337.200 141.986,337.200 142.750 C 337.200 142.961,337.425 143.208,337.700 143.300 C 338.431 143.544,338.431 181.256,337.700 181.500 C 337.425 181.592,337.200 181.914,337.200 182.217 C 337.200 183.265,334.048 186.043,332.590 186.279 C 331.825 186.403,331.200 186.661,331.200 186.852 C 331.200 187.049,274.206 187.200,200.400 187.200 C 126.594 187.200,69.600 187.049,69.600 186.852 C 69.600 186.661,68.984 186.405,68.232 186.283 C 66.716 186.037,63.600 183.322,63.600 182.247 C 63.600 181.891,63.420 181.600,63.200 181.600 C 62.980 181.600,62.800 181.150,62.800 180.600 C 62.800 180.050,62.620 179.600,62.400 179.600 C 62.140 179.600,62.000 173.600,62.000 162.400 C 62.000 151.200,62.140 145.200,62.400 145.200 C 62.620 145.200,62.800 144.750,62.800 144.200 C 62.800 143.650,62.980 143.200,63.200 143.200 C 63.420 143.200,63.600 142.938,63.600 142.618 C 63.600 141.840,66.367 139.200,67.183 139.200 C 67.412 139.200,67.600 139.032,67.600 138.827 C 67.600 137.899,332.791 137.773,333.100 138.700 M333.100 214.300 C 333.192 214.575,333.439 214.800,333.649 214.800 C 334.158 214.800,337.200 217.828,337.200 218.335 C 337.200 218.554,337.425 218.808,337.700 218.900 C 338.091 219.030,338.200 223.249,338.200 238.200 C 338.200 253.151,338.091 257.370,337.700 257.500 C 337.425 257.592,337.200 257.846,337.200 258.065 C 337.200 258.963,333.939 261.660,332.588 261.879 C 331.825 262.003,331.200 262.261,331.200 262.452 C 331.200 262.649,274.206 262.800,200.400 262.800 C 126.594 262.800,69.600 262.649,69.600 262.452 C 69.600 262.261,68.974 262.003,68.208 261.879 C 67.443 261.755,66.355 261.191,65.790 260.626 C 65.226 260.062,64.595 259.600,64.389 259.600 C 64.184 259.600,63.902 259.150,63.764 258.600 C 63.626 258.050,63.353 257.600,63.157 257.600 C 62.960 257.600,62.800 257.150,62.800 256.600 C 62.800 256.050,62.620 255.600,62.400 255.600 C 62.139 255.600,62.000 249.533,62.000 238.200 C 62.000 226.867,62.139 220.800,62.400 220.800 C 62.620 220.800,62.800 220.350,62.800 219.800 C 62.800 219.250,62.960 218.800,63.157 218.800 C 63.353 218.800,63.626 218.350,63.764 217.800 C 63.902 217.250,64.184 216.800,64.389 216.800 C 64.595 216.800,65.214 216.350,65.764 215.800 C 66.314 215.250,66.952 214.800,67.182 214.800 C 67.412 214.800,67.600 214.632,67.600 214.427 C 67.600 213.499,332.791 213.373,333.100 214.300 M331.200 289.548 C 331.200 289.739,331.825 289.997,332.588 290.121 C 333.939 290.340,337.200 293.037,337.200 293.935 C 337.200 294.154,337.425 294.408,337.700 294.500 C 338.091 294.630,338.200 298.849,338.200 313.800 C 338.200 328.751,338.091 332.970,337.700 333.100 C 337.425 333.192,337.200 333.439,337.200 333.650 C 337.200 334.043,336.598 334.866,335.686 335.719 C 334.368 336.953,334.030 337.200,333.662 337.200 C 333.445 337.200,333.192 337.425,333.100 337.700 C 332.967 338.099,306.071 338.200,200.400 338.200 C 94.729 338.200,67.833 338.099,67.700 337.700 C 67.608 337.425,67.361 337.200,67.150 337.200 C 66.363 337.200,63.600 334.540,63.600 333.782 C 63.600 333.462,63.420 333.200,63.200 333.200 C 62.980 333.200,62.800 332.750,62.800 332.200 C 62.800 331.650,62.620 331.200,62.400 331.200 C 62.140 331.200,62.000 325.200,62.000 314.000 C 62.000 302.800,62.140 296.800,62.400 296.800 C 62.620 296.800,62.800 296.260,62.800 295.600 C 62.800 294.940,62.960 294.400,63.157 294.400 C 63.353 294.400,63.626 293.950,63.764 293.400 C 63.902 292.850,64.184 292.400,64.389 292.400 C 64.595 292.400,65.226 291.938,65.790 291.374 C 66.355 290.809,67.443 290.245,68.208 290.121 C 68.974 289.997,69.600 289.739,69.600 289.548 C 69.600 289.351,126.594 289.200,200.400 289.200 C 274.206 289.200,331.200 289.351,331.200 289.548 M1.300 377.091 C 2.125 377.178,3.475 377.178,4.300 377.091 C 5.125 377.005,4.450 376.934,2.800 376.934 C 1.150 376.934,0.475 377.005,1.300 377.091 M1.300 381.091 C 2.125 381.178,3.475 381.178,4.300 381.091 C 5.125 381.005,4.450 380.934,2.800 380.934 C 1.150 380.934,0.475 381.005,1.300 381.091 M8.000 384.000 C 8.000 384.220,7.550 384.400,7.000 384.400 C 6.450 384.400,6.000 384.220,6.000 384.000 C 6.000 383.780,6.450 383.600,7.000 383.600 C 7.550 383.600,8.000 383.780,8.000 384.000 M7.741 386.300 C 7.494 387.292,7.533 387.346,8.134 386.851 C 8.500 386.549,8.800 386.461,8.800 386.655 C 8.800 386.849,8.421 387.244,7.958 387.533 C 7.495 387.822,7.224 387.885,7.356 387.671 C 7.488 387.458,7.326 387.181,6.998 387.054 C 6.669 386.928,6.400 387.029,6.400 387.279 C 6.400 387.529,6.295 387.629,6.168 387.501 C 5.804 387.137,6.794 385.549,7.220 385.812 C 7.429 385.942,7.600 385.857,7.600 385.624 C 7.600 385.391,7.693 385.200,7.808 385.200 C 7.922 385.200,7.892 385.695,7.741 386.300 M394.000 386.913 C 394.000 387.563,393.897 387.613,393.404 387.204 C 393.077 386.932,392.926 386.519,393.070 386.287 C 393.233 386.023,393.080 385.960,392.666 386.119 C 392.234 386.285,392.000 386.172,392.000 385.796 C 392.000 385.324,392.184 385.301,393.000 385.673 C 393.572 385.933,394.000 386.464,394.000 386.913 M393.200 387.647 C 393.200 388.186,392.554 388.068,392.026 387.431 C 391.639 386.965,391.702 386.902,392.377 387.078 C 392.830 387.196,393.200 387.452,393.200 387.647 M390.094 390.167 C 389.564 391.014,389.677 391.545,390.339 391.313 C 390.877 391.125,390.907 391.183,390.500 391.621 C 389.585 392.607,389.878 394.000,391.000 394.000 C 391.550 394.000,392.000 393.809,392.000 393.576 C 392.000 393.343,392.178 393.263,392.395 393.397 C 392.622 393.537,392.689 393.377,392.554 393.023 C 392.423 392.683,392.127 392.521,391.896 392.664 C 391.638 392.824,391.597 392.729,391.788 392.419 C 392.022 392.041,391.862 391.988,391.150 392.207 L 390.200 392.499 391.170 391.450 C 392.345 390.178,392.536 390.140,392.184 391.250 C 391.986 391.875,392.048 392.018,392.419 391.788 C 392.729 391.597,392.824 391.638,392.664 391.896 C 392.521 392.127,392.683 392.423,393.023 392.554 C 393.377 392.689,393.537 392.622,393.397 392.395 C 393.263 392.178,393.343 392.000,393.576 392.000 C 393.809 392.000,394.000 391.550,394.000 391.000 C 394.000 389.878,392.607 389.585,391.621 390.500 C 391.184 390.906,391.124 390.881,391.303 390.367 C 391.554 389.645,390.526 389.475,390.094 390.167 M9.737 391.563 C 9.665 391.653,9.830 391.997,10.103 392.329 C 10.534 392.851,10.486 392.870,9.742 392.474 C 9.065 392.113,8.783 392.138,8.407 392.592 C 8.033 393.043,7.818 393.062,7.407 392.683 C 6.707 392.037,7.012 391.626,8.000 391.884 C 8.977 392.140,9.073 391.390,8.111 391.021 C 7.564 390.811,7.533 390.689,7.958 390.426 C 8.452 390.121,10.064 391.152,9.737 391.563 M388.000 392.849 C 388.000 393.545,387.288 393.181,387.078 392.377 C 386.902 391.702,386.965 391.639,387.431 392.026 C 387.744 392.286,388.000 392.656,388.000 392.849 M14.400 392.437 C 13.948 392.756,13.924 392.911,14.300 393.064 C 14.575 393.175,14.800 393.432,14.800 393.633 C 14.800 394.145,13.852 394.092,13.310 393.550 C 12.768 393.008,13.461 392.036,14.400 392.021 C 14.933 392.013,14.933 392.059,14.400 392.437 M386.119 392.666 C 385.960 393.080,386.023 393.233,386.287 393.070 C 386.519 392.926,386.932 393.077,387.204 393.404 C 387.613 393.897,387.563 394.000,386.913 394.000 C 386.464 394.000,385.933 393.572,385.673 393.000 C 385.301 392.184,385.324 392.000,385.796 392.000 C 386.172 392.000,386.285 392.234,386.119 392.666 " stroke="none" fill="#dce4ec" fill-rule="evenodd"></path><path id="path1" d="M16.482 2.900 C 16.652 7.085,17.748 7.085,17.918 2.900 C 18.027 0.189,17.981 0.000,17.200 0.000 C 16.419 0.000,16.373 0.189,16.482 2.900 M10.400 5.956 C 10.933 6.340,10.933 6.389,10.400 6.400 C 9.867 6.411,9.867 6.455,10.400 6.800 C 11.285 7.372,12.000 7.283,12.000 6.600 C 12.000 6.270,11.835 6.000,11.633 6.000 C 11.431 6.000,10.936 5.893,10.533 5.762 C 9.923 5.565,9.901 5.597,10.400 5.956 M388.900 5.865 C 388.625 5.976,388.400 6.332,388.400 6.657 C 388.400 7.006,388.591 7.129,388.868 6.958 C 389.180 6.765,389.253 6.884,389.088 7.314 C 388.914 7.767,389.013 7.893,389.420 7.737 C 389.739 7.614,390.000 7.084,390.000 6.557 C 390.000 5.597,389.829 5.490,388.900 5.865 M13.233 6.833 C 13.692 7.292,14.186 7.547,14.333 7.401 C 14.479 7.254,14.250 6.879,13.823 6.567 C 12.659 5.716,12.285 5.885,13.233 6.833 M386.451 6.360 C 386.149 6.551,385.971 6.912,386.054 7.163 C 386.146 7.439,386.480 7.299,386.899 6.809 C 387.618 5.970,387.404 5.756,386.451 6.360 M7.475 7.658 C 6.300 8.942,6.895 9.210,8.125 7.951 C 8.744 7.318,9.014 6.815,8.725 6.833 C 8.436 6.852,7.874 7.223,7.475 7.658 M391.875 7.058 C 391.754 7.179,391.753 7.533,391.872 7.844 C 391.992 8.155,391.850 8.723,391.557 9.105 C 391.264 9.487,391.543 9.350,392.176 8.800 C 393.012 8.074,393.261 7.986,393.084 8.480 C 392.911 8.963,393.008 9.095,393.420 8.937 C 393.739 8.814,394.000 8.453,394.000 8.134 C 394.000 7.814,393.835 7.655,393.632 7.780 C 393.430 7.905,393.001 7.744,392.680 7.423 C 392.358 7.101,391.996 6.937,391.875 7.058 M8.000 8.400 C 8.000 8.620,8.199 8.800,8.443 8.800 C 8.695 8.800,8.773 9.092,8.626 9.478 C 8.398 10.071,8.467 10.064,9.183 9.416 C 10.155 8.536,10.210 8.345,9.400 8.655 C 9.070 8.782,8.800 8.686,8.800 8.443 C 8.800 8.199,8.620 8.000,8.400 8.000 C 8.180 8.000,8.000 8.180,8.000 8.400 M5.762 10.533 C 5.893 10.936,6.000 11.431,6.000 11.633 C 6.000 11.835,6.270 12.000,6.600 12.000 C 7.283 12.000,7.372 11.285,6.800 10.400 C 6.455 9.867,6.411 9.867,6.400 10.400 C 6.389 10.933,6.340 10.933,5.956 10.400 C 5.597 9.901,5.565 9.923,5.762 10.533 M393.232 10.267 C 393.214 10.524,393.106 10.981,392.990 11.281 C 392.859 11.624,393.083 11.851,393.590 11.889 C 394.219 11.937,394.399 11.710,394.394 10.875 C 394.390 10.116,394.286 9.960,394.042 10.345 C 393.751 10.806,393.663 10.806,393.480 10.345 C 393.350 10.019,393.250 9.987,393.232 10.267 M6.000 12.724 C 6.000 13.308,7.129 14.605,7.401 14.333 C 7.547 14.186,7.292 13.692,6.833 13.233 C 6.375 12.775,6.000 12.546,6.000 12.724 M394.284 17.200 C 394.468 17.902,394.830 18.000,397.247 18.000 C 399.733 18.000,400.000 17.923,400.000 17.200 C 400.000 16.472,399.733 16.400,397.037 16.400 C 394.272 16.400,394.089 16.453,394.284 17.200 M72.100 66.690 C 71.165 66.776,70.400 67.016,70.400 67.223 C 70.400 67.430,70.130 67.600,69.800 67.600 C 69.040 67.600,67.600 69.019,67.600 69.767 C 67.600 70.078,67.375 70.408,67.100 70.500 C 66.370 70.743,66.370 102.857,67.100 103.100 C 67.375 103.192,67.600 103.520,67.600 103.829 C 67.600 104.670,68.879 106.000,69.689 106.000 C 70.080 106.000,70.400 106.180,70.400 106.400 C 70.400 106.620,70.940 106.800,71.600 106.800 C 72.260 106.800,72.800 106.980,72.800 107.200 C 72.800 107.466,115.533 107.600,200.200 107.600 C 284.867 107.600,327.600 107.466,327.600 107.200 C 327.600 106.980,328.230 106.800,329.000 106.800 C 329.770 106.800,330.400 106.620,330.400 106.400 C 330.400 106.180,330.642 106.000,330.939 106.000 C 332.074 106.000,333.202 104.500,333.455 102.653 C 333.594 101.634,333.864 100.800,334.054 100.800 C 334.244 100.800,334.400 94.680,334.400 87.200 C 334.400 79.720,334.245 73.600,334.056 73.600 C 333.867 73.600,333.605 72.568,333.475 71.306 C 333.345 70.045,333.047 68.949,332.812 68.871 C 332.578 68.793,332.132 68.475,331.821 68.164 C 331.511 67.854,331.079 67.600,330.862 67.600 C 330.645 67.600,330.392 67.375,330.300 67.100 C 330.143 66.628,77.167 66.227,72.100 66.690 M72.100 142.290 C 71.165 142.376,70.400 142.616,70.400 142.823 C 70.400 143.030,70.130 143.200,69.800 143.200 C 69.040 143.200,67.600 144.619,67.600 145.367 C 67.600 145.678,67.375 146.008,67.100 146.100 C 66.711 146.230,66.600 149.889,66.600 162.600 C 66.600 175.311,66.711 178.970,67.100 179.100 C 67.375 179.192,67.600 179.430,67.600 179.629 C 67.600 180.304,68.974 181.600,69.689 181.600 C 70.080 181.600,70.400 181.780,70.400 182.000 C 70.400 182.220,70.940 182.400,71.600 182.400 C 72.260 182.400,72.800 182.580,72.800 182.800 C 72.800 183.066,115.533 183.200,200.200 183.200 C 284.867 183.200,327.600 183.066,327.600 182.800 C 327.600 182.580,328.230 182.400,329.000 182.400 C 329.770 182.400,330.400 182.220,330.400 182.000 C 330.400 181.780,330.642 181.600,330.939 181.600 C 332.109 181.600,333.295 180.031,333.500 178.212 C 333.612 177.215,333.861 176.400,334.052 176.400 C 334.243 176.400,334.400 170.280,334.400 162.800 C 334.400 155.320,334.245 149.200,334.056 149.200 C 333.867 149.200,333.605 148.168,333.475 146.906 C 333.345 145.645,333.047 144.549,332.812 144.471 C 332.578 144.393,332.132 144.075,331.821 143.764 C 331.511 143.454,331.079 143.200,330.862 143.200 C 330.645 143.200,330.392 142.975,330.300 142.700 C 330.143 142.228,77.167 141.827,72.100 142.290 M73.600 217.944 C 73.600 218.133,72.568 218.395,71.306 218.525 C 70.045 218.655,68.949 218.953,68.871 219.188 C 68.793 219.422,68.475 219.868,68.164 220.179 C 67.854 220.489,67.600 220.921,67.600 221.138 C 67.600 221.355,67.375 221.608,67.100 221.700 C 66.711 221.830,66.600 225.489,66.600 238.200 C 66.600 250.911,66.711 254.570,67.100 254.700 C 67.375 254.792,67.600 255.122,67.600 255.433 C 67.600 255.745,67.768 256.000,67.973 256.000 C 68.178 256.000,68.459 256.355,68.597 256.789 C 68.784 257.380,69.345 257.645,70.824 257.841 C 71.911 257.985,72.800 258.260,72.800 258.452 C 72.800 258.649,128.093 258.800,200.200 258.800 C 272.170 258.800,327.600 258.649,327.600 258.452 C 327.600 258.261,328.394 258.015,329.365 257.905 C 331.743 257.637,333.237 256.143,333.505 253.765 C 333.615 252.794,333.861 252.000,334.052 252.000 C 334.243 252.000,334.400 245.880,334.400 238.400 C 334.400 230.920,334.243 224.800,334.051 224.800 C 333.859 224.800,333.617 223.920,333.514 222.845 C 333.256 220.165,331.835 218.744,329.155 218.486 C 328.080 218.383,327.200 218.141,327.200 217.949 C 327.200 217.751,272.344 217.600,200.400 217.600 C 129.883 217.600,73.600 217.753,73.600 217.944 M73.600 293.544 C 73.600 293.733,72.568 293.995,71.306 294.125 C 70.045 294.255,68.949 294.553,68.871 294.788 C 68.793 295.022,68.475 295.468,68.164 295.779 C 67.854 296.089,67.600 296.521,67.600 296.738 C 67.600 296.955,67.375 297.208,67.100 297.300 C 66.711 297.430,66.600 301.089,66.600 313.800 C 66.600 326.511,66.711 330.170,67.100 330.300 C 67.375 330.392,67.600 330.722,67.600 331.033 C 67.600 331.345,67.768 331.600,67.973 331.600 C 68.178 331.600,68.459 331.955,68.597 332.389 C 68.784 332.980,69.345 333.245,70.824 333.441 C 71.911 333.585,72.800 333.860,72.800 334.052 C 72.800 334.249,128.093 334.400,200.200 334.400 C 272.170 334.400,327.600 334.249,327.600 334.052 C 327.600 333.861,328.394 333.615,329.365 333.505 C 331.743 333.237,333.237 331.743,333.505 329.365 C 333.615 328.394,333.861 327.600,334.052 327.600 C 334.243 327.600,334.400 321.570,334.400 314.200 C 334.400 306.796,334.243 300.800,334.050 300.800 C 333.857 300.800,333.619 299.834,333.521 298.653 C 333.282 295.769,331.928 294.353,329.155 294.086 C 328.080 293.983,327.200 293.741,327.200 293.549 C 327.200 293.351,272.344 293.200,200.400 293.200 C 129.883 293.200,73.600 293.353,73.600 293.544 M0.000 383.000 C 0.000 383.480,0.600 383.600,3.000 383.600 C 5.019 383.600,6.000 383.753,6.000 384.067 C 6.000 384.323,6.083 384.450,6.184 384.349 C 6.285 384.248,6.264 383.768,6.137 383.283 C 5.843 382.158,0.000 381.889,0.000 383.000 M6.233 386.657 C 5.877 387.586,6.082 387.611,6.970 386.748 C 7.607 386.129,7.631 386.000,7.113 386.000 C 6.768 386.000,6.372 386.296,6.233 386.657 M5.843 389.033 C 5.486 389.963,5.513 390.000,6.557 390.000 C 7.084 390.000,7.614 389.739,7.737 389.420 C 7.893 389.013,7.767 388.914,7.314 389.088 C 6.884 389.253,6.765 389.180,6.958 388.868 C 7.128 388.593,7.008 388.400,6.666 388.400 C 6.347 388.400,5.976 388.685,5.843 389.033 M393.443 389.033 C 393.100 389.927,393.127 390.000,393.800 390.000 C 394.133 390.000,394.400 389.644,394.400 389.200 C 394.400 388.246,393.786 388.139,393.443 389.033 M8.988 391.619 C 8.846 391.850,8.430 392.009,8.065 391.973 C 6.873 391.856,6.733 391.990,7.375 392.632 C 7.723 392.980,7.905 393.430,7.780 393.632 C 7.655 393.835,7.814 394.000,8.134 394.000 C 8.453 394.000,8.814 393.739,8.937 393.420 C 9.095 393.008,8.963 392.911,8.480 393.084 C 7.987 393.261,8.067 393.036,8.770 392.264 C 9.303 391.679,9.629 391.200,9.493 391.200 C 9.358 391.200,9.131 391.389,8.988 391.619 M391.949 392.277 C 391.494 392.837,391.493 392.897,391.943 392.627 C 392.363 392.374,392.425 392.514,392.217 393.250 C 392.036 393.888,392.069 394.025,392.319 393.666 C 392.523 393.372,392.804 393.147,392.945 393.166 C 393.085 393.185,393.185 393.085,393.166 392.945 C 393.147 392.804,393.372 392.523,393.666 392.319 C 394.025 392.069,393.888 392.036,393.250 392.217 C 392.604 392.400,392.387 392.344,392.574 392.043 C 392.997 391.357,392.563 391.520,391.949 392.277 M10.600 393.200 C 10.061 393.432,9.996 393.555,10.400 393.578 C 10.933 393.608,10.933 393.655,10.400 394.000 C 9.931 394.303,10.034 394.389,10.875 394.394 C 11.705 394.399,11.937 394.218,11.890 393.600 C 11.824 392.720,11.762 392.701,10.600 393.200 M388.900 393.465 C 388.116 393.781,388.315 394.400,389.200 394.400 C 389.644 394.400,390.000 394.133,390.000 393.800 C 390.000 393.184,389.770 393.114,388.900 393.465 M382.580 394.353 C 382.050 394.884,382.430 400.000,383.000 400.000 C 383.476 400.000,383.600 399.426,383.600 397.233 C 383.600 395.389,383.767 394.402,384.100 394.274 C 384.375 394.168,384.186 394.102,383.680 394.127 C 383.174 394.153,382.679 394.254,382.580 394.353 " stroke="none" fill="#949cac" fill-rule="evenodd"></path><path id="path2" d="M17.925 3.100 C 17.849 4.805,17.797 6.238,17.811 6.284 C 17.824 6.330,18.232 6.264,18.717 6.137 C 19.539 5.923,19.595 5.695,19.528 2.853 L 19.456 -0.200 19.200 2.800 L 18.944 5.800 18.872 2.900 C 18.776 -0.958,18.100 -0.815,17.925 3.100 M20.134 2.800 C 20.134 4.450,20.205 5.125,20.291 4.300 C 20.378 3.475,20.378 2.125,20.291 1.300 C 20.205 0.475,20.134 1.150,20.134 2.800 M22.482 2.868 C 22.652 7.005,23.600 7.145,23.600 3.033 C 23.600 0.565,23.485 0.000,22.982 0.000 C 22.472 0.000,22.385 0.498,22.482 2.868 M24.134 2.800 C 24.134 4.450,24.205 5.125,24.291 4.300 C 24.378 3.475,24.378 2.125,24.291 1.300 C 24.205 0.475,24.134 1.150,24.134 2.800 M24.934 2.800 C 24.934 4.450,25.005 5.125,25.091 4.300 C 25.178 3.475,25.178 2.125,25.091 1.300 C 25.005 0.475,24.934 1.150,24.934 2.800 M372.134 2.800 C 372.134 4.450,372.205 5.125,372.291 4.300 C 372.378 3.475,372.378 2.125,372.291 1.300 C 372.205 0.475,372.134 1.150,372.134 2.800 M383.400 6.800 C 383.108 7.272,383.487 8.000,384.024 8.000 C 384.231 8.000,384.400 7.640,384.400 7.200 C 384.400 6.356,383.818 6.124,383.400 6.800 M386.650 7.120 C 386.483 7.390,386.559 7.600,386.825 7.600 C 387.178 7.600,387.171 7.753,386.800 8.200 C 386.526 8.530,386.461 8.800,386.655 8.800 C 386.849 8.800,387.244 8.421,387.533 7.958 C 387.822 7.495,387.881 7.226,387.664 7.361 C 387.446 7.495,387.196 7.388,387.107 7.122 C 386.982 6.747,386.880 6.747,386.650 7.120 M12.806 8.149 C 12.801 8.759,12.692 8.808,12.217 8.414 C 11.636 7.932,9.700 8.766,10.212 9.279 C 10.326 9.393,10.145 9.714,9.810 9.992 C 9.474 10.270,9.200 10.346,9.200 10.160 C 9.200 9.974,8.914 10.230,8.565 10.728 C 8.062 11.446,8.031 11.755,8.414 12.217 C 8.808 12.692,8.759 12.801,8.149 12.806 C 7.526 12.811,7.500 12.876,7.994 13.188 C 8.414 13.454,8.697 13.370,8.958 12.903 C 9.204 12.463,9.173 12.191,8.864 12.088 C 8.609 12.003,8.400 11.758,8.400 11.543 C 8.400 11.328,8.595 11.273,8.833 11.420 C 9.405 11.774,11.677 9.577,11.423 8.915 C 11.314 8.632,11.384 8.400,11.579 8.400 C 11.774 8.400,12.003 8.609,12.088 8.864 C 12.191 9.173,12.463 9.204,12.903 8.958 C 13.370 8.697,13.454 8.414,13.188 7.994 C 12.876 7.500,12.811 7.526,12.806 8.149 M389.200 7.987 C 389.200 8.201,388.948 8.278,388.640 8.160 C 388.333 8.042,387.955 8.150,387.800 8.399 C 387.639 8.660,387.750 8.822,388.060 8.779 C 389.063 8.642,389.648 8.798,389.433 9.147 C 389.161 9.587,390.573 10.894,390.932 10.534 C 391.080 10.387,391.200 10.462,391.200 10.700 C 391.200 10.938,390.975 11.209,390.700 11.302 C 390.425 11.394,390.782 11.487,391.493 11.508 C 392.204 11.529,392.902 11.359,393.043 11.130 C 393.210 10.861,392.983 10.815,392.400 11.000 C 391.787 11.195,391.587 11.145,391.774 10.843 C 391.924 10.599,391.846 10.400,391.600 10.400 C 391.354 10.400,391.269 10.211,391.412 9.981 C 391.589 9.694,391.850 9.709,392.236 10.030 C 393.246 10.869,392.830 10.060,391.722 9.032 C 390.847 8.221,390.530 8.124,390.047 8.516 C 389.553 8.917,389.495 8.880,389.713 8.300 C 389.857 7.915,389.801 7.600,389.587 7.600 C 389.374 7.600,389.200 7.774,389.200 7.987 M391.107 9.905 C 390.794 10.287,390.560 10.298,390.142 9.952 C 389.734 9.613,389.705 9.356,390.030 8.964 C 390.375 8.548,390.584 8.538,390.995 8.917 C 391.363 9.256,391.397 9.551,391.107 9.905 M10.399 10.202 C 9.883 10.751,9.323 11.200,9.156 11.200 C 8.988 11.200,9.335 10.699,9.926 10.088 C 10.516 9.476,11.076 9.026,11.168 9.089 C 11.261 9.152,10.914 9.652,10.399 10.202 M392.947 13.100 C 393.136 13.415,393.016 13.600,392.624 13.600 C 392.281 13.600,392.000 13.883,392.000 14.229 C 392.000 14.800,392.057 14.800,392.629 14.229 C 393.421 13.436,393.753 13.425,393.455 14.200 C 393.329 14.530,393.399 14.800,393.613 14.800 C 394.241 14.800,394.056 13.743,393.323 13.149 C 392.863 12.776,392.743 12.760,392.947 13.100 M6.543 17.000 C 6.873 17.330,7.216 17.600,7.305 17.600 C 7.394 17.600,7.467 17.330,7.467 17.000 C 7.467 16.670,7.124 16.400,6.705 16.400 C 6.028 16.400,6.010 16.467,6.543 17.000 M393.443 16.967 C 393.576 17.315,393.861 17.600,394.076 17.600 C 394.602 17.600,394.273 16.691,393.675 16.492 C 393.382 16.394,393.293 16.577,393.443 16.967 M394.200 18.400 C 394.044 18.653,395.063 18.800,396.976 18.800 C 398.725 18.800,400.000 18.631,400.000 18.400 C 400.000 18.172,398.808 18.000,397.224 18.000 C 395.697 18.000,394.336 18.180,394.200 18.400 M395.700 19.491 C 396.525 19.578,397.875 19.578,398.700 19.491 C 399.525 19.405,398.850 19.334,397.200 19.334 C 395.550 19.334,394.875 19.405,395.700 19.491 M395.700 20.291 C 396.525 20.378,397.875 20.378,398.700 20.291 C 399.525 20.205,398.850 20.134,397.200 20.134 C 395.550 20.134,394.875 20.205,395.700 20.291 M394.400 23.000 C 394.400 23.476,394.978 23.600,397.200 23.600 C 399.422 23.600,400.000 23.476,400.000 23.000 C 400.000 22.524,399.422 22.400,397.200 22.400 C 394.978 22.400,394.400 22.524,394.400 23.000 M395.700 24.291 C 396.525 24.378,397.875 24.378,398.700 24.291 C 399.525 24.205,398.850 24.134,397.200 24.134 C 395.550 24.134,394.875 24.205,395.700 24.291 M395.700 25.091 C 396.525 25.178,397.875 25.178,398.700 25.091 C 399.525 25.005,398.850 24.934,397.200 24.934 C 395.550 24.934,394.875 25.005,395.700 25.091 M1.300 27.891 C 2.125 27.978,3.475 27.978,4.300 27.891 C 5.125 27.805,4.450 27.734,2.800 27.734 C 1.150 27.734,0.475 27.805,1.300 27.891 M69.600 62.400 C 69.600 62.620,69.150 62.800,68.600 62.800 C 68.050 62.800,67.600 62.980,67.600 63.200 C 67.600 63.420,67.336 63.600,67.013 63.600 C 66.691 63.600,65.791 64.236,65.013 65.013 C 64.236 65.791,63.600 66.691,63.600 67.013 C 63.600 67.336,63.420 67.600,63.200 67.600 C 62.980 67.600,62.800 68.050,62.800 68.600 C 62.800 69.150,62.620 69.600,62.400 69.600 C 62.140 69.600,62.000 75.600,62.000 86.800 C 62.000 98.000,62.140 104.000,62.400 104.000 C 62.620 104.000,62.800 104.450,62.800 105.000 C 62.800 105.550,62.980 106.000,63.200 106.000 C 63.420 106.000,63.600 106.302,63.600 106.672 C 63.600 107.453,66.241 110.000,67.050 110.000 C 67.353 110.000,67.600 110.180,67.600 110.400 C 67.600 110.620,68.050 110.800,68.600 110.800 C 69.150 110.800,69.600 110.980,69.600 111.200 C 69.600 111.466,113.467 111.600,200.400 111.600 C 287.333 111.600,331.200 111.466,331.200 111.200 C 331.200 110.980,331.650 110.800,332.200 110.800 C 332.750 110.800,333.200 110.620,333.200 110.400 C 333.200 110.180,333.455 110.000,333.766 110.000 C 334.514 110.000,337.200 107.372,337.200 106.640 C 337.200 106.325,337.425 105.992,337.700 105.900 C 338.091 105.770,338.200 101.591,338.200 86.800 C 338.200 72.009,338.091 67.830,337.700 67.700 C 337.425 67.608,337.200 67.361,337.200 67.150 C 337.200 66.363,334.540 63.600,333.782 63.600 C 333.462 63.600,333.200 63.420,333.200 63.200 C 333.200 62.980,332.750 62.800,332.200 62.800 C 331.650 62.800,331.200 62.620,331.200 62.400 C 331.200 62.134,287.333 62.000,200.400 62.000 C 113.467 62.000,69.600 62.134,69.600 62.400 M330.300 67.100 C 330.392 67.375,330.645 67.600,330.862 67.600 C 331.079 67.600,331.511 67.854,331.821 68.164 C 332.132 68.475,332.578 68.793,332.812 68.871 C 333.047 68.949,333.345 70.045,333.475 71.306 C 333.605 72.568,333.867 73.600,334.056 73.600 C 334.245 73.600,334.400 79.720,334.400 87.200 C 334.400 94.680,334.244 100.800,334.054 100.800 C 333.864 100.800,333.594 101.634,333.455 102.653 C 333.202 104.500,332.074 106.000,330.939 106.000 C 330.642 106.000,330.400 106.180,330.400 106.400 C 330.400 106.620,329.770 106.800,329.000 106.800 C 328.230 106.800,327.600 106.980,327.600 107.200 C 327.600 107.466,284.867 107.600,200.200 107.600 C 115.533 107.600,72.800 107.466,72.800 107.200 C 72.800 106.980,72.260 106.800,71.600 106.800 C 70.940 106.800,70.400 106.620,70.400 106.400 C 70.400 106.180,70.080 106.000,69.689 106.000 C 68.879 106.000,67.600 104.670,67.600 103.829 C 67.600 103.520,67.375 103.192,67.100 103.100 C 66.370 102.857,66.370 70.743,67.100 70.500 C 67.375 70.408,67.600 70.078,67.600 69.767 C 67.600 69.019,69.040 67.600,69.800 67.600 C 70.130 67.600,70.400 67.430,70.400 67.223 C 70.400 66.312,329.996 66.189,330.300 67.100 M68.700 138.285 C 68.095 138.377,67.600 138.621,67.600 138.827 C 67.600 139.032,67.412 139.200,67.183 139.200 C 66.367 139.200,63.600 141.840,63.600 142.618 C 63.600 142.938,63.420 143.200,63.200 143.200 C 62.980 143.200,62.800 143.650,62.800 144.200 C 62.800 144.750,62.620 145.200,62.400 145.200 C 62.140 145.200,62.000 151.200,62.000 162.400 C 62.000 173.600,62.140 179.600,62.400 179.600 C 62.620 179.600,62.800 180.050,62.800 180.600 C 62.800 181.150,62.980 181.600,63.200 181.600 C 63.420 181.600,63.600 181.891,63.600 182.247 C 63.600 183.322,66.716 186.037,68.232 186.283 C 68.984 186.405,69.600 186.661,69.600 186.852 C 69.600 187.049,126.594 187.200,200.400 187.200 C 274.206 187.200,331.200 187.049,331.200 186.852 C 331.200 186.661,331.825 186.403,332.590 186.279 C 334.048 186.043,337.200 183.265,337.200 182.217 C 337.200 181.914,337.425 181.592,337.700 181.500 C 338.431 181.256,338.431 143.544,337.700 143.300 C 337.425 143.208,337.200 142.961,337.200 142.750 C 337.200 142.357,336.598 141.534,335.686 140.681 C 334.368 139.447,334.030 139.200,333.662 139.200 C 333.445 139.200,333.192 138.975,333.100 138.700 C 332.940 138.221,71.802 137.811,68.700 138.285 M330.300 142.700 C 330.392 142.975,330.645 143.200,330.862 143.200 C 331.079 143.200,331.511 143.454,331.821 143.764 C 332.132 144.075,332.578 144.393,332.812 144.471 C 333.047 144.549,333.345 145.645,333.475 146.906 C 333.605 148.168,333.867 149.200,334.056 149.200 C 334.245 149.200,334.400 155.320,334.400 162.800 C 334.400 170.280,334.243 176.400,334.052 176.400 C 333.861 176.400,333.612 177.215,333.500 178.212 C 333.295 180.031,332.109 181.600,330.939 181.600 C 330.642 181.600,330.400 181.780,330.400 182.000 C 330.400 182.220,329.770 182.400,329.000 182.400 C 328.230 182.400,327.600 182.580,327.600 182.800 C 327.600 183.066,284.867 183.200,200.200 183.200 C 115.533 183.200,72.800 183.066,72.800 182.800 C 72.800 182.580,72.260 182.400,71.600 182.400 C 70.940 182.400,70.400 182.220,70.400 182.000 C 70.400 181.780,70.080 181.600,69.689 181.600 C 68.974 181.600,67.600 180.304,67.600 179.629 C 67.600 179.430,67.375 179.192,67.100 179.100 C 66.711 178.970,66.600 175.311,66.600 162.600 C 66.600 149.889,66.711 146.230,67.100 146.100 C 67.375 146.008,67.600 145.678,67.600 145.367 C 67.600 144.619,69.040 143.200,69.800 143.200 C 70.130 143.200,70.400 143.030,70.400 142.823 C 70.400 141.912,329.996 141.789,330.300 142.700 M68.700 213.885 C 68.095 213.977,67.600 214.221,67.600 214.427 C 67.600 214.632,67.412 214.800,67.182 214.800 C 66.952 214.800,66.314 215.250,65.764 215.800 C 65.214 216.350,64.595 216.800,64.389 216.800 C 64.184 216.800,63.902 217.250,63.764 217.800 C 63.626 218.350,63.353 218.800,63.157 218.800 C 62.960 218.800,62.800 219.250,62.800 219.800 C 62.800 220.350,62.620 220.800,62.400 220.800 C 62.139 220.800,62.000 226.867,62.000 238.200 C 62.000 249.533,62.139 255.600,62.400 255.600 C 62.620 255.600,62.800 256.050,62.800 256.600 C 62.800 257.150,62.960 257.600,63.157 257.600 C 63.353 257.600,63.626 258.050,63.764 258.600 C 63.902 259.150,64.184 259.600,64.389 259.600 C 64.595 259.600,65.226 260.062,65.790 260.626 C 66.355 261.191,67.443 261.755,68.208 261.879 C 68.974 262.003,69.600 262.261,69.600 262.452 C 69.600 262.649,126.594 262.800,200.400 262.800 C 274.206 262.800,331.200 262.649,331.200 262.452 C 331.200 262.261,331.825 262.003,332.588 261.879 C 333.939 261.660,337.200 258.963,337.200 258.065 C 337.200 257.846,337.425 257.592,337.700 257.500 C 338.091 257.370,338.200 253.151,338.200 238.200 C 338.200 223.249,338.091 219.030,337.700 218.900 C 337.425 218.808,337.200 218.554,337.200 218.335 C 337.200 217.828,334.158 214.800,333.649 214.800 C 333.439 214.800,333.192 214.575,333.100 214.300 C 332.940 213.821,71.802 213.411,68.700 213.885 M327.200 217.949 C 327.200 218.141,328.080 218.383,329.155 218.486 C 331.835 218.744,333.256 220.165,333.514 222.845 C 333.617 223.920,333.859 224.800,334.051 224.800 C 334.243 224.800,334.400 230.920,334.400 238.400 C 334.400 245.880,334.243 252.000,334.052 252.000 C 333.861 252.000,333.615 252.794,333.505 253.765 C 333.237 256.143,331.743 257.637,329.365 257.905 C 328.394 258.015,327.600 258.261,327.600 258.452 C 327.600 258.649,272.170 258.800,200.200 258.800 C 128.093 258.800,72.800 258.649,72.800 258.452 C 72.800 258.260,71.911 257.985,70.824 257.841 C 69.345 257.645,68.784 257.380,68.597 256.789 C 68.459 256.355,68.178 256.000,67.973 256.000 C 67.768 256.000,67.600 255.745,67.600 255.433 C 67.600 255.122,67.375 254.792,67.100 254.700 C 66.711 254.570,66.600 250.911,66.600 238.200 C 66.600 225.489,66.711 221.830,67.100 221.700 C 67.375 221.608,67.600 221.355,67.600 221.138 C 67.600 220.921,67.854 220.489,68.164 220.179 C 68.475 219.868,68.793 219.422,68.871 219.188 C 68.949 218.953,70.045 218.655,71.306 218.525 C 72.568 218.395,73.600 218.133,73.600 217.944 C 73.600 217.753,129.883 217.600,200.400 217.600 C 272.344 217.600,327.200 217.751,327.200 217.949 M69.600 289.548 C 69.600 289.739,68.974 289.997,68.208 290.121 C 67.443 290.245,66.355 290.809,65.790 291.374 C 65.226 291.938,64.595 292.400,64.389 292.400 C 64.184 292.400,63.902 292.850,63.764 293.400 C 63.626 293.950,63.353 294.400,63.157 294.400 C 62.960 294.400,62.800 294.940,62.800 295.600 C 62.800 296.260,62.620 296.800,62.400 296.800 C 62.140 296.800,62.000 302.800,62.000 314.000 C 62.000 325.200,62.140 331.200,62.400 331.200 C 62.620 331.200,62.800 331.650,62.800 332.200 C 62.800 332.750,62.980 333.200,63.200 333.200 C 63.420 333.200,63.600 333.462,63.600 333.782 C 63.600 334.540,66.363 337.200,67.150 337.200 C 67.361 337.200,67.608 337.425,67.700 337.700 C 67.945 338.436,332.855 338.436,333.100 337.700 C 333.192 337.425,333.445 337.200,333.662 337.200 C 334.424 337.200,337.200 334.414,337.200 333.650 C 337.200 333.439,337.425 333.192,337.700 333.100 C 338.091 332.970,338.200 328.751,338.200 313.800 C 338.200 298.849,338.091 294.630,337.700 294.500 C 337.425 294.408,337.200 294.154,337.200 293.935 C 337.200 293.037,333.939 290.340,332.588 290.121 C 331.825 289.997,331.200 289.739,331.200 289.548 C 331.200 289.351,274.206 289.200,200.400 289.200 C 126.594 289.200,69.600 289.351,69.600 289.548 M327.200 293.549 C 327.200 293.741,328.080 293.983,329.155 294.086 C 331.928 294.353,333.282 295.769,333.521 298.653 C 333.619 299.834,333.857 300.800,334.050 300.800 C 334.243 300.800,334.400 306.796,334.400 314.200 C 334.400 321.570,334.243 327.600,334.052 327.600 C 333.861 327.600,333.615 328.394,333.505 329.365 C 333.237 331.743,331.743 333.237,329.365 333.505 C 328.394 333.615,327.600 333.861,327.600 334.052 C 327.600 334.249,272.170 334.400,200.200 334.400 C 128.093 334.400,72.800 334.249,72.800 334.052 C 72.800 333.860,71.911 333.585,70.824 333.441 C 69.345 333.245,68.784 332.980,68.597 332.389 C 68.459 331.955,68.178 331.600,67.973 331.600 C 67.768 331.600,67.600 331.345,67.600 331.033 C 67.600 330.722,67.375 330.392,67.100 330.300 C 66.711 330.170,66.600 326.511,66.600 313.800 C 66.600 301.089,66.711 297.430,67.100 297.300 C 67.375 297.208,67.600 296.955,67.600 296.738 C 67.600 296.521,67.854 296.089,68.164 295.779 C 68.475 295.468,68.793 295.022,68.871 294.788 C 68.949 294.553,70.045 294.255,71.306 294.125 C 72.568 293.995,73.600 293.733,73.600 293.544 C 73.600 293.353,129.883 293.200,200.400 293.200 C 272.344 293.200,327.200 293.351,327.200 293.549 M395.700 372.291 C 396.525 372.378,397.875 372.378,398.700 372.291 C 399.525 372.205,398.850 372.134,397.200 372.134 C 395.550 372.134,394.875 372.205,395.700 372.291 M1.300 375.091 C 2.125 375.178,3.475 375.178,4.300 375.091 C 5.125 375.005,4.450 374.934,2.800 374.934 C 1.150 374.934,0.475 375.005,1.300 375.091 M1.300 375.891 C 2.125 375.978,3.475 375.978,4.300 375.891 C 5.125 375.805,4.450 375.734,2.800 375.734 C 1.150 375.734,0.475 375.805,1.300 375.891 M2.800 376.790 L 5.800 377.056 2.900 377.128 C -1.290 377.232,-1.241 378.282,2.963 378.468 C 5.916 378.600,5.926 378.596,5.820 377.600 C 5.717 376.637,5.604 376.599,2.757 376.562 L -0.200 376.525 2.800 376.790 M1.300 379.891 C 2.125 379.978,3.475 379.978,4.300 379.891 C 5.125 379.805,4.450 379.734,2.800 379.734 C 1.150 379.734,0.475 379.805,1.300 379.891 M2.800 380.800 L 5.800 381.056 2.900 381.128 C -1.389 381.235,-1.328 382.400,2.967 382.400 C 4.966 382.400,5.999 382.563,6.135 382.900 C 6.281 383.261,6.346 383.267,6.368 382.924 C 6.386 382.662,6.237 382.346,6.038 382.223 C 5.838 382.100,5.769 381.639,5.884 381.200 C 6.081 380.446,5.913 380.404,2.947 380.472 L -0.200 380.544 2.800 380.800 M6.400 384.000 C 6.400 384.220,6.760 384.400,7.200 384.400 C 7.640 384.400,8.000 384.220,8.000 384.000 C 8.000 383.780,7.640 383.600,7.200 383.600 C 6.760 383.600,6.400 383.780,6.400 384.000 M392.400 384.000 C 392.400 384.220,392.760 384.400,393.200 384.400 C 393.640 384.400,394.000 384.220,394.000 384.000 C 394.000 383.780,393.640 383.600,393.200 383.600 C 392.760 383.600,392.400 383.780,392.400 384.000 M393.600 386.357 C 393.600 386.627,393.392 386.719,393.138 386.562 C 392.832 386.373,392.786 386.454,393.001 386.801 C 393.247 387.199,393.092 387.267,392.363 387.083 C 391.448 386.852,391.439 386.869,392.167 387.413 C 392.938 387.989,394.502 386.769,393.841 386.107 C 393.708 385.975,393.600 386.087,393.600 386.357 M7.050 386.720 C 6.886 386.984,6.954 387.200,7.200 387.200 C 7.446 387.200,7.528 387.393,7.382 387.630 C 7.236 387.866,7.495 387.822,7.958 387.533 C 8.421 387.244,8.800 386.849,8.800 386.655 C 8.800 386.461,8.548 386.512,8.239 386.768 C 7.809 387.124,7.639 387.117,7.512 386.736 C 7.384 386.353,7.278 386.350,7.050 386.720 M8.200 388.000 C 8.064 388.220,8.064 388.580,8.200 388.800 C 8.336 389.020,8.257 389.200,8.024 389.200 C 7.791 389.200,7.600 389.374,7.600 389.587 C 7.600 389.801,7.915 389.857,8.300 389.713 C 8.880 389.495,8.917 389.553,8.516 390.047 C 8.124 390.530,8.221 390.847,9.032 391.722 C 10.060 392.830,10.869 393.246,10.030 392.236 C 9.709 391.850,9.694 391.589,9.981 391.412 C 10.211 391.269,10.400 391.354,10.400 391.600 C 10.400 391.846,10.599 391.924,10.843 391.774 C 11.145 391.587,11.195 391.787,11.000 392.400 C 10.815 392.983,10.861 393.210,11.130 393.043 C 11.359 392.902,11.529 392.204,11.508 391.493 C 11.487 390.782,11.394 390.425,11.302 390.700 C 11.209 390.975,10.938 391.200,10.700 391.200 C 10.462 391.200,10.387 391.080,10.534 390.932 C 10.894 390.573,9.587 389.161,9.147 389.433 C 8.805 389.644,8.644 389.074,8.770 388.100 C 8.848 387.499,8.543 387.446,8.200 388.000 M391.619 389.186 C 391.300 389.385,390.919 389.473,390.773 389.383 C 390.626 389.293,390.185 389.575,389.791 390.009 C 389.398 390.444,389.200 390.800,389.352 390.800 C 389.504 390.800,389.435 391.160,389.200 391.600 C 388.727 392.483,389.694 392.819,390.226 391.957 C 390.423 391.639,390.582 391.647,390.792 391.987 C 391.003 392.329,391.280 392.263,391.795 391.747 C 392.272 391.271,392.352 390.984,392.037 390.879 C 391.685 390.762,391.681 390.585,392.021 390.175 C 392.643 389.426,392.358 388.727,391.619 389.186 M9.970 391.036 C 9.625 391.452,9.416 391.462,9.005 391.083 C 8.253 390.391,9.073 389.397,9.858 390.048 C 10.266 390.387,10.295 390.644,9.970 391.036 M391.500 390.617 C 391.500 391.268,391.262 391.500,390.593 391.500 C 390.094 391.500,389.716 391.298,389.754 391.050 C 389.978 389.582,391.500 389.204,391.500 390.617 M387.083 392.363 C 387.267 393.092,387.199 393.247,386.801 393.001 C 386.454 392.786,386.373 392.832,386.562 393.138 C 386.719 393.392,386.627 393.600,386.357 393.600 C 386.087 393.600,385.975 393.708,386.107 393.841 C 386.769 394.502,387.989 392.938,387.413 392.167 C 386.869 391.439,386.852 391.448,387.083 392.363 M13.600 392.624 C 13.600 393.016,13.415 393.136,13.100 392.947 C 12.760 392.743,12.776 392.863,13.149 393.323 C 13.743 394.056,14.800 394.241,14.800 393.613 C 14.800 393.399,14.530 393.329,14.200 393.455 C 13.425 393.753,13.436 393.421,14.229 392.629 C 14.800 392.057,14.800 392.000,14.229 392.000 C 13.883 392.000,13.600 392.281,13.600 392.624 M383.600 392.824 C 383.600 393.057,383.416 393.133,383.190 392.994 C 382.965 392.855,382.830 392.972,382.890 393.256 C 382.951 393.539,382.595 393.955,382.100 394.180 C 380.965 394.696,380.692 400.000,381.800 400.000 C 382.275 400.000,382.400 399.431,382.400 397.280 C 382.400 394.529,382.843 393.488,383.849 393.874 C 384.210 394.013,384.400 393.794,384.400 393.243 C 384.400 392.779,384.220 392.400,384.000 392.400 C 383.780 392.400,383.600 392.591,383.600 392.824 M27.734 397.200 C 27.734 398.850,27.805 399.525,27.891 398.700 C 27.978 397.875,27.978 396.525,27.891 395.700 C 27.805 394.875,27.734 395.550,27.734 397.200 M375.734 397.200 C 375.734 398.850,375.805 399.525,375.891 398.700 C 375.978 397.875,375.978 396.525,375.891 395.700 C 375.805 394.875,375.734 395.550,375.734 397.200 M376.534 397.200 C 376.534 398.850,376.605 399.525,376.691 398.700 C 376.778 397.875,376.778 396.525,376.691 395.700 C 376.605 394.875,376.534 395.550,376.534 397.200 M377.200 397.200 C 377.200 399.422,377.324 400.000,377.800 400.000 C 378.276 400.000,378.400 399.422,378.400 397.200 C 378.400 394.978,378.276 394.400,377.800 394.400 C 377.324 394.400,377.200 394.978,377.200 397.200 M379.734 397.200 C 379.734 398.850,379.805 399.525,379.891 398.700 C 379.978 397.875,379.978 396.525,379.891 395.700 C 379.805 394.875,379.734 395.550,379.734 397.200 M380.534 397.200 C 380.534 398.850,380.605 399.525,380.691 398.700 C 380.778 397.875,380.778 396.525,380.691 395.700 C 380.605 394.875,380.534 395.550,380.534 397.200 " stroke="none" fill="#c8e8cc" fill-rule="evenodd"></path><path id="path3" d="M17.925 3.100 C 17.849 4.805,17.797 6.238,17.811 6.284 C 17.824 6.330,18.232 6.264,18.717 6.137 C 19.539 5.923,19.595 5.695,19.528 2.853 L 19.456 -0.200 19.200 2.800 L 18.944 5.800 18.872 2.900 C 18.776 -0.958,18.100 -0.815,17.925 3.100 M20.134 2.800 C 20.134 4.450,20.205 5.125,20.291 4.300 C 20.378 3.475,20.378 2.125,20.291 1.300 C 20.205 0.475,20.134 1.150,20.134 2.800 M22.482 2.868 C 22.652 7.005,23.600 7.145,23.600 3.033 C 23.600 0.565,23.485 0.000,22.982 0.000 C 22.472 0.000,22.385 0.498,22.482 2.868 M24.134 2.800 C 24.134 4.450,24.205 5.125,24.291 4.300 C 24.378 3.475,24.378 2.125,24.291 1.300 C 24.205 0.475,24.134 1.150,24.134 2.800 M24.934 2.800 C 24.934 4.450,25.005 5.125,25.091 4.300 C 25.178 3.475,25.178 2.125,25.091 1.300 C 25.005 0.475,24.934 1.150,24.934 2.800 M372.134 2.800 C 372.134 4.450,372.205 5.125,372.291 4.300 C 372.378 3.475,372.378 2.125,372.291 1.300 C 372.205 0.475,372.134 1.150,372.134 2.800 M383.400 6.800 C 383.108 7.272,383.487 8.000,384.024 8.000 C 384.231 8.000,384.400 7.640,384.400 7.200 C 384.400 6.356,383.818 6.124,383.400 6.800 M386.650 7.120 C 386.483 7.390,386.559 7.600,386.825 7.600 C 387.178 7.600,387.171 7.753,386.800 8.200 C 386.526 8.530,386.461 8.800,386.655 8.800 C 386.849 8.800,387.244 8.421,387.533 7.958 C 387.822 7.495,387.881 7.226,387.664 7.361 C 387.446 7.495,387.196 7.388,387.107 7.122 C 386.982 6.747,386.880 6.747,386.650 7.120 M12.806 8.149 C 12.801 8.759,12.692 8.808,12.217 8.414 C 11.636 7.932,9.700 8.766,10.212 9.279 C 10.326 9.393,10.145 9.714,9.810 9.992 C 9.474 10.270,9.200 10.346,9.200 10.160 C 9.200 9.974,8.914 10.230,8.565 10.728 C 8.062 11.446,8.031 11.755,8.414 12.217 C 8.808 12.692,8.759 12.801,8.149 12.806 C 7.526 12.811,7.500 12.876,7.994 13.188 C 8.414 13.454,8.697 13.370,8.958 12.903 C 9.204 12.463,9.173 12.191,8.864 12.088 C 8.609 12.003,8.400 11.758,8.400 11.543 C 8.400 11.328,8.595 11.273,8.833 11.420 C 9.405 11.774,11.677 9.577,11.423 8.915 C 11.314 8.632,11.384 8.400,11.579 8.400 C 11.774 8.400,12.003 8.609,12.088 8.864 C 12.191 9.173,12.463 9.204,12.903 8.958 C 13.370 8.697,13.454 8.414,13.188 7.994 C 12.876 7.500,12.811 7.526,12.806 8.149 M389.200 7.987 C 389.200 8.201,388.948 8.278,388.640 8.160 C 388.333 8.042,387.955 8.150,387.800 8.399 C 387.639 8.660,387.750 8.822,388.060 8.779 C 389.063 8.642,389.648 8.798,389.433 9.147 C 389.161 9.587,390.573 10.894,390.932 10.534 C 391.080 10.387,391.200 10.462,391.200 10.700 C 391.200 10.938,390.975 11.209,390.700 11.302 C 390.425 11.394,390.782 11.487,391.493 11.508 C 392.204 11.529,392.902 11.359,393.043 11.130 C 393.210 10.861,392.983 10.815,392.400 11.000 C 391.787 11.195,391.587 11.145,391.774 10.843 C 391.924 10.599,391.846 10.400,391.600 10.400 C 391.354 10.400,391.269 10.211,391.412 9.981 C 391.589 9.694,391.850 9.709,392.236 10.030 C 393.246 10.869,392.830 10.060,391.722 9.032 C 390.847 8.221,390.530 8.124,390.047 8.516 C 389.553 8.917,389.495 8.880,389.713 8.300 C 389.857 7.915,389.801 7.600,389.587 7.600 C 389.374 7.600,389.200 7.774,389.200 7.987 M391.107 9.905 C 390.794 10.287,390.560 10.298,390.142 9.952 C 389.734 9.613,389.705 9.356,390.030 8.964 C 390.375 8.548,390.584 8.538,390.995 8.917 C 391.363 9.256,391.397 9.551,391.107 9.905 M10.399 10.202 C 9.883 10.751,9.323 11.200,9.156 11.200 C 8.988 11.200,9.335 10.699,9.926 10.088 C 10.516 9.476,11.076 9.026,11.168 9.089 C 11.261 9.152,10.914 9.652,10.399 10.202 M392.947 13.100 C 393.136 13.415,393.016 13.600,392.624 13.600 C 392.281 13.600,392.000 13.883,392.000 14.229 C 392.000 14.800,392.057 14.800,392.629 14.229 C 393.421 13.436,393.753 13.425,393.455 14.200 C 393.329 14.530,393.399 14.800,393.613 14.800 C 394.241 14.800,394.056 13.743,393.323 13.149 C 392.863 12.776,392.743 12.760,392.947 13.100 M6.543 17.000 C 6.873 17.330,7.216 17.600,7.305 17.600 C 7.394 17.600,7.467 17.330,7.467 17.000 C 7.467 16.670,7.124 16.400,6.705 16.400 C 6.028 16.400,6.010 16.467,6.543 17.000 M393.443 16.967 C 393.576 17.315,393.861 17.600,394.076 17.600 C 394.602 17.600,394.273 16.691,393.675 16.492 C 393.382 16.394,393.293 16.577,393.443 16.967 M394.200 18.400 C 394.044 18.653,395.063 18.800,396.976 18.800 C 398.725 18.800,400.000 18.631,400.000 18.400 C 400.000 18.172,398.808 18.000,397.224 18.000 C 395.697 18.000,394.336 18.180,394.200 18.400 M395.700 19.491 C 396.525 19.578,397.875 19.578,398.700 19.491 C 399.525 19.405,398.850 19.334,397.200 19.334 C 395.550 19.334,394.875 19.405,395.700 19.491 M395.700 20.291 C 396.525 20.378,397.875 20.378,398.700 20.291 C 399.525 20.205,398.850 20.134,397.200 20.134 C 395.550 20.134,394.875 20.205,395.700 20.291 M394.400 23.000 C 394.400 23.476,394.978 23.600,397.200 23.600 C 399.422 23.600,400.000 23.476,400.000 23.000 C 400.000 22.524,399.422 22.400,397.200 22.400 C 394.978 22.400,394.400 22.524,394.400 23.000 M395.700 24.291 C 396.525 24.378,397.875 24.378,398.700 24.291 C 399.525 24.205,398.850 24.134,397.200 24.134 C 395.550 24.134,394.875 24.205,395.700 24.291 M395.700 25.091 C 396.525 25.178,397.875 25.178,398.700 25.091 C 399.525 25.005,398.850 24.934,397.200 24.934 C 395.550 24.934,394.875 25.005,395.700 25.091 M1.300 27.891 C 2.125 27.978,3.475 27.978,4.300 27.891 C 5.125 27.805,4.450 27.734,2.800 27.734 C 1.150 27.734,0.475 27.805,1.300 27.891 M69.600 62.400 C 69.600 62.620,69.150 62.800,68.600 62.800 C 68.050 62.800,67.600 62.980,67.600 63.200 C 67.600 63.420,67.336 63.600,67.013 63.600 C 66.691 63.600,65.791 64.236,65.013 65.013 C 64.236 65.791,63.600 66.691,63.600 67.013 C 63.600 67.336,63.420 67.600,63.200 67.600 C 62.980 67.600,62.800 68.050,62.800 68.600 C 62.800 69.150,62.620 69.600,62.400 69.600 C 62.140 69.600,62.000 75.600,62.000 86.800 C 62.000 98.000,62.140 104.000,62.400 104.000 C 62.620 104.000,62.800 104.450,62.800 105.000 C 62.800 105.550,62.980 106.000,63.200 106.000 C 63.420 106.000,63.600 106.302,63.600 106.672 C 63.600 107.453,66.241 110.000,67.050 110.000 C 67.353 110.000,67.600 110.180,67.600 110.400 C 67.600 110.620,68.050 110.800,68.600 110.800 C 69.150 110.800,69.600 110.980,69.600 111.200 C 69.600 111.466,113.467 111.600,200.400 111.600 C 287.333 111.600,331.200 111.466,331.200 111.200 C 331.200 110.980,331.650 110.800,332.200 110.800 C 332.750 110.800,333.200 110.620,333.200 110.400 C 333.200 110.180,333.455 110.000,333.766 110.000 C 334.514 110.000,337.200 107.372,337.200 106.640 C 337.200 106.325,337.425 105.992,337.700 105.900 C 338.091 105.770,338.200 101.591,338.200 86.800 C 338.200 72.009,338.091 67.830,337.700 67.700 C 337.425 67.608,337.200 67.361,337.200 67.150 C 337.200 66.363,334.540 63.600,333.782 63.600 C 333.462 63.600,333.200 63.420,333.200 63.200 C 333.200 62.980,332.750 62.800,332.200 62.800 C 331.650 62.800,331.200 62.620,331.200 62.400 C 331.200 62.134,287.333 62.000,200.400 62.000 C 113.467 62.000,69.600 62.134,69.600 62.400 M330.300 67.100 C 330.392 67.375,330.645 67.600,330.862 67.600 C 331.079 67.600,331.511 67.854,331.821 68.164 C 332.132 68.475,332.578 68.793,332.812 68.871 C 333.047 68.949,333.345 70.045,333.475 71.306 C 333.605 72.568,333.867 73.600,334.056 73.600 C 334.245 73.600,334.400 79.720,334.400 87.200 C 334.400 94.680,334.244 100.800,334.054 100.800 C 333.864 100.800,333.594 101.634,333.455 102.653 C 333.202 104.500,332.074 106.000,330.939 106.000 C 330.642 106.000,330.400 106.180,330.400 106.400 C 330.400 106.620,329.770 106.800,329.000 106.800 C 328.230 106.800,327.600 106.980,327.600 107.200 C 327.600 107.466,284.867 107.600,200.200 107.600 C 115.533 107.600,72.800 107.466,72.800 107.200 C 72.800 106.980,72.260 106.800,71.600 106.800 C 70.940 106.800,70.400 106.620,70.400 106.400 C 70.400 106.180,70.080 106.000,69.689 106.000 C 68.879 106.000,67.600 104.670,67.600 103.829 C 67.600 103.520,67.375 103.192,67.100 103.100 C 66.370 102.857,66.370 70.743,67.100 70.500 C 67.375 70.408,67.600 70.078,67.600 69.767 C 67.600 69.019,69.040 67.600,69.800 67.600 C 70.130 67.600,70.400 67.430,70.400 67.223 C 70.400 66.312,329.996 66.189,330.300 67.100 M68.700 138.285 C 68.095 138.377,67.600 138.621,67.600 138.827 C 67.600 139.032,67.412 139.200,67.183 139.200 C 66.367 139.200,63.600 141.840,63.600 142.618 C 63.600 142.938,63.420 143.200,63.200 143.200 C 62.980 143.200,62.800 143.650,62.800 144.200 C 62.800 144.750,62.620 145.200,62.400 145.200 C 62.140 145.200,62.000 151.200,62.000 162.400 C 62.000 173.600,62.140 179.600,62.400 179.600 C 62.620 179.600,62.800 180.050,62.800 180.600 C 62.800 181.150,62.980 181.600,63.200 181.600 C 63.420 181.600,63.600 181.891,63.600 182.247 C 63.600 183.322,66.716 186.037,68.232 186.283 C 68.984 186.405,69.600 186.661,69.600 186.852 C 69.600 187.049,126.594 187.200,200.400 187.200 C 274.206 187.200,331.200 187.049,331.200 186.852 C 331.200 186.661,331.825 186.403,332.590 186.279 C 334.048 186.043,337.200 183.265,337.200 182.217 C 337.200 181.914,337.425 181.592,337.700 181.500 C 338.431 181.256,338.431 143.544,337.700 143.300 C 337.425 143.208,337.200 142.961,337.200 142.750 C 337.200 142.357,336.598 141.534,335.686 140.681 C 334.368 139.447,334.030 139.200,333.662 139.200 C 333.445 139.200,333.192 138.975,333.100 138.700 C 332.940 138.221,71.802 137.811,68.700 138.285 M330.300 142.700 C 330.392 142.975,330.645 143.200,330.862 143.200 C 331.079 143.200,331.511 143.454,331.821 143.764 C 332.132 144.075,332.578 144.393,332.812 144.471 C 333.047 144.549,333.345 145.645,333.475 146.906 C 333.605 148.168,333.867 149.200,334.056 149.200 C 334.245 149.200,334.400 155.320,334.400 162.800 C 334.400 170.280,334.243 176.400,334.052 176.400 C 333.861 176.400,333.612 177.215,333.500 178.212 C 333.295 180.031,332.109 181.600,330.939 181.600 C 330.642 181.600,330.400 181.780,330.400 182.000 C 330.400 182.220,329.770 182.400,329.000 182.400 C 328.230 182.400,327.600 182.580,327.600 182.800 C 327.600 183.066,284.867 183.200,200.200 183.200 C 115.533 183.200,72.800 183.066,72.800 182.800 C 72.800 182.580,72.260 182.400,71.600 182.400 C 70.940 182.400,70.400 182.220,70.400 182.000 C 70.400 181.780,70.080 181.600,69.689 181.600 C 68.974 181.600,67.600 180.304,67.600 179.629 C 67.600 179.430,67.375 179.192,67.100 179.100 C 66.711 178.970,66.600 175.311,66.600 162.600 C 66.600 149.889,66.711 146.230,67.100 146.100 C 67.375 146.008,67.600 145.678,67.600 145.367 C 67.600 144.619,69.040 143.200,69.800 143.200 C 70.130 143.200,70.400 143.030,70.400 142.823 C 70.400 141.912,329.996 141.789,330.300 142.700 M68.700 213.885 C 68.095 213.977,67.600 214.221,67.600 214.427 C 67.600 214.632,67.412 214.800,67.182 214.800 C 66.952 214.800,66.314 215.250,65.764 215.800 C 65.214 216.350,64.595 216.800,64.389 216.800 C 64.184 216.800,63.902 217.250,63.764 217.800 C 63.626 218.350,63.353 218.800,63.157 218.800 C 62.960 218.800,62.800 219.250,62.800 219.800 C 62.800 220.350,62.620 220.800,62.400 220.800 C 62.139 220.800,62.000 226.867,62.000 238.200 C 62.000 249.533,62.139 255.600,62.400 255.600 C 62.620 255.600,62.800 256.050,62.800 256.600 C 62.800 257.150,62.960 257.600,63.157 257.600 C 63.353 257.600,63.626 258.050,63.764 258.600 C 63.902 259.150,64.184 259.600,64.389 259.600 C 64.595 259.600,65.226 260.062,65.790 260.626 C 66.355 261.191,67.443 261.755,68.208 261.879 C 68.974 262.003,69.600 262.261,69.600 262.452 C 69.600 262.649,126.594 262.800,200.400 262.800 C 274.206 262.800,331.200 262.649,331.200 262.452 C 331.200 262.261,331.825 262.003,332.588 261.879 C 333.939 261.660,337.200 258.963,337.200 258.065 C 337.200 257.846,337.425 257.592,337.700 257.500 C 338.091 257.370,338.200 253.151,338.200 238.200 C 338.200 223.249,338.091 219.030,337.700 218.900 C 337.425 218.808,337.200 218.554,337.200 218.335 C 337.200 217.828,334.158 214.800,333.649 214.800 C 333.439 214.800,333.192 214.575,333.100 214.300 C 332.940 213.821,71.802 213.411,68.700 213.885 M327.200 217.949 C 327.200 218.141,328.080 218.383,329.155 218.486 C 331.835 218.744,333.256 220.165,333.514 222.845 C 333.617 223.920,333.859 224.800,334.051 224.800 C 334.243 224.800,334.400 230.920,334.400 238.400 C 334.400 245.880,334.243 252.000,334.052 252.000 C 333.861 252.000,333.615 252.794,333.505 253.765 C 333.237 256.143,331.743 257.637,329.365 257.905 C 328.394 258.015,327.600 258.261,327.600 258.452 C 327.600 258.649,272.170 258.800,200.200 258.800 C 128.093 258.800,72.800 258.649,72.800 258.452 C 72.800 258.260,71.911 257.985,70.824 257.841 C 69.345 257.645,68.784 257.380,68.597 256.789 C 68.459 256.355,68.178 256.000,67.973 256.000 C 67.768 256.000,67.600 255.745,67.600 255.433 C 67.600 255.122,67.375 254.792,67.100 254.700 C 66.711 254.570,66.600 250.911,66.600 238.200 C 66.600 225.489,66.711 221.830,67.100 221.700 C 67.375 221.608,67.600 221.355,67.600 221.138 C 67.600 220.921,67.854 220.489,68.164 220.179 C 68.475 219.868,68.793 219.422,68.871 219.188 C 68.949 218.953,70.045 218.655,71.306 218.525 C 72.568 218.395,73.600 218.133,73.600 217.944 C 73.600 217.753,129.883 217.600,200.400 217.600 C 272.344 217.600,327.200 217.751,327.200 217.949 M69.600 289.548 C 69.600 289.739,68.974 289.997,68.208 290.121 C 67.443 290.245,66.355 290.809,65.790 291.374 C 65.226 291.938,64.595 292.400,64.389 292.400 C 64.184 292.400,63.902 292.850,63.764 293.400 C 63.626 293.950,63.353 294.400,63.157 294.400 C 62.960 294.400,62.800 294.940,62.800 295.600 C 62.800 296.260,62.620 296.800,62.400 296.800 C 62.140 296.800,62.000 302.800,62.000 314.000 C 62.000 325.200,62.140 331.200,62.400 331.200 C 62.620 331.200,62.800 331.650,62.800 332.200 C 62.800 332.750,62.980 333.200,63.200 333.200 C 63.420 333.200,63.600 333.462,63.600 333.782 C 63.600 334.540,66.363 337.200,67.150 337.200 C 67.361 337.200,67.608 337.425,67.700 337.700 C 67.945 338.436,332.855 338.436,333.100 337.700 C 333.192 337.425,333.445 337.200,333.662 337.200 C 334.424 337.200,337.200 334.414,337.200 333.650 C 337.200 333.439,337.425 333.192,337.700 333.100 C 338.091 332.970,338.200 328.751,338.200 313.800 C 338.200 298.849,338.091 294.630,337.700 294.500 C 337.425 294.408,337.200 294.154,337.200 293.935 C 337.200 293.037,333.939 290.340,332.588 290.121 C 331.825 289.997,331.200 289.739,331.200 289.548 C 331.200 289.351,274.206 289.200,200.400 289.200 C 126.594 289.200,69.600 289.351,69.600 289.548 M327.200 293.549 C 327.200 293.741,328.080 293.983,329.155 294.086 C 331.928 294.353,333.282 295.769,333.521 298.653 C 333.619 299.834,333.857 300.800,334.050 300.800 C 334.243 300.800,334.400 306.796,334.400 314.200 C 334.400 321.570,334.243 327.600,334.052 327.600 C 333.861 327.600,333.615 328.394,333.505 329.365 C 333.237 331.743,331.743 333.237,329.365 333.505 C 328.394 333.615,327.600 333.861,327.600 334.052 C 327.600 334.249,272.170 334.400,200.200 334.400 C 128.093 334.400,72.800 334.249,72.800 334.052 C 72.800 333.860,71.911 333.585,70.824 333.441 C 69.345 333.245,68.784 332.980,68.597 332.389 C 68.459 331.955,68.178 331.600,67.973 331.600 C 67.768 331.600,67.600 331.345,67.600 331.033 C 67.600 330.722,67.375 330.392,67.100 330.300 C 66.711 330.170,66.600 326.511,66.600 313.800 C 66.600 301.089,66.711 297.430,67.100 297.300 C 67.375 297.208,67.600 296.955,67.600 296.738 C 67.600 296.521,67.854 296.089,68.164 295.779 C 68.475 295.468,68.793 295.022,68.871 294.788 C 68.949 294.553,70.045 294.255,71.306 294.125 C 72.568 293.995,73.600 293.733,73.600 293.544 C 73.600 293.353,129.883 293.200,200.400 293.200 C 272.344 293.200,327.200 293.351,327.200 293.549 M395.700 372.291 C 396.525 372.378,397.875 372.378,398.700 372.291 C 399.525 372.205,398.850 372.134,397.200 372.134 C 395.550 372.134,394.875 372.205,395.700 372.291 M1.300 375.091 C 2.125 375.178,3.475 375.178,4.300 375.091 C 5.125 375.005,4.450 374.934,2.800 374.934 C 1.150 374.934,0.475 375.005,1.300 375.091 M1.300 375.891 C 2.125 375.978,3.475 375.978,4.300 375.891 C 5.125 375.805,4.450 375.734,2.800 375.734 C 1.150 375.734,0.475 375.805,1.300 375.891 M2.800 376.790 L 5.800 377.056 2.900 377.128 C -1.290 377.232,-1.241 378.282,2.963 378.468 C 5.916 378.600,5.926 378.596,5.820 377.600 C 5.717 376.637,5.604 376.599,2.757 376.562 L -0.200 376.525 2.800 376.790 M1.300 379.891 C 2.125 379.978,3.475 379.978,4.300 379.891 C 5.125 379.805,4.450 379.734,2.800 379.734 C 1.150 379.734,0.475 379.805,1.300 379.891 M2.800 380.800 L 5.800 381.056 2.900 381.128 C -1.389 381.235,-1.328 382.400,2.967 382.400 C 4.966 382.400,5.999 382.563,6.135 382.900 C 6.281 383.261,6.346 383.267,6.368 382.924 C 6.386 382.662,6.237 382.346,6.038 382.223 C 5.838 382.100,5.769 381.639,5.884 381.200 C 6.081 380.446,5.913 380.404,2.947 380.472 L -0.200 380.544 2.800 380.800 M6.400 384.000 C 6.400 384.220,6.760 384.400,7.200 384.400 C 7.640 384.400,8.000 384.220,8.000 384.000 C 8.000 383.780,7.640 383.600,7.200 383.600 C 6.760 383.600,6.400 383.780,6.400 384.000 M392.400 384.000 C 392.400 384.220,392.760 384.400,393.200 384.400 C 393.640 384.400,394.000 384.220,394.000 384.000 C 394.000 383.780,393.640 383.600,393.200 383.600 C 392.760 383.600,392.400 383.780,392.400 384.000 M393.600 386.357 C 393.600 386.627,393.392 386.719,393.138 386.562 C 392.832 386.373,392.786 386.454,393.001 386.801 C 393.247 387.199,393.092 387.267,392.363 387.083 C 391.448 386.852,391.439 386.869,392.167 387.413 C 392.938 387.989,394.502 386.769,393.841 386.107 C 393.708 385.975,393.600 386.087,393.600 386.357 M7.050 386.720 C 6.886 386.984,6.954 387.200,7.200 387.200 C 7.446 387.200,7.528 387.393,7.382 387.630 C 7.236 387.866,7.495 387.822,7.958 387.533 C 8.421 387.244,8.800 386.849,8.800 386.655 C 8.800 386.461,8.548 386.512,8.239 386.768 C 7.809 387.124,7.639 387.117,7.512 386.736 C 7.384 386.353,7.278 386.350,7.050 386.720 M8.200 388.000 C 8.064 388.220,8.064 388.580,8.200 388.800 C 8.336 389.020,8.257 389.200,8.024 389.200 C 7.791 389.200,7.600 389.374,7.600 389.587 C 7.600 389.801,7.915 389.857,8.300 389.713 C 8.880 389.495,8.917 389.553,8.516 390.047 C 8.124 390.530,8.221 390.847,9.032 391.722 C 10.060 392.830,10.869 393.246,10.030 392.236 C 9.709 391.850,9.694 391.589,9.981 391.412 C 10.211 391.269,10.400 391.354,10.400 391.600 C 10.400 391.846,10.599 391.924,10.843 391.774 C 11.145 391.587,11.195 391.787,11.000 392.400 C 10.815 392.983,10.861 393.210,11.130 393.043 C 11.359 392.902,11.529 392.204,11.508 391.493 C 11.487 390.782,11.394 390.425,11.302 390.700 C 11.209 390.975,10.938 391.200,10.700 391.200 C 10.462 391.200,10.387 391.080,10.534 390.932 C 10.894 390.573,9.587 389.161,9.147 389.433 C 8.805 389.644,8.644 389.074,8.770 388.100 C 8.848 387.499,8.543 387.446,8.200 388.000 M391.619 389.186 C 391.300 389.385,390.919 389.473,390.773 389.383 C 390.626 389.293,390.185 389.575,389.791 390.009 C 389.398 390.444,389.200 390.800,389.352 390.800 C 389.504 390.800,389.435 391.160,389.200 391.600 C 388.727 392.483,389.694 392.819,390.226 391.957 C 390.423 391.639,390.582 391.647,390.792 391.987 C 391.003 392.329,391.280 392.263,391.795 391.747 C 392.272 391.271,392.352 390.984,392.037 390.879 C 391.685 390.762,391.681 390.585,392.021 390.175 C 392.643 389.426,392.358 388.727,391.619 389.186 M9.970 391.036 C 9.625 391.452,9.416 391.462,9.005 391.083 C 8.253 390.391,9.073 389.397,9.858 390.048 C 10.266 390.387,10.295 390.644,9.970 391.036 M391.500 390.617 C 391.500 391.268,391.262 391.500,390.593 391.500 C 390.094 391.500,389.716 391.298,389.754 391.050 C 389.978 389.582,391.500 389.204,391.500 390.617 M387.083 392.363 C 387.267 393.092,387.199 393.247,386.801 393.001 C 386.454 392.786,386.373 392.832,386.562 393.138 C 386.719 393.392,386.627 393.600,386.357 393.600 C 386.087 393.600,385.975 393.708,386.107 393.841 C 386.769 394.502,387.989 392.938,387.413 392.167 C 386.869 391.439,386.852 391.448,387.083 392.363 M13.600 392.624 C 13.600 393.016,13.415 393.136,13.100 392.947 C 12.760 392.743,12.776 392.863,13.149 393.323 C 13.743 394.056,14.800 394.241,14.800 393.613 C 14.800 393.399,14.530 393.329,14.200 393.455 C 13.425 393.753,13.436 393.421,14.229 392.629 C 14.800 392.057,14.800 392.000,14.229 392.000 C 13.883 392.000,13.600 392.281,13.600 392.624 M383.600 392.824 C 383.600 393.057,383.416 393.133,383.190 392.994 C 382.965 392.855,382.830 392.972,382.890 393.256 C 382.951 393.539,382.595 393.955,382.100 394.180 C 380.965 394.696,380.692 400.000,381.800 400.000 C 382.275 400.000,382.400 399.431,382.400 397.280 C 382.400 394.529,382.843 393.488,383.849 393.874 C 384.210 394.013,384.400 393.794,384.400 393.243 C 384.400 392.779,384.220 392.400,384.000 392.400 C 383.780 392.400,383.600 392.591,383.600 392.824 M27.734 397.200 C 27.734 398.850,27.805 399.525,27.891 398.700 C 27.978 397.875,27.978 396.525,27.891 395.700 C 27.805 394.875,27.734 395.550,27.734 397.200 M375.734 397.200 C 375.734 398.850,375.805 399.525,375.891 398.700 C 375.978 397.875,375.978 396.525,375.891 395.700 C 375.805 394.875,375.734 395.550,375.734 397.200 M376.534 397.200 C 376.534 398.850,376.605 399.525,376.691 398.700 C 376.778 397.875,376.778 396.525,376.691 395.700 C 376.605 394.875,376.534 395.550,376.534 397.200 M377.200 397.200 C 377.200 399.422,377.324 400.000,377.800 400.000 C 378.276 400.000,378.400 399.422,378.400 397.200 C 378.400 394.978,378.276 394.400,377.800 394.400 C 377.324 394.400,377.200 394.978,377.200 397.200 M379.734 397.200 C 379.734 398.850,379.805 399.525,379.891 398.700 C 379.978 397.875,379.978 396.525,379.891 395.700 C 379.805 394.875,379.734 395.550,379.734 397.200 M380.534 397.200 C 380.534 398.850,380.605 399.525,380.691 398.700 C 380.778 397.875,380.778 396.525,380.691 395.700 C 380.605 394.875,380.534 395.550,380.534 397.200 " stroke="none" fill="#c8e8cc" fill-rule="evenodd"></path><path id="path4" d="M17.925 3.100 C 17.849 4.805,17.797 6.238,17.811 6.284 C 17.824 6.330,18.232 6.264,18.717 6.137 C 19.539 5.923,19.595 5.695,19.528 2.853 L 19.456 -0.200 19.200 2.800 L 18.944 5.800 18.872 2.900 C 18.776 -0.958,18.100 -0.815,17.925 3.100 M20.134 2.800 C 20.134 4.450,20.205 5.125,20.291 4.300 C 20.378 3.475,20.378 2.125,20.291 1.300 C 20.205 0.475,20.134 1.150,20.134 2.800 M22.482 2.868 C 22.652 7.005,23.600 7.145,23.600 3.033 C 23.600 0.565,23.485 0.000,22.982 0.000 C 22.472 0.000,22.385 0.498,22.482 2.868 M24.134 2.800 C 24.134 4.450,24.205 5.125,24.291 4.300 C 24.378 3.475,24.378 2.125,24.291 1.300 C 24.205 0.475,24.134 1.150,24.134 2.800 M24.934 2.800 C 24.934 4.450,25.005 5.125,25.091 4.300 C 25.178 3.475,25.178 2.125,25.091 1.300 C 25.005 0.475,24.934 1.150,24.934 2.800 M372.134 2.800 C 372.134 4.450,372.205 5.125,372.291 4.300 C 372.378 3.475,372.378 2.125,372.291 1.300 C 372.205 0.475,372.134 1.150,372.134 2.800 M383.400 6.800 C 383.108 7.272,383.487 8.000,384.024 8.000 C 384.231 8.000,384.400 7.640,384.400 7.200 C 384.400 6.356,383.818 6.124,383.400 6.800 M386.650 7.120 C 386.483 7.390,386.559 7.600,386.825 7.600 C 387.178 7.600,387.171 7.753,386.800 8.200 C 386.526 8.530,386.461 8.800,386.655 8.800 C 386.849 8.800,387.244 8.421,387.533 7.958 C 387.822 7.495,387.881 7.226,387.664 7.361 C 387.446 7.495,387.196 7.388,387.107 7.122 C 386.982 6.747,386.880 6.747,386.650 7.120 M12.806 8.149 C 12.801 8.759,12.692 8.808,12.217 8.414 C 11.636 7.932,9.700 8.766,10.212 9.279 C 10.326 9.393,10.145 9.714,9.810 9.992 C 9.474 10.270,9.200 10.346,9.200 10.160 C 9.200 9.974,8.914 10.230,8.565 10.728 C 8.062 11.446,8.031 11.755,8.414 12.217 C 8.808 12.692,8.759 12.801,8.149 12.806 C 7.526 12.811,7.500 12.876,7.994 13.188 C 8.414 13.454,8.697 13.370,8.958 12.903 C 9.204 12.463,9.173 12.191,8.864 12.088 C 8.609 12.003,8.400 11.758,8.400 11.543 C 8.400 11.328,8.595 11.273,8.833 11.420 C 9.405 11.774,11.677 9.577,11.423 8.915 C 11.314 8.632,11.384 8.400,11.579 8.400 C 11.774 8.400,12.003 8.609,12.088 8.864 C 12.191 9.173,12.463 9.204,12.903 8.958 C 13.370 8.697,13.454 8.414,13.188 7.994 C 12.876 7.500,12.811 7.526,12.806 8.149 M389.200 7.987 C 389.200 8.201,388.948 8.278,388.640 8.160 C 388.333 8.042,387.955 8.150,387.800 8.399 C 387.639 8.660,387.750 8.822,388.060 8.779 C 389.063 8.642,389.648 8.798,389.433 9.147 C 389.161 9.587,390.573 10.894,390.932 10.534 C 391.080 10.387,391.200 10.462,391.200 10.700 C 391.200 10.938,390.975 11.209,390.700 11.302 C 390.425 11.394,390.782 11.487,391.493 11.508 C 392.204 11.529,392.902 11.359,393.043 11.130 C 393.210 10.861,392.983 10.815,392.400 11.000 C 391.787 11.195,391.587 11.145,391.774 10.843 C 391.924 10.599,391.846 10.400,391.600 10.400 C 391.354 10.400,391.269 10.211,391.412 9.981 C 391.589 9.694,391.850 9.709,392.236 10.030 C 393.246 10.869,392.830 10.060,391.722 9.032 C 390.847 8.221,390.530 8.124,390.047 8.516 C 389.553 8.917,389.495 8.880,389.713 8.300 C 389.857 7.915,389.801 7.600,389.587 7.600 C 389.374 7.600,389.200 7.774,389.200 7.987 M391.107 9.905 C 390.794 10.287,390.560 10.298,390.142 9.952 C 389.734 9.613,389.705 9.356,390.030 8.964 C 390.375 8.548,390.584 8.538,390.995 8.917 C 391.363 9.256,391.397 9.551,391.107 9.905 M10.399 10.202 C 9.883 10.751,9.323 11.200,9.156 11.200 C 8.988 11.200,9.335 10.699,9.926 10.088 C 10.516 9.476,11.076 9.026,11.168 9.089 C 11.261 9.152,10.914 9.652,10.399 10.202 M392.947 13.100 C 393.136 13.415,393.016 13.600,392.624 13.600 C 392.281 13.600,392.000 13.883,392.000 14.229 C 392.000 14.800,392.057 14.800,392.629 14.229 C 393.421 13.436,393.753 13.425,393.455 14.200 C 393.329 14.530,393.399 14.800,393.613 14.800 C 394.241 14.800,394.056 13.743,393.323 13.149 C 392.863 12.776,392.743 12.760,392.947 13.100 M6.543 17.000 C 6.873 17.330,7.216 17.600,7.305 17.600 C 7.394 17.600,7.467 17.330,7.467 17.000 C 7.467 16.670,7.124 16.400,6.705 16.400 C 6.028 16.400,6.010 16.467,6.543 17.000 M393.443 16.967 C 393.576 17.315,393.861 17.600,394.076 17.600 C 394.602 17.600,394.273 16.691,393.675 16.492 C 393.382 16.394,393.293 16.577,393.443 16.967 M394.200 18.400 C 394.044 18.653,395.063 18.800,396.976 18.800 C 398.725 18.800,400.000 18.631,400.000 18.400 C 400.000 18.172,398.808 18.000,397.224 18.000 C 395.697 18.000,394.336 18.180,394.200 18.400 M395.700 19.491 C 396.525 19.578,397.875 19.578,398.700 19.491 C 399.525 19.405,398.850 19.334,397.200 19.334 C 395.550 19.334,394.875 19.405,395.700 19.491 M395.700 20.291 C 396.525 20.378,397.875 20.378,398.700 20.291 C 399.525 20.205,398.850 20.134,397.200 20.134 C 395.550 20.134,394.875 20.205,395.700 20.291 M394.400 23.000 C 394.400 23.476,394.978 23.600,397.200 23.600 C 399.422 23.600,400.000 23.476,400.000 23.000 C 400.000 22.524,399.422 22.400,397.200 22.400 C 394.978 22.400,394.400 22.524,394.400 23.000 M395.700 24.291 C 396.525 24.378,397.875 24.378,398.700 24.291 C 399.525 24.205,398.850 24.134,397.200 24.134 C 395.550 24.134,394.875 24.205,395.700 24.291 M395.700 25.091 C 396.525 25.178,397.875 25.178,398.700 25.091 C 399.525 25.005,398.850 24.934,397.200 24.934 C 395.550 24.934,394.875 25.005,395.700 25.091 M1.300 27.891 C 2.125 27.978,3.475 27.978,4.300 27.891 C 5.125 27.805,4.450 27.734,2.800 27.734 C 1.150 27.734,0.475 27.805,1.300 27.891 M69.600 62.400 C 69.600 62.620,69.150 62.800,68.600 62.800 C 68.050 62.800,67.600 62.980,67.600 63.200 C 67.600 63.420,67.336 63.600,67.013 63.600 C 66.691 63.600,65.791 64.236,65.013 65.013 C 64.236 65.791,63.600 66.691,63.600 67.013 C 63.600 67.336,63.420 67.600,63.200 67.600 C 62.980 67.600,62.800 68.050,62.800 68.600 C 62.800 69.150,62.620 69.600,62.400 69.600 C 62.140 69.600,62.000 75.600,62.000 86.800 C 62.000 98.000,62.140 104.000,62.400 104.000 C 62.620 104.000,62.800 104.450,62.800 105.000 C 62.800 105.550,62.980 106.000,63.200 106.000 C 63.420 106.000,63.600 106.302,63.600 106.672 C 63.600 107.453,66.241 110.000,67.050 110.000 C 67.353 110.000,67.600 110.180,67.600 110.400 C 67.600 110.620,68.050 110.800,68.600 110.800 C 69.150 110.800,69.600 110.980,69.600 111.200 C 69.600 111.466,113.467 111.600,200.400 111.600 C 287.333 111.600,331.200 111.466,331.200 111.200 C 331.200 110.980,331.650 110.800,332.200 110.800 C 332.750 110.800,333.200 110.620,333.200 110.400 C 333.200 110.180,333.455 110.000,333.766 110.000 C 334.514 110.000,337.200 107.372,337.200 106.640 C 337.200 106.325,337.425 105.992,337.700 105.900 C 338.091 105.770,338.200 101.591,338.200 86.800 C 338.200 72.009,338.091 67.830,337.700 67.700 C 337.425 67.608,337.200 67.361,337.200 67.150 C 337.200 66.363,334.540 63.600,333.782 63.600 C 333.462 63.600,333.200 63.420,333.200 63.200 C 333.200 62.980,332.750 62.800,332.200 62.800 C 331.650 62.800,331.200 62.620,331.200 62.400 C 331.200 62.134,287.333 62.000,200.400 62.000 C 113.467 62.000,69.600 62.134,69.600 62.400 M330.300 67.100 C 330.392 67.375,330.645 67.600,330.862 67.600 C 331.079 67.600,331.511 67.854,331.821 68.164 C 332.132 68.475,332.578 68.793,332.812 68.871 C 333.047 68.949,333.345 70.045,333.475 71.306 C 333.605 72.568,333.867 73.600,334.056 73.600 C 334.245 73.600,334.400 79.720,334.400 87.200 C 334.400 94.680,334.244 100.800,334.054 100.800 C 333.864 100.800,333.594 101.634,333.455 102.653 C 333.202 104.500,332.074 106.000,330.939 106.000 C 330.642 106.000,330.400 106.180,330.400 106.400 C 330.400 106.620,329.770 106.800,329.000 106.800 C 328.230 106.800,327.600 106.980,327.600 107.200 C 327.600 107.466,284.867 107.600,200.200 107.600 C 115.533 107.600,72.800 107.466,72.800 107.200 C 72.800 106.980,72.260 106.800,71.600 106.800 C 70.940 106.800,70.400 106.620,70.400 106.400 C 70.400 106.180,70.080 106.000,69.689 106.000 C 68.879 106.000,67.600 104.670,67.600 103.829 C 67.600 103.520,67.375 103.192,67.100 103.100 C 66.370 102.857,66.370 70.743,67.100 70.500 C 67.375 70.408,67.600 70.078,67.600 69.767 C 67.600 69.019,69.040 67.600,69.800 67.600 C 70.130 67.600,70.400 67.430,70.400 67.223 C 70.400 66.312,329.996 66.189,330.300 67.100 M68.700 138.285 C 68.095 138.377,67.600 138.621,67.600 138.827 C 67.600 139.032,67.412 139.200,67.183 139.200 C 66.367 139.200,63.600 141.840,63.600 142.618 C 63.600 142.938,63.420 143.200,63.200 143.200 C 62.980 143.200,62.800 143.650,62.800 144.200 C 62.800 144.750,62.620 145.200,62.400 145.200 C 62.140 145.200,62.000 151.200,62.000 162.400 C 62.000 173.600,62.140 179.600,62.400 179.600 C 62.620 179.600,62.800 180.050,62.800 180.600 C 62.800 181.150,62.980 181.600,63.200 181.600 C 63.420 181.600,63.600 181.891,63.600 182.247 C 63.600 183.322,66.716 186.037,68.232 186.283 C 68.984 186.405,69.600 186.661,69.600 186.852 C 69.600 187.049,126.594 187.200,200.400 187.200 C 274.206 187.200,331.200 187.049,331.200 186.852 C 331.200 186.661,331.825 186.403,332.590 186.279 C 334.048 186.043,337.200 183.265,337.200 182.217 C 337.200 181.914,337.425 181.592,337.700 181.500 C 338.431 181.256,338.431 143.544,337.700 143.300 C 337.425 143.208,337.200 142.961,337.200 142.750 C 337.200 142.357,336.598 141.534,335.686 140.681 C 334.368 139.447,334.030 139.200,333.662 139.200 C 333.445 139.200,333.192 138.975,333.100 138.700 C 332.940 138.221,71.802 137.811,68.700 138.285 M330.300 142.700 C 330.392 142.975,330.645 143.200,330.862 143.200 C 331.079 143.200,331.511 143.454,331.821 143.764 C 332.132 144.075,332.578 144.393,332.812 144.471 C 333.047 144.549,333.345 145.645,333.475 146.906 C 333.605 148.168,333.867 149.200,334.056 149.200 C 334.245 149.200,334.400 155.320,334.400 162.800 C 334.400 170.280,334.243 176.400,334.052 176.400 C 333.861 176.400,333.612 177.215,333.500 178.212 C 333.295 180.031,332.109 181.600,330.939 181.600 C 330.642 181.600,330.400 181.780,330.400 182.000 C 330.400 182.220,329.770 182.400,329.000 182.400 C 328.230 182.400,327.600 182.580,327.600 182.800 C 327.600 183.066,284.867 183.200,200.200 183.200 C 115.533 183.200,72.800 183.066,72.800 182.800 C 72.800 182.580,72.260 182.400,71.600 182.400 C 70.940 182.400,70.400 182.220,70.400 182.000 C 70.400 181.780,70.080 181.600,69.689 181.600 C 68.974 181.600,67.600 180.304,67.600 179.629 C 67.600 179.430,67.375 179.192,67.100 179.100 C 66.711 178.970,66.600 175.311,66.600 162.600 C 66.600 149.889,66.711 146.230,67.100 146.100 C 67.375 146.008,67.600 145.678,67.600 145.367 C 67.600 144.619,69.040 143.200,69.800 143.200 C 70.130 143.200,70.400 143.030,70.400 142.823 C 70.400 141.912,329.996 141.789,330.300 142.700 M68.700 213.885 C 68.095 213.977,67.600 214.221,67.600 214.427 C 67.600 214.632,67.412 214.800,67.182 214.800 C 66.952 214.800,66.314 215.250,65.764 215.800 C 65.214 216.350,64.595 216.800,64.389 216.800 C 64.184 216.800,63.902 217.250,63.764 217.800 C 63.626 218.350,63.353 218.800,63.157 218.800 C 62.960 218.800,62.800 219.250,62.800 219.800 C 62.800 220.350,62.620 220.800,62.400 220.800 C 62.139 220.800,62.000 226.867,62.000 238.200 C 62.000 249.533,62.139 255.600,62.400 255.600 C 62.620 255.600,62.800 256.050,62.800 256.600 C 62.800 257.150,62.960 257.600,63.157 257.600 C 63.353 257.600,63.626 258.050,63.764 258.600 C 63.902 259.150,64.184 259.600,64.389 259.600 C 64.595 259.600,65.226 260.062,65.790 260.626 C 66.355 261.191,67.443 261.755,68.208 261.879 C 68.974 262.003,69.600 262.261,69.600 262.452 C 69.600 262.649,126.594 262.800,200.400 262.800 C 274.206 262.800,331.200 262.649,331.200 262.452 C 331.200 262.261,331.825 262.003,332.588 261.879 C 333.939 261.660,337.200 258.963,337.200 258.065 C 337.200 257.846,337.425 257.592,337.700 257.500 C 338.091 257.370,338.200 253.151,338.200 238.200 C 338.200 223.249,338.091 219.030,337.700 218.900 C 337.425 218.808,337.200 218.554,337.200 218.335 C 337.200 217.828,334.158 214.800,333.649 214.800 C 333.439 214.800,333.192 214.575,333.100 214.300 C 332.940 213.821,71.802 213.411,68.700 213.885 M327.200 217.949 C 327.200 218.141,328.080 218.383,329.155 218.486 C 331.835 218.744,333.256 220.165,333.514 222.845 C 333.617 223.920,333.859 224.800,334.051 224.800 C 334.243 224.800,334.400 230.920,334.400 238.400 C 334.400 245.880,334.243 252.000,334.052 252.000 C 333.861 252.000,333.615 252.794,333.505 253.765 C 333.237 256.143,331.743 257.637,329.365 257.905 C 328.394 258.015,327.600 258.261,327.600 258.452 C 327.600 258.649,272.170 258.800,200.200 258.800 C 128.093 258.800,72.800 258.649,72.800 258.452 C 72.800 258.260,71.911 257.985,70.824 257.841 C 69.345 257.645,68.784 257.380,68.597 256.789 C 68.459 256.355,68.178 256.000,67.973 256.000 C 67.768 256.000,67.600 255.745,67.600 255.433 C 67.600 255.122,67.375 254.792,67.100 254.700 C 66.711 254.570,66.600 250.911,66.600 238.200 C 66.600 225.489,66.711 221.830,67.100 221.700 C 67.375 221.608,67.600 221.355,67.600 221.138 C 67.600 220.921,67.854 220.489,68.164 220.179 C 68.475 219.868,68.793 219.422,68.871 219.188 C 68.949 218.953,70.045 218.655,71.306 218.525 C 72.568 218.395,73.600 218.133,73.600 217.944 C 73.600 217.753,129.883 217.600,200.400 217.600 C 272.344 217.600,327.200 217.751,327.200 217.949 M69.600 289.548 C 69.600 289.739,68.974 289.997,68.208 290.121 C 67.443 290.245,66.355 290.809,65.790 291.374 C 65.226 291.938,64.595 292.400,64.389 292.400 C 64.184 292.400,63.902 292.850,63.764 293.400 C 63.626 293.950,63.353 294.400,63.157 294.400 C 62.960 294.400,62.800 294.940,62.800 295.600 C 62.800 296.260,62.620 296.800,62.400 296.800 C 62.140 296.800,62.000 302.800,62.000 314.000 C 62.000 325.200,62.140 331.200,62.400 331.200 C 62.620 331.200,62.800 331.650,62.800 332.200 C 62.800 332.750,62.980 333.200,63.200 333.200 C 63.420 333.200,63.600 333.462,63.600 333.782 C 63.600 334.540,66.363 337.200,67.150 337.200 C 67.361 337.200,67.608 337.425,67.700 337.700 C 67.945 338.436,332.855 338.436,333.100 337.700 C 333.192 337.425,333.445 337.200,333.662 337.200 C 334.424 337.200,337.200 334.414,337.200 333.650 C 337.200 333.439,337.425 333.192,337.700 333.100 C 338.091 332.970,338.200 328.751,338.200 313.800 C 338.200 298.849,338.091 294.630,337.700 294.500 C 337.425 294.408,337.200 294.154,337.200 293.935 C 337.200 293.037,333.939 290.340,332.588 290.121 C 331.825 289.997,331.200 289.739,331.200 289.548 C 331.200 289.351,274.206 289.200,200.400 289.200 C 126.594 289.200,69.600 289.351,69.600 289.548 M327.200 293.549 C 327.200 293.741,328.080 293.983,329.155 294.086 C 331.928 294.353,333.282 295.769,333.521 298.653 C 333.619 299.834,333.857 300.800,334.050 300.800 C 334.243 300.800,334.400 306.796,334.400 314.200 C 334.400 321.570,334.243 327.600,334.052 327.600 C 333.861 327.600,333.615 328.394,333.505 329.365 C 333.237 331.743,331.743 333.237,329.365 333.505 C 328.394 333.615,327.600 333.861,327.600 334.052 C 327.600 334.249,272.170 334.400,200.200 334.400 C 128.093 334.400,72.800 334.249,72.800 334.052 C 72.800 333.860,71.911 333.585,70.824 333.441 C 69.345 333.245,68.784 332.980,68.597 332.389 C 68.459 331.955,68.178 331.600,67.973 331.600 C 67.768 331.600,67.600 331.345,67.600 331.033 C 67.600 330.722,67.375 330.392,67.100 330.300 C 66.711 330.170,66.600 326.511,66.600 313.800 C 66.600 301.089,66.711 297.430,67.100 297.300 C 67.375 297.208,67.600 296.955,67.600 296.738 C 67.600 296.521,67.854 296.089,68.164 295.779 C 68.475 295.468,68.793 295.022,68.871 294.788 C 68.949 294.553,70.045 294.255,71.306 294.125 C 72.568 293.995,73.600 293.733,73.600 293.544 C 73.600 293.353,129.883 293.200,200.400 293.200 C 272.344 293.200,327.200 293.351,327.200 293.549 M395.700 372.291 C 396.525 372.378,397.875 372.378,398.700 372.291 C 399.525 372.205,398.850 372.134,397.200 372.134 C 395.550 372.134,394.875 372.205,395.700 372.291 M1.300 375.091 C 2.125 375.178,3.475 375.178,4.300 375.091 C 5.125 375.005,4.450 374.934,2.800 374.934 C 1.150 374.934,0.475 375.005,1.300 375.091 M1.300 375.891 C 2.125 375.978,3.475 375.978,4.300 375.891 C 5.125 375.805,4.450 375.734,2.800 375.734 C 1.150 375.734,0.475 375.805,1.300 375.891 M2.800 376.790 L 5.800 377.056 2.900 377.128 C -1.290 377.232,-1.241 378.282,2.963 378.468 C 5.916 378.600,5.926 378.596,5.820 377.600 C 5.717 376.637,5.604 376.599,2.757 376.562 L -0.200 376.525 2.800 376.790 M1.300 379.891 C 2.125 379.978,3.475 379.978,4.300 379.891 C 5.125 379.805,4.450 379.734,2.800 379.734 C 1.150 379.734,0.475 379.805,1.300 379.891 M2.800 380.800 L 5.800 381.056 2.900 381.128 C -1.389 381.235,-1.328 382.400,2.967 382.400 C 4.966 382.400,5.999 382.563,6.135 382.900 C 6.281 383.261,6.346 383.267,6.368 382.924 C 6.386 382.662,6.237 382.346,6.038 382.223 C 5.838 382.100,5.769 381.639,5.884 381.200 C 6.081 380.446,5.913 380.404,2.947 380.472 L -0.200 380.544 2.800 380.800 M6.400 384.000 C 6.400 384.220,6.760 384.400,7.200 384.400 C 7.640 384.400,8.000 384.220,8.000 384.000 C 8.000 383.780,7.640 383.600,7.200 383.600 C 6.760 383.600,6.400 383.780,6.400 384.000 M392.400 384.000 C 392.400 384.220,392.760 384.400,393.200 384.400 C 393.640 384.400,394.000 384.220,394.000 384.000 C 394.000 383.780,393.640 383.600,393.200 383.600 C 392.760 383.600,392.400 383.780,392.400 384.000 M393.600 386.357 C 393.600 386.627,393.392 386.719,393.138 386.562 C 392.832 386.373,392.786 386.454,393.001 386.801 C 393.247 387.199,393.092 387.267,392.363 387.083 C 391.448 386.852,391.439 386.869,392.167 387.413 C 392.938 387.989,394.502 386.769,393.841 386.107 C 393.708 385.975,393.600 386.087,393.600 386.357 M7.050 386.720 C 6.886 386.984,6.954 387.200,7.200 387.200 C 7.446 387.200,7.528 387.393,7.382 387.630 C 7.236 387.866,7.495 387.822,7.958 387.533 C 8.421 387.244,8.800 386.849,8.800 386.655 C 8.800 386.461,8.548 386.512,8.239 386.768 C 7.809 387.124,7.639 387.117,7.512 386.736 C 7.384 386.353,7.278 386.350,7.050 386.720 M8.200 388.000 C 8.064 388.220,8.064 388.580,8.200 388.800 C 8.336 389.020,8.257 389.200,8.024 389.200 C 7.791 389.200,7.600 389.374,7.600 389.587 C 7.600 389.801,7.915 389.857,8.300 389.713 C 8.880 389.495,8.917 389.553,8.516 390.047 C 8.124 390.530,8.221 390.847,9.032 391.722 C 10.060 392.830,10.869 393.246,10.030 392.236 C 9.709 391.850,9.694 391.589,9.981 391.412 C 10.211 391.269,10.400 391.354,10.400 391.600 C 10.400 391.846,10.599 391.924,10.843 391.774 C 11.145 391.587,11.195 391.787,11.000 392.400 C 10.815 392.983,10.861 393.210,11.130 393.043 C 11.359 392.902,11.529 392.204,11.508 391.493 C 11.487 390.782,11.394 390.425,11.302 390.700 C 11.209 390.975,10.938 391.200,10.700 391.200 C 10.462 391.200,10.387 391.080,10.534 390.932 C 10.894 390.573,9.587 389.161,9.147 389.433 C 8.805 389.644,8.644 389.074,8.770 388.100 C 8.848 387.499,8.543 387.446,8.200 388.000 M391.619 389.186 C 391.300 389.385,390.919 389.473,390.773 389.383 C 390.626 389.293,390.185 389.575,389.791 390.009 C 389.398 390.444,389.200 390.800,389.352 390.800 C 389.504 390.800,389.435 391.160,389.200 391.600 C 388.727 392.483,389.694 392.819,390.226 391.957 C 390.423 391.639,390.582 391.647,390.792 391.987 C 391.003 392.329,391.280 392.263,391.795 391.747 C 392.272 391.271,392.352 390.984,392.037 390.879 C 391.685 390.762,391.681 390.585,392.021 390.175 C 392.643 389.426,392.358 388.727,391.619 389.186 M9.970 391.036 C 9.625 391.452,9.416 391.462,9.005 391.083 C 8.253 390.391,9.073 389.397,9.858 390.048 C 10.266 390.387,10.295 390.644,9.970 391.036 M391.500 390.617 C 391.500 391.268,391.262 391.500,390.593 391.500 C 390.094 391.500,389.716 391.298,389.754 391.050 C 389.978 389.582,391.500 389.204,391.500 390.617 M387.083 392.363 C 387.267 393.092,387.199 393.247,386.801 393.001 C 386.454 392.786,386.373 392.832,386.562 393.138 C 386.719 393.392,386.627 393.600,386.357 393.600 C 386.087 393.600,385.975 393.708,386.107 393.841 C 386.769 394.502,387.989 392.938,387.413 392.167 C 386.869 391.439,386.852 391.448,387.083 392.363 M13.600 392.624 C 13.600 393.016,13.415 393.136,13.100 392.947 C 12.760 392.743,12.776 392.863,13.149 393.323 C 13.743 394.056,14.800 394.241,14.800 393.613 C 14.800 393.399,14.530 393.329,14.200 393.455 C 13.425 393.753,13.436 393.421,14.229 392.629 C 14.800 392.057,14.800 392.000,14.229 392.000 C 13.883 392.000,13.600 392.281,13.600 392.624 M383.600 392.824 C 383.600 393.057,383.416 393.133,383.190 392.994 C 382.965 392.855,382.830 392.972,382.890 393.256 C 382.951 393.539,382.595 393.955,382.100 394.180 C 380.965 394.696,380.692 400.000,381.800 400.000 C 382.275 400.000,382.400 399.431,382.400 397.280 C 382.400 394.529,382.843 393.488,383.849 393.874 C 384.210 394.013,384.400 393.794,384.400 393.243 C 384.400 392.779,384.220 392.400,384.000 392.400 C 383.780 392.400,383.600 392.591,383.600 392.824 M27.734 397.200 C 27.734 398.850,27.805 399.525,27.891 398.700 C 27.978 397.875,27.978 396.525,27.891 395.700 C 27.805 394.875,27.734 395.550,27.734 397.200 M375.734 397.200 C 375.734 398.850,375.805 399.525,375.891 398.700 C 375.978 397.875,375.978 396.525,375.891 395.700 C 375.805 394.875,375.734 395.550,375.734 397.200 M376.534 397.200 C 376.534 398.850,376.605 399.525,376.691 398.700 C 376.778 397.875,376.778 396.525,376.691 395.700 C 376.605 394.875,376.534 395.550,376.534 397.200 M377.200 397.200 C 377.200 399.422,377.324 400.000,377.800 400.000 C 378.276 400.000,378.400 399.422,378.400 397.200 C 378.400 394.978,378.276 394.400,377.800 394.400 C 377.324 394.400,377.200 394.978,377.200 397.200 M379.734 397.200 C 379.734 398.850,379.805 399.525,379.891 398.700 C 379.978 397.875,379.978 396.525,379.891 395.700 C 379.805 394.875,379.734 395.550,379.734 397.200 M380.534 397.200 C 380.534 398.850,380.605 399.525,380.691 398.700 C 380.778 397.875,380.778 396.525,380.691 395.700 C 380.605 394.875,380.534 395.550,380.534 397.200 " stroke="none" fill="#c8e8cc" fill-rule="evenodd"></path></g></svg>