<svg width="200" height="53" viewBox="0 0 200 53" fill="none" xmlns="http://www.w3.org/2000/svg">
<path d="M59.3751 50.8721H72.4217C77.9012 50.8721 81.9892 46.9147 81.9892 41.783C81.9892 38.3039 80.1192 35.7816 77.4229 34.4769C78.9015 33.1723 79.8582 31.3023 79.8582 28.9539C79.8582 24.0397 75.8573 19.9952 70.6821 19.9952H59.3751V50.8721ZM65.681 32.6504V25.7357H70.0733C72.2477 25.7357 73.7263 27.3448 73.7263 29.2148C73.7263 31.1283 72.2477 32.6504 70.0733 32.6504H65.681ZM65.681 45.0881V37.9995H71.9868C74.3352 37.9995 75.8573 39.5651 75.8573 41.5656C75.8573 43.566 74.3352 45.0881 71.9868 45.0881H65.681Z" fill="#1B2B47"/>
<path d="M115.221 35.4428C115.221 26.6146 108.089 19.4825 99.2611 19.4825C90.4329 19.4825 83.3008 26.6146 83.3008 35.4428C83.3008 44.271 90.4329 51.4031 99.2611 51.4031C108.089 51.4031 115.221 44.271 115.221 35.4428ZM89.6501 35.4428C89.6501 30.0502 93.8685 25.5709 99.2611 25.5709C104.654 25.5709 108.872 30.0502 108.872 35.4428C108.872 40.8354 104.654 45.3147 99.2611 45.3147C93.8685 45.3147 89.6501 40.8354 89.6501 35.4428Z" fill="#1B2B47"/>
<path d="M145.931 50.8721V19.9952H139.626V40.1304L123.796 19.9952H118.36V50.8721H124.665V30.7369L140.495 50.8721H145.931Z" fill="#1B2B47"/>
<path d="M150.977 50.8721H161.153C170.025 50.8721 177.026 44.0444 177.026 35.4337C177.026 26.8229 170.025 19.9952 161.153 19.9952H150.977V50.8721ZM157.283 45.0881V25.7792H161.153C166.85 25.7792 170.677 30.0846 170.677 35.4337C170.677 40.7828 166.85 45.0881 161.153 45.0881H157.283Z" fill="#1B2B47"/>
<path d="M177.734 45.88C179.952 49.2721 184.084 51.4031 188.998 51.4031C195.391 51.4031 199.783 47.6196 199.827 42.0965C199.827 37.4433 197 34.573 192.477 32.9204L189.998 32.0072C186.737 30.833 185.215 30.0067 185.215 28.1367C185.215 26.3102 187.215 25.3969 189.346 25.3969C191.477 25.3969 193.39 26.2667 194.869 28.0497L199.044 23.7444C196.391 20.7871 193.086 19.4825 189.302 19.4825C183.301 19.4825 178.865 22.9181 178.865 28.7455C178.865 32.9639 181.518 35.8342 186.476 37.5737L189.085 38.487C192.129 39.5307 193.39 40.7484 193.39 42.4879C193.39 44.271 191.738 45.4886 189.259 45.4886C186.737 45.4886 184.084 44.1405 182.562 41.8356L177.734 45.88Z" fill="#1B2B47"/>
<path d="M62.7114 0.244141H59.3752V15.1414H62.7114V0.244141Z" fill="#A09EAD"/>
<path d="M78.4122 15.1414V0.244141H75.0551V9.43426L67.8163 0.244141H64.9418V15.1414H68.2779V5.93026L75.5377 15.1414H78.4122Z" fill="#A09EAD"/>
<path d="M80.6644 15.1414H84.0006V8.99364H84.5461L89.4979 15.1414H93.5054L88.2389 8.574C90.1273 7.90257 91.1554 6.66463 91.1554 4.73429C91.1554 2.25841 89.351 0.244141 86.5394 0.244141H80.6644V15.1414ZM84.0006 6.16107V3.30751H86.1407C87.1269 3.30751 87.8403 3.83206 87.8403 4.73429C87.8403 5.59455 87.1269 6.16107 86.1407 6.16107H84.0006Z" fill="#A09EAD"/>
<path d="M0 47.4619V2.57762C0 1.22295 1.09282 0.123861 2.44592 0.114454C2.44592 0.114454 19.7775 0 19.7791 0C28.9403 0 36.38 7.44126 36.38 16.5868C36.38 18.15 36.1636 19.663 35.7575 21.0977C39.6287 24.3181 42.0981 29.1708 42.0981 34.5894C42.0981 44.2649 34.2257 52.1374 24.5502 52.1374H2.4616C1.10223 52.1374 0 51.0352 0 49.6743V47.4635V47.4619ZM4.92478 5.02356V47.2126H24.5502C31.5101 47.2126 37.1733 41.5493 37.1733 34.5894C37.1733 31.1698 35.8061 28.0623 33.5891 25.7873C30.6101 30.2386 25.538 33.1736 19.7932 33.1736H14.8041C13.4432 33.1736 12.3409 32.0714 12.3409 30.712V19.5047C12.3409 18.1437 13.4432 17.0415 14.8041 17.0415C14.8182 17.0415 14.8339 17.0415 14.8417 17.0431H24.5502C26.9475 17.0431 29.2319 17.526 31.3157 18.3993C31.4082 17.8082 31.4552 17.203 31.4552 16.5868C31.4552 10.1569 26.2247 4.9248 19.7947 4.9248L4.92478 5.02356ZM17.2657 28.2488H19.7932C23.8603 28.2488 27.4461 26.1573 29.5345 22.9932C28.0043 22.3332 26.3188 21.9663 24.5502 21.9663H17.2657V28.2488Z" fill="#31BC98"/>
</svg>
